<svg xmlns="http://www.w3.org/2000/svg" viewBox="0 0 48.42 71.12"><path fill="#FFF" d="M2.53 55c-1.24-2.39-.63-2.52-.08-3.13 1.43 3.3 4.23 8.08 9.08 10.36 7.52 3.55 12.17 4.64 12.63 8.28v0c.47-3.63 5.11-4.73 12.63-8.28 4.84-2.28 7.65-7.06 9.07-10.36.55.61 1.16.74-.08 3.13 3.09-2.21 3.54-10.47.29-14.16 0 0-.59 6.49-6.19 9.59a11.73 11.73 0 0 0 3 .07 25.51 25.51 0 0 1-6.65 6.28c-7.81 5.31-9.14-4.27-9.14-4.27l-1-31.85v-.29h9.13a1.92 1.92 0 0 0 0-3.83H28a2.69 2.69 0 0 0 .32-1.25 2.73 2.73 0 0 0-.81-1.94 7.08 7.08 0 1 0-6.65 0 2.72 2.72 0 0 0-.81 1.94 2.69 2.69 0 0 0 .32 1.25h-7.22a1.92 1.92 0 1 0 0 3.83h9.12v.29l-1 31.85s-1.33 9.58-9.14 4.27a25.52 25.52 0 0 1-6.65-6.28 11.72 11.72 0 0 0 3-.07c-5.6-3.1-6.2-9.59-6.2-9.59C-1 44.53-.56 52.78 2.53 55zM29.86 7.8a6.8 6.8 0 0 0-7-6.6h-.42a6 6 0 0 1 2-.36 5.6 5.6 0 0 1 5.75 5.44 5.21 5.21 0 0 1-.43 2.05c.09-.17.1-.33.1-.53zm-5.65 3a4 4 0 1 1 4-4 4 4 0 0 1-4 3.96zm0 52.68l.79-42.6c.71 25 .26 24.36.65 29.46.42 5.44 2.58 11.74 10.35 7.75a14.41 14.41 0 0 0 3-2c6.76-6 4.55-6.94 3-6.55a9 9 0 0 0 3.93-5.68c-.05.73-.12 1.55-.22 2.51-1.71 16.12-21.5 17.07-21.5 17.07zM14.13 17.8a.35.35 0 0 1 0-.7h12.15a2.59 2.59 0 0 0 .58-1.61 2.85 2.85 0 0 0-1.35-2.32 2.58 2.58 0 0 1 2 2.32 2.2 2.2 0 0 1-.75 1.61h8.6a.35.35 0 0 1 0 .7H14.13zm-12 25.62c.4 3 4.13 6.22 4.13 6.22-.87 0-2.13-.22-2.08.23.2 1.7 6.12 7.81 10.9 9.69-7.97-3.13-13.24-8.78-12.93-16.14z"/></svg>
