<svg xmlns="http://www.w3.org/2000/svg" viewBox="0 0 1282.9 1578.6"><style>.st0{fill:none;stroke:#000000;stroke-width:0.5;stroke-miterlimit:10;} .st1{fill:none;stroke:#000000;stroke-miterlimit:10;} .st2{fill:#FFFFFF;}</style><path class="st0" d="M188 0l35.7 1578.4M2.7 95.5l329.8 1482.9M2.7 561.4l448.4 1017M2.7 737.4l588.4 839.1M4.1 837l775.6 741.4M2.7 902.5l1062.7 675.9M.1 953.3l1282.6 497.6M2.7 998.8l1280 224.6M2.7 1040l1280-29M3.3 1082.2l1279.4-284.6M2.7 1127.9l1280-564.4M2.7 1182.5l1280-896.9M2.7 1254.3L1198.5 3.5M2.7 1364.3l862.1-1354M2.7 1573.1L598.4 35.8M116 1578.4L391.9 5.8M2.7 621.9l494.4-513M864.1 1578.4l418.6-515.6M660.6 1578.4l622.1-761.5M591.1 1576.5L1267.2 7.2M944.9 1576.5L457.3 45.8M1282.7 816.9L453.1 39.4M1282.7 1331.6L457.3 45.8M4.2 1342.2L308.1.9M2.7 1188.1l236.1 388.4M2.7 611.6L302.1 12.9M4 1110.2l1278.7 340.7M1282.7 652.1L457.3 45.8M502.3 1578.4l-49.2-1539"/><path d="M215.2 947.4c1.5.4 1.6 1.7 3.1.4-.6-2.1-2.1-3.2-3.1-5-1.4 1.4-2.9 2.5-4.6 3.5-1.4-5-8-3.4-8.8 1.2 2.3 1 4.4 2.2 5.7 4.2.1-.9 1.3-.7 1.1-1.9-1.1-2.2-4.7-1.9-5.4-4.6 1.2.2.9-1.2 2.3-.8 3.4.7 6.9 8.3 2.7 9.6-1.1.3-4.8-.5-3.8-2.3-1 .4-2.2.6-2.3 1.9 2.6 3.1 9.1.7 9.9-2.3.4-1.3-.8-3-.4-4.2.8-2.3 2.9-2.8 3.8 0-1.3.4-2.3 1.4-2.7 2.7.3 3.6 5.6 7.4 6.9 3.5-2.4 2.1-5.6-4.4-4.4-5.9zM259.4 980.4c1 .3 1.1 1.1 2.1.3-.4-1.4-1.4-2.2-2.1-3.3-.9.9-1.9 1.7-3.1 2.3-.9-3.3-5.4-2.3-5.9.8 1.5.6 2.9 1.5 3.9 2.8.1-.6.9-.5.8-1.3-.7-1.5-3.2-1.3-3.6-3.1.8.1.6-.8 1.5-.5 2.3.5 4.7 5.5 1.8 6.4-.8.2-3.2-.3-2.6-1.5-.7.3-1.5.4-1.5 1.3 1.8 2.1 6.1.4 6.7-1.5.2-.9-.5-2-.3-2.8.5-1.5 2-1.8 2.6 0-.9.2-1.6.9-1.8 1.8.2 2.4 3.8 4.9 4.6 2.3-1.8 1.4-4-3-3.1-4z"/><path d="M269.4 980.7c-1.4 0-2.9-.2-3.6.5-.2-.7-.9-1.8-.5-2.3.8-.1 1.1.5 2 .3 1.1-.4 3.3-1.9 1-.8-2.1-.6-3.2.3-4.4 1.3.4 1.7 1.1 3 1.3 4.9-2.2-.3-1.7-5.9-.8-6.4-.6.5-1.3 1-2.1 1.3-.2 2.9 0 5.4 2.1 6.2-.1.6-.8.6-1 1 1.7-1.1 4.4-1.2 5.9-2.6-1 .2-2.4 1.3-3.6.5 1.2-.8.4-1.6.3-3.1 1.2.4 2.6.1 3.4-.8zM299.5 1031.6c-2 0-4.3-.2-5.4.8-.3-1.1-1.4-2.6-.8-3.4 1.2-.1 1.6.7 3.1.4 1.6-.6 5-2.8 1.5-1.2-3.2-.9-4.8.4-6.5 1.9.6 2.5 1.7 4.4 1.9 7.3-3.3-.5-2.6-8.8-1.1-9.6-1 .6-1.8 1.6-3.1 1.9-.3 4.3.1 8.1 3.1 9.2-.1.9-1.2.8-1.5 1.5 2.5-1.7 6.6-1.9 8.8-3.8-1.5.3-3.6 2-5.4.8 1.8-1.2.5-2.4.4-4.6 1.8.7 3.8.2 5-1.2zM122.9 1030.3c0 .1 0 .2-.1.3l.2-.2-.1-.1z"/><path d="M127.9 1028.8c-.6.7-1.7.9-2.3 1.5v-1.5c-1.2-.4-1.8.9-2.6 1.7 1.7 2.2 1.8 8.6-2.4 7.9-.2-.5-.6-1-1.2-1.2 2.2-1.6 3-4 3.4-6.6-.3.3-.7.5-1.1.4-.7 0-1.7-2.2-3.1-2.3-2.2-.2-3.9.9-5 3.8 1.5.9 3.8 1.1 4.6 2.7.2-.5.6-.9 1.2-1.2-.2-2.4-3.5-1.6-4.2-3.4 5.2-4.1 7.4 9.2 1.5 5-1.1.4-2.1 1.3-2.7 2.3 2.4-1.9 3.8 1.4 6.1 1.9.7-.6 1.4-1.2 2.3-1.5 1.3.4 2.1 1.5 3.8 1.5 1.4-1.1 3.7-1.4 4.2-3.4-.3-1.9-2.1-2.2-2.3-4.2 1.4-.7 2 .9 3.4-.4-.5-1.5-2.6-1.8-3.6-3zm-1.2 4.5c.2 2.1 2.1 2.5 1.9 5-1.8 1-3-.4-4.2-1.2 1.4-1.4.9-4.7 1.5-6.9 1.4-.4 1.1 1 2.3.8.1 1.4-1.2 1.3-1.5 2.3zM155.7 980c.9.2 1 1 1.8.2-.4-1.2-1.3-1.9-1.8-3-.8.8-1.7 1.5-2.7 2-.8-3-4.7-2-5.2.7 1.3.5 2.5 1.4 3.4 2.5.1-.5.8-.4.7-1.1-.6-1.3-2.8-1.1-3.2-2.7.7.1.5-.7 1.4-.5 2 .4 4.1 4.9 1.6 5.7-.7.2-2.8-.3-2.3-1.4-.6.2-1.3.4-1.4 1.1 1.6 1.8 5.4.4 5.9-1.4.2-.8-.5-1.8-.2-2.5.4-1.4 1.7-1.6 2.3 0-.8.2-1.4.8-1.6 1.6.2 2.2 3.4 4.4 4.1 2-1.6 1.6-3.5-2.2-2.8-3.2zM164.4 978.4v.2l.1-.1-.1-.1z"/><path d="M167.8 977.4c-.4.5-1.1.6-1.5 1v-1c-.8-.3-1.2.6-1.7 1.1 1.1 1.5 1.2 5.8-1.6 5.3-.1-.4-.4-.6-.8-.8 1.3-1.1 2.2-2.7 2.3-4.4-.2.2-.5.3-.7.3-.5 0-1.1-1.5-2.1-1.5-1.5-.1-2.6.6-3.3 2.6 1 .6 2.5.7 3.1 1.8.1-.4.4-.6.8-.8-.1-1.6-2.4-1.1-2.8-2.3 3.5-2.8 5 6.2 1 3.3-.8.3-1.4.8-1.8 1.5 1.6-1.3 2.6.9 4.1 1.3.4-.4 1-.8 1.5-1 .9.3 1.4 1 2.6 1 1-.8 2.5-.9 2.8-2.3-.2-1.3-1.4-1.5-1.5-2.8 1-.5 1.4.6 2.3-.3-.7-1-2.1-1.2-2.7-2zm-.8 3c.1 1.4 1.4 1.7 1.3 3.3-1.2.7-2-.3-2.8-.8.9-1 .6-3.1 1-4.6 1-.3.7.6 1.5.5.1 1-.9 1-1 1.6zM266.9 1086c-1.4 0-2.9-.2-3.6.5-.2-.7-.9-1.8-.5-2.3.8-.1 1.1.4 2 .2 1.1-.4 3.3-1.9 1-.8-2.1-.6-3.2.3-4.4 1.3.4 1.7 1.1 3 1.3 4.9-2.2-.3-1.7-5.9-.8-6.4-.6.5-1.3 1-2 1.3-.2 2.9 0 5.4 2 6.2-.1.6-.8.6-1 1 1.7-1.1 4.4-1.2 5.9-2.6-1 .2-2.4 1.3-3.6.5 1.2-.8.4-1.6.3-3.1 1.3.5 2.6.2 3.4-.7zM258.7 1085c-2.5.2-2.6-1.7-4.6-1.5-2.2.2-3.8 2.9-3.3 4.9.6 2.5 4.6 3.5 6.4 1.5-4.5 2.3-7.5-4.9-3.9-5.7 1-.2 2.5 1.5 3.9 1.5.7.1 3.2-1.1 1.5-.7z"/><path d="M253.8 1086.3c1.8-1.5-1.3-.2-1.3 1 1.6.9 6.7.1 5.1 2.6.5-.6 1.4-.8 1.5-1.8-.1-2.2-4.1-.6-5.3-1.8zM215.4 1116.9c-3.8.2-3.9-2.5-6.9-2.3-3.3.2-5.6 4.3-5 7.3.8 3.7 6.9 5.2 9.6 2.3-6.7 3.4-11.1-7.4-5.7-8.4 1.5-.3 3.7 2.2 5.7 2.3 1.1-.1 4.9-1.8 2.3-1.2z"/><path d="M208.2 1118.8c2.6-2.2-2-.3-1.9 1.5 2.4 1.3 10 .2 7.6 3.8.7-.9 2.1-1.2 2.3-2.7-.4-3.1-6.3-.8-8-2.6zM154.1 1084.4v.2l.1-.1-.1-.1z"/><path d="M157.5 1083.3c-.4.5-1.1.6-1.5 1v-1c-.8-.3-1.2.6-1.7 1.1 1.1 1.5 1.2 5.8-1.6 5.3-.1-.4-.4-.6-.8-.8 1.3-1.1 2.1-2.7 2.3-4.4-.2.2-.5.3-.7.3-.5 0-1.1-1.4-2.1-1.5-1.5-.1-2.6.6-3.3 2.6 1 .6 2.5.7 3.1 1.8.1-.4.4-.6.8-.8-.1-1.6-2.4-1.1-2.8-2.3 3.5-2.8 5 6.2 1 3.3-.8.3-1.4.8-1.8 1.5 1.6-1.3 2.6.9 4.1 1.3.4-.4 1-.8 1.5-1 .9.3 1.4 1 2.6 1 1-.8 2.5-.9 2.8-2.3-.2-1.3-1.4-1.5-1.5-2.8 1-.5 1.4.6 2.3-.3-.7-1-2-1.1-2.7-2zm-.8 3.1c.1 1.4 1.4 1.7 1.3 3.3-1.2.7-2-.3-2.8-.8.9-.9.6-3.1 1-4.6 1-.3.7.6 1.5.5.1 1-.8.9-1 1.6zM168 1084.9c-2.5.2-2.6-1.7-4.6-1.5-2.2.2-3.8 2.9-3.3 4.9.6 2.5 4.6 3.5 6.4 1.5-4.5 2.3-7.5-4.9-3.9-5.7 1-.2 2.5 1.5 3.9 1.6.6 0 3.2-1.2 1.5-.8z"/><path d="M163.2 1086.3c1.6-1.3-1.2-.2-1.1.9 1.4.8 6 .1 4.6 2.3.4-.6 1.3-.7 1.4-1.6-.3-1.9-3.8-.5-4.9-1.6z"/><circle class="st1" cx="209.5" cy="1030.2" r="123.8"/><circle class="st1" cx="209.5" cy="1030.2" r="111.4"/><path d="M207.6 1141.6v12.4h4v-12.4h-4zM207.6 906.4v12.4h4v-12.4h-4zM250.3 1134l4.7 11.4c1.3-.5 2.6-1.1 3.9-1.6l-4.7-11.4c-1.3.5-2.6 1-3.9 1.6zM160.2 916.6l4.8 11.5c1.3-.6 2.6-1.1 3.9-1.6l-4.8-11.4c-1.3.4-2.6.9-3.9 1.5zM120.4 944.3l8.8 8.8 3-3-8.8-8.8-3 3zM286.7 1110.6l8.8 8.8 3-3-8.8-8.8-3 3zM94.2 985.2l11.4 4.7c.5-1.3 1.1-2.6 1.6-4l-11.4-4.7c-.5 1.3-1.1 2.6-1.6 4zM311.5 1075.2l11.4 4.7c.6-1.3 1.1-2.6 1.6-3.9l-11.4-4.7c-.5 1.3-1 2.6-1.6 3.9zM98.1 1027.8H85.7v4h12.4v-2.5-1.5zM321 1027.8v4h12.4v-2.5-1.5H321zM311.9 986.1c.6 1.3 1.1 2.7 1.6 4l11.5-4.8c-.5-1.3-1.1-2.7-1.6-4l-11.5 4.8zM94.5 1076.2c.5 1.3 1.1 2.6 1.7 3.9l11.4-4.7c-.6-1.3-1.1-2.6-1.7-3.9l-11.4 4.7zM120.9 1116.6l3 3 8.8-8.8-3-3-8.8 8.8zM287.2 950.3l3 3 8.8-8.8-3-3-8.8 8.8zM250.6 926.6c1.3.5 2.6 1.1 3.9 1.7l4.7-11.4c-1.3-.6-2.6-1.1-3.9-1.7l-4.7 11.4zM160.6 1144c1.3.6 2.6 1.1 3.9 1.6l4.7-11.4c-1.3-.5-2.7-1.1-4-1.6l-4.6 11.4zM287.3 1035.1v-1l-1.6-.4h-.1l-41.9-8.3 16.1-10.8-.4-.9-1.1.2-20.4 4.1 20.5-30.8-.7-.7-1.2.8-29.6 19.7 4.3-21.5-.9-.4-.7 1-10.1 15.1-8.7-43.6h-1l-.3 1.6-8.4 42-10.7-16.1-1 .4.3 1.1h-.1l4.1 20.4-30.8-20.5-.7.7.8 1.2 19.7 29.6-21.5-4.3-.4.9 1 .7 15.1 10.1-43.6 8.7v1l1.6.3h.1l41.9 8.4-16.1 10.7.4 1 1.2-.3v.1l20.3-4-20.5 30.7.7.7 1.2-.8 29.6-19.8-4.3 21.6 1 .3.6-.9 10.1-15.1 8.7 43.6h1l.3-1.7v-.1l8.4-41.8 10.8 16.1.9-.4-.3-1.1.1-.1-4-20.3 30.7 20.5.7-.7-.8-1.2-19.8-29.7 21.6 4.3.4-.9-1-.6v-.1l-15.1-10z"/><path class="st2" d="M185.2 1023.7l1.5-.2-2.9-4.4-18.6-3.6 20 8.2zM226 1007.8l3.6-18.5-8.2 19.9.3 1.5 4.3-2.9zM234.5 1045.6l2.8 4.4 18.6 3.6-20-8.2-1.4.2zM195.2 1061.3l-3.7 18.5 8.3-19.9-.3-1.5-4.3 2.9zM201.1 1002.5L192 989l8 19.1 1.1-5.6zM242.6 1025.1l13.5-9.1-19.1 7.9 5.6 1.2zM220 1066.5l9.1 13.6-7.9-19.2-1.2 5.6zM178.6 1044l-13.6 9.1 19.2-7.9-5.6-1.2zM224.4 1021.1l-12.2 12.2.3-.1 15.1-11.1 5.8 1.1 22.4-33.5-31.4 31.4zM224.6 1048.9l-12.7-12.7v.3l11.1 15-1.1 5.8 33.5 22.4-30.8-30.8zM196.8 1048l12.2-12.2-.3.1-15.1 11.1-5.8-1.1-22.4 33.5 31.4-31.4zM197.1 1020.8l12.2 12.2-.1-.4-11.1-15 1.2-5.8-33.6-22.4 31.4 31.4zM213 1029.4l9-12.1-.7-3.4-10.5-52.7v71.2l2.2-3zM229.9 1034.7h-17.2l15.1 11.2 56.2-11.2h-54.1zM209.7 1037.6l-10.5 14.2 11.2 56.2v-71.3l-.7.9zM191.2 1034.4h17.3l-15.1-11.2-56.2 11.2h54z"/></svg>
