<svg xmlns="http://www.w3.org/2000/svg" viewBox="0 0 96.4 99.9"><style>.st0{fill:#FFFFFF;}</style><path class="st0" d="M97.1 83.1c-.1-.3-1-1.5-1.2-1.6-1.1-.4-1.6 1.3-2.6 1.5-1.4.3-2.1-1.9-3-2.8-1.2-1.1-2.5-1.8-4.1-1.7-1.2 0-1.2 0-2.1-.6-.9-.6 0-.8-1.3-.7-1.6.1-3.1 2.5-4.7 2.2-1.2-.2-2.1-3.9-2.6-5.2-.8-2-1.5-4-2.3-6-.6-1.5-1.8-3.2-1-4.6.9-1.5 2.9-2.8 4.1-4.1 1.5-1.5 2.9-3 4.4-4.5 1.2-1.2 2.4-1.4.8-3-1.5-1.4-3-1.3-4.7-.6-.9.3-1.4.7-2.4.5-.9-.1-1.4-.8-2.2-1-1.2-.2-1.7.8-2.9.5-.6-.1-.5-.7-1.4-.4-.4.1-.4.9-.9 1-1.8-2.7-2.7-6.4-3.9-9.4-1.3-3.3-2.5-6.7-3.9-10-1.4-3.4-2.8-6.8-4-10.2-1.1-2.8.7-5.5-1-8.3-.8-1.3-4.1-2.4-3.2-3.8.7-1.2 2-1.3 2.5-2.9.5-1.4.4-2.9-.3-4.3-3.3-6.5-12.7-.6-8.9 5.5.8 1.3 1.6 1.1 2.5 1.8.9.7.8.6-.2 1.3-2 1.4-3.6 2-4.2 4.7-.4 1.8.1 2.8-.6 4.6-.4.9-.7 1.7-1 2.5-.9 2.6-2.2 5-3.2 7.5-1.7 4.6-3.7 9.3-5.6 13.8-.7 1.7-1.4 3.4-2 5.1-.1.3-.2 1.4-.6 1.5-.7.2-1-.8-1.6-.9-1-.1-1.1 1.1-1.9 1.3-1.1.3-1.1-.8-2.1-.9-1.1-.2-2.1.7-3.5.5-2.5-.5-4.5-1.5-6.6.8-1 1-.6 1 .3 2 .7.8 1.5 1.5 2.3 2.2l4.5 4.5c1.4 1.5 3.7 2.3 3.1 4.6-.7 2.5-2.1 5-3.1 7.4-.5 1.2-1.4 5.8-2.7 6.3-.5.2-3.1-1.7-3.6-1.9-1.5-.6-1.1 0-1.9 1-.8 1-1.4.6-2.8.9-1.3.2-2.3.7-3.3 1.5-.4.3-1.7 2.2-2.1 2.3-.8.2-1.1-1-1.9-.8-.2 0-1.5 1.8-1.5 2 0 .8 1.6 1.5 2.1 1.8 1.7 1.1 3.1 2.1 4.7 2.8 1.4.7 5 2 5 3.5 0 .5-1.7 4.8.5 2.2.7-.9.4-1.9 1.7-1.9.9 0 2.6 1.2 3.5 1.5 1.9.8 3.9 1.5 5.9 2.1 9.7 2.9 19.2 4.2 29.3 3.5 6.4-.5 12.8-1.4 18.9-3.5 2.6-.9 5.1-2 7.6-2.8.9-.3.9-.6 1.7 0 .4.3 1.1 3.2 2 2.9.4-.8-.6-2.2-.8-3-.2-1.2-.3-.7.6-1.4.7-.6 1.9-1 2.6-1.4 2.1-1.1 4.1-2.2 6.1-3.5 1.4-.9 3.4-1.7 4.5-2.9.5-.7.4-.3.2-1zM50.3 3c1 .9 1.3 4.9-.3 4.3-.5-.2-.7-1.5-1.5-1.6C47 5.6 47.4 7.5 47 8c-3.5.1-1.2-8.9 3.3-5zm-7.4 82.7c-1.7-.1-3.4-.3-5.1-.5-3-.5-6-1.3-8.9-2.2-1.4-.4-2.8-.8-4.2-1.4-.7-.3-2-.7-2.7-1.1-.9-.7-1-.5-.3-1.7 1.1-2.3 2.3-4.6 3.6-6.7.5-.9 1.1-1.9 1.6-2.8.6-1.2.5-2.3 1.9-1.7.8.4 1.7 1.7 2.3 2.3.9.9 1.9 1.8 2.8 2.7 4 4.2 8.2 8.3 12.6 12.1.4.3 1.1.7 1.2 1.2-1 .6-3.8-.1-4.8-.2zm5.3-16.2c-1.2-.4-2.7-2.7-3.6-3.6-1.3-1.2-2.6-2.5-3.8-3.7-1-1-2.1-2-3.1-3.1-.8-.9-3.4-2.4-3.5-3.4-.2-1.5 2.6-3.1 3.8-3.3 1.6-.3 1.9-.7 2.6-2.4 2.7-6.2 5.7-12.7 8-19.2.8-.2 7.1 17.2 8.2 19.7.7 1.7.7 2.5 2.4 3.3.9.4 3.8 1.3 3.4 2.7-.3 1.2-3.3 3.4-4.1 4.3-1.1 1.1-2.1 2.2-3.2 3.3-1.2 1.3-2.5 2.5-3.6 3.8-1.1.6-2.5 2-3.5 1.6zM74.5 81c-.5.5-2.2.9-2.9 1.1-5.5 2-11.8 3.8-17.8 3.8-1.6.2-3.1.3-4.7.1 0-.9 1.9-2.1 2.5-2.7 1.2-1.1 2.3-2.3 3.4-3.4l6.9-6.9c1-1 5.1-6 6.3-5.5.8.4 2 3.8 2.5 4.7 1.2 2.3 2.3 4.6 3.5 6.9.5.9.9 1.1.3 1.9z"/><path d="M66.9 51.8c.5-.1.5-.8.9-1 .8-.3.8.3 1.4.4 1.2.3 1.7-.8 2.9-.5.8.2 1.4.9 2.2 1 1 .2 1.5-.2 2.4-.5 1.7-.6 3.3-.8 4.7.6 1.6 1.6.4 1.8-.8 3-1.5 1.5-2.9 3-4.4 4.5-1.2 1.2-3.2 2.6-4.1 4.1-.8 1.4.4 3.1 1 4.6.8 2 1.5 4 2.3 6 .5 1.3 1.4 5 2.6 5.2 1.6.3 3.1-2.1 4.7-2.2 1.3-.1.4.2 1.3.7.9.5.8.6 2.1.6 1.6 0 2.9.6 4.1 1.7 1 .9 1.7 3.1 3 2.8 1-.2 1.5-1.9 2.6-1.5.2.1 1.1 1.3 1.2 1.6.2.7.3.4-.4 1.1-1.1 1.2-3.1 2-4.5 2.9-2 1.3-4 2.4-6.1 3.5-.8.4-1.9.8-2.6 1.4-.9.7-.8.2-.6 1.4.1.8 1.1 2.2.8 3-1 .3-1.6-2.6-2-2.9-.7-.5-.8-.3-1.7 0-2.5.9-5 1.9-7.6 2.8-6 2.1-12.5 3-18.9 3.5-10.1.8-19.6-.6-29.3-3.5-1.9-.6-3.9-1.3-5.9-2.1-.8-.3-2.6-1.5-3.5-1.5-1.3 0-1 1-1.7 1.9-2.1 2.7-.4-1.6-.5-2.2 0-1.5-3.6-2.8-5-3.5-1.6-.8-3.1-1.8-4.7-2.8C2.6 85.5 1 84.8 1 84c0-.1 1.3-1.9 1.5-2 .8-.2 1.1 1 1.9.8.4-.1 1.7-2.1 2.2-2.5 1-.8 2-1.3 3.3-1.5 1.3-.3 2 .1 2.8-.9.9-1 .4-1.7 1.9-1 .5.2 3 2.1 3.6 1.9 1.2-.5 2.2-5.2 2.7-6.3 1-2.4 2.4-4.9 3.1-7.4.6-2.2-1.7-3.1-3.1-4.6L16.4 56c-.7-.7-1.6-1.5-2.3-2.2-.9-1-1.2-.9-.3-2 2.1-2.2 4-1.3 6.6-.8 1.3.3 2.4-.6 3.5-.5 1 .1 1 1.2 2.1.9.8-.2.9-1.4 1.9-1.3.6.1.9 1.1 1.6.9.4-.1.5-1.2.6-1.5.7-1.7 1.3-3.4 2-5.1 1.9-4.6 3.9-9.2 5.6-13.8.9-2.5 2.3-5 3.2-7.5.3-.9.6-1.7 1-2.5.8-1.8.2-2.8.6-4.6.6-2.7 2.2-3.3 4.2-4.7.9-.7 1.1-.6.2-1.3-.9-.7-1.7-.5-2.5-1.8-3.8-6.1 5.6-11.9 8.9-5.5.7 1.3.8 2.9.3 4.3-.5 1.6-1.8 1.8-2.5 2.9-.9 1.4 2.5 2.5 3.2 3.8 1.7 2.8-.1 5.5 1 8.3 1.3 3.4 2.7 6.8 4 10.2 1.4 3.3 2.6 6.7 3.9 10 1 3.1 1.9 6.9 3.7 9.6zM52.3 8.1C54.7 4.9 51.9.3 48 .8s-6 6.6-1.9 8.4c.9-.8-.6-1.7-.9-2.6-.3-.9-.2-2.1.2-2.9 1-2.1 3.9-2.6 5.6-1 1.3 1.2 1.6 3.4.6 4.9-.3.4-1.1.7-1.2 1.3-.2 1.4 1.7-.3 1.9-.8zM50.7 3c-4.5-3.9-6.9 5.1-3.4 5 .5-.5 0-2.4 1.5-2.2.8.1 1 1.4 1.5 1.6 1.7.5 1.4-3.5.4-4.4zm-1.2 4.1c-1.9-2.8-1.9 3.7-1.1 3.8 1.5.1-.6-3.3.9-3.4 0 .3 0 .5-.2.7.5-.3 1-.4.4-1.1zm-5 6.1c-5 5.6 4 13.9 8.6 8 4.3-5.8-2.9-12.9-8.6-8zm.1 8.9c-.6-.5-1.3-2.2-2-2-.6.2-1.7 4.1-2 4.7-1.3 2.9-2.4 6-3.7 8.9-2.7 5.9-4.8 12.2-7.2 18.3-2.5 6.4-5.3 12.8-7.8 19.2-1.3 3.3-2.7 6.6-3.9 9.9-.7 1.8-1.6 3.6-2.3 5.4-.3.8-2 3.8-1.6 4.6 1-.7 1.6-3 2.1-4 .8-1.6 1.7-3.2 2.5-4.8 1.5-3.1 3.1-6.2 4.7-9.3 3.1-5.8 5.9-12 8.9-17.7.4-.7 1.4-1.5 2-2.1.6-.5 1.1-1 1.7-1.4.5-.3 1.5-.2 1.9-.6.7-.8.2-3.7.3-5 .2-1.5.6-2.9 1.1-4.3 1.3-3.2 3.4-5.8 6-7.9.9-.7 3.9-5 2-5.9-.6 1.1-.9 2.5-1.5 3.6-.5.9-1 1.1-1.8 1.7-1.9 1.4-3.5 3.4-4.7 5.5-2.3 3.8-2.4 7.5-2.6 11.8-3.6-.7-6.3 6.3-7.4 8.7-1.1 2.3-2.3 4.5-3.4 6.7-.6 1.1-1.9 5.3-3.2 5.7 0-1.8 1.8-4.5 2.5-6.1l2.7-6.9c1.6-4 3.2-7.8 4.7-11.7 2.1-5.1 4.2-10.3 6.3-15.4 1-2.4 2.2-4.8 3.1-7.2.2-.5.5-2.4 1.2-2.5.6 0 1.5 1.4 2.3 1.5.4-.7-.4-1.1-.9-1.4zm35.7 66c-2.1-6.4-4.9-12.8-7.4-19.1-2.6-6.6-5.1-13.2-7.7-19.8-2.4-6.2-4.8-12.3-7.2-18.4-.7-1.8-1.5-3.7-2.2-5.5-.2-.6-1.1-4.1-1.9-4.2-.4-.1-2 1.8-2.5 2-1.6.8-3.2 0-4.7.5.5 2.9 2.1 6.6 3.5 9.2.6 1.2 1.9 1.7 2.9 2.7 1.3 1.2 2.5 2.5 3.4 4 1.7 2.8 2.6 6 2.7 9.3 0 .8 0 1.6-.1 2.3-.1 1.4-.5 1.3.4 2.2 1 1 2.5 1.3 3.4 2.5 1.8 2.2 3.2 5.6 4.5 8.2 1.4 2.9 2.9 5.7 4.3 8.6 1.6 3.3 3.3 6.6 5 9.8.7 1.4 1.5 2.7 2.2 4.1.5 1 1.2 3.9 2.3 4.4-.2-1-.5-2-.9-2.8zm-37-65C37.7 36.5 32.2 50 26.8 63.5c1.2-.4 2.2-4 2.7-5 1.1-2.2 2.1-4.8 3.8-6.5.7-.7 1.8-1 2.4-1.7.9-.9.7-1 .8-2.5.1-2.2.5-4.5 1.3-6.6.8-2.1 2-4 3.4-5.7 1.3-1.5 3.4-2.6 4.4-4.3 1-1.6 1.8-3.9 1.2-5.6-.4-1.1-1.9-2.4-3.5-2.5zm5 7.3c-2.4 6.5-5.3 13-8 19.2-.7 1.7-1 2.1-2.6 2.4-1.2.2-4 1.8-3.8 3.3.2 1.1 2.7 2.6 3.5 3.4 1 1.1 2.1 2.1 3.1 3.1 1.3 1.2 2.5 2.5 3.8 3.7.9.9 2.4 3.1 3.6 3.6 1.1.4 2.4-.9 3.3-1.8 1.2-1.2 2.5-2.5 3.7-3.8 1-1.1 2.1-2.2 3.2-3.3.8-.9 3.8-3.1 4.1-4.3.3-1.3-2.5-2.2-3.4-2.7-1.7-.8-1.7-1.6-2.4-3.3-1-2.3-7.3-19.7-8.1-19.5zm6.9 10.8c-.1-.4-2.1-2.8-2.5-2.4.4.9 1.7 1.2 1.7 2.3-.6-.1-.4-.8-1-.9 0 2.3 1.6 4.9 2.5 7 .5 1.2 1.1 4.4 2.3 5.2 1-3.4.8-9.9-2-12.4-.2.7 1 1.1.6 1.9-.4-.1-.3-.8-.7-.9-.1.3.5.7.2 1-.4-.2-.8-.7-1.1-.8zm-12.7.1c-.6 1.1-.3.2-.7.2-.1 0-1.3 2.1-1.3 2.1-.2.3-.8 3.5-1.1 3.6-.7-.9.7-3.8 1.1-4.6-1.5-.3-2.4 7.4-1.4 8.3.8-.9 4.5-11 4.6-11-.5.4-.9.9-1.2 1.4zm-2 .9c.6 0 .7-.2.5-.6-.4 0-.3.4-.5.6zM29 52c-1.3-1.5-1.1-.7-2.4-.4-.3.4-.6.6-1 .8l-1.2-.6c-.2-.2-.4-.4-.6-.5l-.9.3c-1.4.1-2.4.1-3.7-.3-1.6-.5-2.3-.8-3.7.1-2.6 1.5-.1 2.9 1.5 4.3 1.8 1.8 3.8 3.4 5.5 5.3.9 1 1.8 2.8 2.7 1 .8-1.7-1.3-2.8-2.4-3.9-1-1-2-2-3-2.9-.7-.6-2.4-1.6-2.5-2.6.8-.4 3.3 1.1 4.3 1.1 1.5 0 2-.7 3.3.1 1.3.9.6.9 2.1.2.6-.4 2.3-.8 2-2zm43.2 10.3c2-1.9 3.9-4 5.9-5.9.7-.6 3.4-2.5 3.3-3.5 0-1.6-2.9-1.8-3.9-1.5-1 .3-1.4.9-2.6 1-1.1 0-2-.9-2.8-1-1 0-1.2 1-1.8 1-.8.1-1.3-1.1-2.1-.9-.4.1-.9.6-1 1-.2 1.5.8.2 1.2.3.9.3.3.9 1.5.7 1-.1.9-.9 2-.8.2.3.5.5.8.7.6.2 1.3.3 1.9.3.8 0 2.3-.8 3-.4 0 .7-1.7 1.9-2.2 2.4l-3.1 3.1c-.6.6-1.8 1.4-1.9 2.2 0 .3.6 1.9.8 2.1.4-.2.8-.5 1-.8zm.8-8.1c-1-.3-.9-.9-1.9-.7-.6.1-1 .7-1.7.8-.4 0-.7-.6-1-.5-.8.3-.5 1.1 0 1.6-.1-.1.7.3.7.3.6.3 1.2.3 2 .6-.1.9-1.5 1.1-1.7 1.9-.1.2.3 1.4.4 1.5.6.5.3.2 1 0 .9-.3 2.1-2 2.8-2.7.5-.5 2.4-1.9 2.5-2.7-1.1 0-2.1 0-3.1-.1zm-53.8-.3c.9.8 1.9 1.7 2.8 2.5.9.9 1.8 2.7 3 3.2.8.3 1.6.3 1.5-1.2-.1-.6-1.5-1.5-1.4-2-.1.1 5-1.1 3-2.6-.8.1-1.1 1.2-1.8 1.3-1.1.1-1.1-.9-2-1.3-.8-.3-1.6.2-2.5.2-.9.1-2-.3-2.6-.1zm29.2 16.7c-.2 0-1.5-1.4-1.8-1.6l-2.1-2.1c-1.6-1.6-3.3-3.1-4.9-4.7-1.4-1.4-2.9-2.7-4.3-4-.7-.7-1.8-2.9-2.7-1.6-.7 1.1 1.1 1.9 1.8 2.5 1.2 1 2.3 2.4 3.5 3.6 3.1 2.9 6.1 5.9 9.2 8.7 1.5 1.3 1.6.5 2.9-.9 1.2-1.3 2.4-2.5 3.7-3.7 1.5-1.3 2.9-2.8 4.3-4.1 1.3-1.3 3.4-2.8 4.4-4.3 1.4-2.1-.4-1.1-1.4-.1-1.7 1.6-3.3 3.3-5 4.9-1.5 1.4-2.9 2.8-4.3 4.2-.3.6-2.3 3.3-3.3 3.2zm21.5-13.8c-.4-.4 1.7-.5-.8-.4.2.3.4.4.8.4zm-43.9.3c.2.2.5.4.8.5.1-.6-.4-1.4-.8-.5zm43-.2c-.4 1.2 1.2.2 0 0zM44.6 69.7c-1.6-2.3-4.3-4.2-6.3-6.1-.8-.8-5.1-6-6-5.8-2.1 1.8 1.8 3.7 3 4.9 2.3 2.4 4.8 4.7 7.2 7 1.4 1.4 2.9 2.7 4.4 4.1 1 .9 1.1 1.4 2.3.7 1.2-.7 2.3-2.3 3.3-3.3 1.5-1.4 2.9-2.8 4.4-4.3 1.3-1.3 2.7-2.6 4.1-3.9.8-.8 2.5-1.9 3-2.9s.5-1.8-.8-1.4c-1.2.4-2.9 3-3.8 3.9-2.7 2.7-5.4 5.3-8.1 8-.5.5-1.1 1.2-1.7 1.6-.9.6-.5 1-1.6.5-1.4-.6-2.2-2.3-3.4-3zm-12.7-9.4c-1.1-.8-1.2 1-.7 1.5.3.3.6.5 1 .2.5-.4-.6-.4-.7-.5 0-.6.9-.3 1.1-.4.1-.5-.5-.7-.7-.8zm31.6.8c.6 0 1.1-.2 1.6-.7-.4-1-1.4.3-1.6.7zm1.7-.1c-.3.5-1.9.2-1.7 1.1-.4-.1 1.5-.2 1 0 .4-.1 1.5-1.1.7-1.1zm-32.1 2.3c.3.4.6.7 1.1.7-.1.1.4-1.3.4-1.1-.3-.6-1.1-1-1.6-1.5.1.6.1 1.2.1 1.9zm29.6-1.7c-.2.5-.8.6-.9 1.1.3-.1 1.4.3 1.6-.2-.3-.3-.4-.7-.7-.9zM51.3 78.9c3-3.1 6.1-6.1 9.2-9.1 1.5-1.4 3-2.8 4.4-4.3 1.4-1.4 2.1-1.9.7-3.8 0 .7-2.4 2.4-2.9 3-1.4 1.4-2.9 2.8-4.4 4.2-2.8 2.8-5.7 5.5-8.4 8.4-.8.9-1.1 1.6-2.1 1.1s-2-2.1-2.8-2.8c-3.1-3-6.2-6.2-9.5-9-1.2-1-2.1-2-3.3-3.2-.7-.7-2.2-2.7-2.7-.6-.4 1.7 4.7 5.5 6 6.6 2.8 2.6 5.6 5.2 8.4 7.9 1 1 1.9 2 3 2.9.8.7 1.1 1.4 2 1 .7-.1 1.7-1.7 2.4-2.3zM32.5 63.1c.2-.2.2-.5.2-.8-.7-.3-1 .9-.2.8zm28.9.7c.5.1.4.6.7.9.4-.2 1.2-.8 1.2-1.3-.7-.4-1.6-.3-1.9.4zM35 63.3c-.1.6-.2 3.3 1.1 2.7 0-1 .7-2.2-1.1-2.7zm24.8 1.5h1.1c0-1.1-.9-.7-1.1 0zM45.3 79.7c-3.3-3-6.4-6.1-9.7-9.2-1.4-1.3-2.7-2.6-4.1-3.9-1.1-1-2.2-3.2-3.2-1.5-1.2 1.9 3.7 5.2 5 6.5l7.3 7c2 2 4 4.1 6.1 6 1.5 1.3 1.7.9 3.1-.4 1.6-1.5 3.1-3 4.6-4.5 3.1-3 6.3-6 9.3-9 .9-.9 3.5-2.6 3.9-3.8.2-.6.1-.8-.2-1.4-.6-1-.6-.8-1.5-.2-2 1.3-3.6 3.5-5.3 5.1-1.5 1.5-3.1 2.9-4.6 4.5-1.8 1.8-3.6 3.6-5.4 5.3-.4.4-1.8 2.2-2.3 2.2-.6 0-2.5-2.3-3-2.7zM34 64.6c-.1.5.7.5.7.1-.1-.3-.6-.3-.7-.1zm25.8 1c.4.1.6.3.5.7.5-.2.9-.5 1.1-1-.7 0-1.3-.3-1.6.3zm-23.7 1c.1.4.4.7.9.8.1-.4.5-1.6-.3-1.6 0 .4-.4.4-.6.8zm22.1-.1c.4.1 1 .1 1.3.1-.3-.2-.4-.5-.5-.9-.5.1-.7.4-.8.8zm-20.4 1.3c1.6-.8 2 .3 2.5 1.4.2.5-.2.8.5 1.3.4.3.7-.5.7-.8-.3-.2-.6.4-.8.1 0-1.1 1.1-.3-.4-1.8-.8-.7-1.6-1.6-2.5-2.2-.1.8-.4 1.4 0 2zm20-.5c.8 1.8-.3.8-1.5 1.4-.5.3-.7 0-.8.8-.1.8.7-.2.6-.2 1.7 1.1-2.3 1.4-2.1 1.3-.7.5.8 2.4-1.4 2.6.6 1.3 2.5-1.4 3.1-2 .7-.8 3.8-2.8 3.8-3.9-.7-.4-1.3-.6-1.7 0zM45.9 84.5c-4.4-3.8-8.5-8-12.6-12.1-.9-.9-1.8-1.8-2.8-2.7-.6-.6-1.6-1.9-2.3-2.3-1.4-.6-1.3.5-1.9 1.7-.5 1-1.1 1.9-1.6 2.8-1.2 2.2-2.4 4.5-3.6 6.7-.6 1.3-.6 1 .3 1.7.6.5 1.9.8 2.7 1.1 1.4.5 2.8.9 4.2 1.4 2.9.9 5.9 1.7 8.9 2.2 1.7.3 3.4.4 5.1.5 1 .1 3.9.8 4.7.1 0-.4-.7-.8-1.1-1.1zm8.1 1.3c5.9 0 12.2-1.8 17.8-3.8.7-.2 2.4-.6 2.9-1.1.7-.7.3-1-.2-1.9-1.2-2.3-2.3-4.6-3.5-6.9-.5-.9-1.6-4.3-2.5-4.7-1.2-.5-5.3 4.5-6.3 5.5l-6.9 6.9-3.4 3.4c-.6.6-2.5 1.8-2.5 2.7 1.5.1 3 .1 4.6-.1zm2.3-17.6c.4 0 .7.1 1.1.1.1-1-.9-.7-1.1-.1zm-17.2.2c-.4-.3-.8-.4-1.2-.4-.1.8 1 .8 1.2.4zm15.2 1.7c.3 0 .6.1.9.1.2-1-.7-.7-.9-.1zM42 71.6c.1.4.7.8 1 .5-.1-.2-.2-.4-.4-.5 1.4-1.1 1.1 1.6 1.2 1.8.2.3.4.5.8.5.8 0 0-.7 0-.8.2 0 .3-.1.4-.2-.7-1-1.8-2.1-2.9-2.7.1.5.1 1-.1 1.4zm-1.1-.5c.2.9 1 .3.8-.4-.4-.1-.6.2-.8.4zm10.7 1.7c.1 0 3-.9 1.5-1.2-.7-.2-1.2.8-1.5 1.2zm-8.9 0c.1.3.3.5.7.7.2-.2.2-.4.2-.7-.4-.1-.7-.1-.9 0zm7.8 1.2c.4.1.8.1 1.2.2-.1-.4-.2-.8-.4-1.2-.4.2-.7.5-.8 1zm1.4-.7c.2.2.4.1.4-.2-.3-.2-.4.2-.4.2zm-6 .1c-1.7 1.3.9 2.8.9 2.2 0-.4-.6-.1-.6-.6.2-.2 1.6.6 1.7.9.5 1.3-1 1.4.7 2.4.1-.1-.1-2-.2-2.2-.5-1.1-1.6-2-2.5-2.7zm-1 1.4c.2-.5.1-.6-.4-.5-.3.4.4.4.4.5zm5.3.6c.6.2 2-.2 1.1-.8-.7-.5-1.3.2-1.1.8zm-1-.2c.1.2.3.3.5.4 0-1-.1-1-.5-.4zm0 .6c-.7 0-.4 1.3-.3 1.7.9-.4 1.4-1.3.3-1.7zM18 79.7c-.1-.7-2.2-1.4-2.8-1.6-.8-.4-1.9-1.1-2 .4-.1 1.1 5.2 4.1 4.8 1.2zm60 .2c-.2 2.2 1 1.7 2.2 1.1.9-.4 3.1-1 3.6-1.9 1.1-2.1-1.3-1.4-2.4-.8-1.2.6-2.4 1.3-3.4 1.6zm5.7 8.7c1.8-.8 3.5-1.8 5.1-2.8 1.1-.7 3.2-1.3 2.9-2.7-.2-.9-1.7-2.4-2.4-2.9-1.4-1-2.8-1.5-4.5-.9-1.4.5-5.6 2.4-5.7 3.8-.1 1.2 1.3 4.2 1.9 5.2.9 1.3 1 1.1 2.7.3zm-70-8.5c-2.5-1.4-4.9-.6-7.1 1.3-.7.6-2 1.8-1 2.6 1.4 1.2 1-1 2.1-1.1.3.8-1 1.1-.8 1.8.1.6 1.2.9 1.7 1.1 1.1.6 4 2.9 5.2 2.8 1.3-.1 1.9-3.3 2.4-4.3.2-.5.5-1.1.6-1.7.5-.7.3-1.2-.6-1.3-.5-.4-2.2-.9-2.5-1.2zm6 2.3c9.8 4 19.8 6.3 30.4 6.1 5.2-.1 10.5-.8 15.6-2.1 2.5-.6 4.9-1.4 7.3-2.3.5-.2 5.4-1.8 2.7-2.9-.5-.2-2.7 1-3.2 1.2-1.3.5-2.5.9-3.8 1.3-2.7.8-5.4 1.4-8.1 1.9-5 .9-10 1.1-15.1 1-5.3-.2-10.6-1.1-15.7-2.5-2.2-.6-4.3-1.3-6.4-2.2-.4-.2-2.6-1.4-2.9-1.3-.7.2-.9 1.5-.8 1.8zm74.8.5c-.7.4-2.5 1.1-2.2 2 .3 1.4 1.4.4 2 0 .7-.4 2.4-1.1 2.3-2-.2-1.5-1.9-.3-2.1 0zm-91.7 0c-1.4 1.1.7 3.2 2.1 3.1 3-.1-1.8-2.8-2.1-3.1zm75.1 2.8c-.7-1.3-.6-2.4-2.3-2.1-1.5.3-3.1 1.3-4.6 1.8-3.9 1.3-7.9 2.2-12 2.8-8.7 1.3-17.5 1.2-26.1-.6-3.3-.7-6.3-1.9-9.5-3-1.1-.4-3.6-1.8-4.6-1.3-.9.4-1.7 3.4-2.1 4.3-.4.8-.9 1.5-1.2 2.3-.1.3-.9 1.2-.7 1.6.4 1 1.6.6 1.7-.3.1-.9-1.7-1.5.5-.9.4.1 1.7 1 2.1.8.6-.3.1-1.4.9-1.6.5.7-.6 1.3-.3 1.8.2.4 2.2 1 2.6 1.1 1.7.6 3.5 1.2 5.2 1.7 1.8.5 3.6 1 5.5 1.3 1.1.2 1.7.5 2.3-.4.3-.6-.1-1.4.5-2.1.8.8-.6 2.2 0 2.9.7.9 4.3.8 5.3.9 1.7.2 3.5.3 5.2.3 3.3.1.3-1.1 2.1-2.4 1.4.9-1 2.1 1.2 2.4 1.6.3 3.8-.2 5.5-.4 1.6-.1 3.1-.4 4.7-.7.7-.1 1.7.1 2.3-.4.8-.7-.3-1.4.4-2 .9.2.1 1.5.7 1.8.3.2 2.5-.4 2.8-.5 1.9-.4 3.6-1 5.4-1.5 1.5-.4 3.2-.9 4.6-1.6.4-.2 1-.2 1.2-.7.2-.7-1-1.3-.4-1.9.9.2.5 1.5 1.1 1.7.5-.1 1-.3 1.5-.5.7-.1.9-.3.5-.8.1-.6-1.7-3.2-2-3.8zm12.9 1.4c1.5-.4 1.7-2.3.1-1.9-1.1.3-1.1 1.5-.1 1.9zM6.5 85.4c-1.3.2-.7 2.3.5 2.1 1.4-.3.9-2.3-.5-2.1zM89.2 88c1.4-.7.2-2.3-1-1.3-.9.9-.2 1.9 1 1.3zm-81-1.6c0 .5-1.3 2.6.6 1.9 1.2-.6.2-1.7-.6-1.9zm1.7 1c-.5.8-1.1 2.2.6 2.1 1.8-.1.7-1.9-.6-2.1zm75.3 1.2c-.7 1.2 2.7 1.6 2.5-.1-.2-1.6-1.9-.6-2.5.1zm-73-.1c-1.6.3.1 3.2 1.4 2.1 1.1-1-.6-2-1.4-2.1zm70.5 1.4c.4 1.1 2 1.5 2.5.2.6-1.6-2-.9-2.5-.2zm0 1.4c-.1-.5-.2-1.2-.8-1.4-.5.6.2 1.6.8 1.4zm-1.8 1c.5-.4-.2-1.2-.5-1.5-.5.5.1 1.3.5 1.5zm-62.2-.4c-.2-1-2.6-1.1-2.2.4.4 1.3 2.2.7 2.2-.4zm59.4-.1c.3.7 1 2.4 1.9.8.8-1.4-1.1-1.5-1.9-.8zm-2.6 1c-.1 1.1.4 1.5 1.3 1.2 1.1-.4.6-.9.7-1.9-.7-.1-1.5.2-2 .7zm-55-.4c-.9-1-2.2.3-1.5 1.1.9 1 1.5-.2 1.5-1.1zm.2 1.7c1 .7 3.4.9 2.4-.7-.9-1.3-2.2-.6-2.4.7zm54.1-1c-.7.1-1.6.2-1.7.9-.1.8.3 1 .9 1 1.3 0 1.4-1.3.8-1.9zm-50.8.6c-1.3 1 .8 2.6 1.8 2.2 2.4-1-1.1-2-1.8-2.2zm46.2.9c.2 1.6 2.1 1.7 2.5.4.6-1.8-1.8-.9-2.5-.4zm-.1 1.4c-.1-1.4-.5-1.5-1.6-1.1-1 .4-1 .4-.9 1.8.9 0 1.8-.3 2.5-.7zM27 94.7c-.4.7-.4 1 0 1.5.2.2 1.9.5 2 .4 1.5-1.2-1.3-1.8-2-1.9zm38.2 1c0 1.6 1.8 2 1.8.4 0-1.1-.8-.8-1.8-.4zm-35.6 1c.7.5 3.5.9 2.4-.9-.1-.2-1.8-.6-2-.4 0 .1-.4 1.4-.4 1.3zm33.5-.6c.2.5.9 2.6 2 1.1.1-.1-.1-1.4-.2-1.5-.3-.1-1.5.3-1.8.4zm-30.4 0c0 1.1-.6.9.4 1.6.5.3 1.2.3 1.5-.1 1.2-1.4-1.2-1.6-1.9-1.5zm28 .4c-.5 0-1.6-.1-2 .2-.2.2-.8 1.2-.1 1.7.3.2 1.6-.2 1.9-.3.4-.2-.3-1 .4-1.1.8.3-.4.8.8 1.1.6.1 1-.3 1.1-.7.5-1.7-1.4-.9-2.1-.9zm-25.3.1c-.3 1.2-.3 1.2.7 1.7.7.3 1.5.2 1.8-.2 1.1-1.6-1.7-1.4-2.5-1.5zm20.1.6c0 1.3-.2 1.3.9 1.5.7.1 1.4-.2 1.6-.7.7-1.6-1.8-.9-2.5-.8zm-17-.2c-.1.3-.3 1.2-.2 1.5.3.5 1.8.2 2 0 1.1-1.4-1-1.5-1.8-1.5zm14.3.4c.2 1.3-.4 1.2.8 1.6.7.2 1.3-.1 1.5-.6.9-1.6-1.5-1.1-2.3-1zm-11.8 0c0 .3-.2 1 0 1.4.4.6 1.9 0 2-.2.9-1.5-1.2-1.4-2-1.2zm2.7.2c-.3.9.3 2.7 1.5 1.6 1.3-1.2-.6-1.9-1.5-1.6zm7 0c0 .3-.1 1.4.1 1.6.5.4 1.4-.1 1.6-.4.5-1.4-.9-1.4-1.7-1.2zm-2 0c-.8.9.1 2.4 1.2 1.6 1-.8 0-1.9-1.2-1.6zm-2.7.1c-.9 1.9 1.6 2.1 1.8.9.2-1.2-1-1-1.8-.9zm2.1-85.2c6.2-.7 7.4 8.9 1.2 9.6-3 .4-5.3-2.1-5.4-5-.1-2.4 2-4.2 4.2-4.6zm-3 2.2c-2.6 4.2 2.7 9.3 6.5 5.7 4.4-4.1-2.4-10.2-6.5-5.7zm1.9-.9c4.5-1.4 7.5 4.9 3.1 6.9-1.6.7-3.6 0-4.5-1.5-1.3-2.1-.1-3.9 1.4-5.4zm4.8 3.6c0-4.3-6.9-4-6.2.3.6 3.8 6.2 3.4 6.2-.3zm-5.2.3c.1-1.9 2.6-3.6 3.9-1.4.5.9.1 2.4-.9 2.9-1.3.6-2.4-.5-3-1.5zm.6-.7c-.3 1.6 1.9 2.3 2.7 1 1.2-1.8-2-3-2.7-1zm1.2.9c1.5 0-.5-2.2 0 0zm4.9 5c1 .3 1.9 4.6 2.3 5.6.9 2.3 1.9 4.7 2.9 7 2 5.1 4 10.3 6 15.4 1.8 4.7 3.6 9.5 5.5 14.2.2.6 1.1 2 1.1 2.7 0 1.5-.5 0-.7-.2-1-1.2-1.6-3.1-2.3-4.5-1-2.1-2.1-4.3-3.1-6.4-.5-1.1-1-1.9-1.9-2.7-.5-.5-2.1-1.1-2.4-1.6-.6-1-.1-2.3 0-3.5.1-2.4-.6-4.9-1.4-7-.9-2.2-2.2-4.4-3.9-6.1-.9-.9-1.9-1.6-2.8-2.3-.5-.4-1-.7-1.4-1.1 0-.2.1-.4 0-.6-.6-1.1-.9-2.3-1.3-3.4-.2-.5-1.6-2.9-1.4-3.3.1-1.1 3.8-1.5 4.8-2.2zm-.8 1c-1.2.6-2.2.7-3.5.9.5 1.6 1.2 3.1 1.8 4.7.2.7.5 2 .9 2.6.5.6 1.6 1.1 2.2 1.6 2.8 2.3 4.8 5.4 6 8.8.6 1.7.9 3.5 1 5.3.1 1-.1 2-.1 2.9.1 1.5.1.9 1.4 1.8 3.1 2 3.1 5.6 5.4 8.2-2.3-6.6-5-13-7.5-19.5-1.2-3.1-2.4-6.3-3.7-9.4-.4-1.4-2.3-8.1-3.9-7.9zm-.3 5.3c-.2-1.3 3.1-3.5.5-4.6-3-1.3-2.7 4-1.1 2.8 0-.7-1.4-.9-.5-2 .7-.8 1.8-.4 2.1.5.3 1-.8 1.6-1.1 2.3-.2.5-.3 2.8.8 1.6-.2 0-.6-.5-.7-.6zm-6.6-.3c-.8-.1-2.8-.5-3.3.5-.7 1.6 1.2.6 1.7.8-.6 1.1-2.4 1.1-2.4-.3 0-1.2 1.5-1.7 2.4-1.6-.3-.8-1.1-.7-1.1-1.7 0-.9 1.2-2 2.2-1.7 1.9.3 1.7 3.1.5 4zm-.2-3.6c-1.4-.6-2.8 1.8-1.3 2.1.9.2.3-.3.8-.6.1-.1.7-.3.9-.5.1-.2-.2-.7-.4-1zm.1 1.8c-.2.5-.5.8-.9 1.1.7.6 2.1-.5.9-1.1zm6.9-1.1c-.3-.1-1.2-.2-1.1.4.3 0 .5.1.7.2-.1.2-.1.5 0 .7.6-.1.6-1 .4-1.3zm.8 5.3c0-.8 1.8-1 1.2-2.3-.3-.7-1.7-.9-1.6.2.9.3 1.4-.4.6 1.3-.2.5-.8.5-.7 1.2.1.6 1 1.1 1.4.4-.3-.2-1-.3-.9-.8zm-11.4.9c1.1 0 2.3 0 2.9-1.3.5-1.1-.5-2.6-1.6-1.3.7.4 1.6-.3 1.3 1-.3 1.3-1.7.9-2.5 1-.8.1-2.1.4-2.1 1.5 0 .8 1.3 1 1.5.1-.2-.3-.7.2-.9-.1.1-.6.8-.9 1.4-.9zm13.3.5c0-.4-.1-2.9-1-1.3 1.1.7.1 1.8 1.8 2.5.2-.3-.6-1-.8-1.2zm-13.7.1c-.1.6.5.4.1 1.1-.3.5-1.1.1-1.2.8 1.7.1 2.3-2.3 1.1-1.9zM56 34.7c-.1.4.7.5.7.1-.2-.5-.7-.1-.7-.1zm-16.8 1.2c.4.3.8-.7.8-1-.6-.5-.8.7-.8 1zm-.5.4c0 .5-1 1.1-.7 1.7.7-.3 1.1-1.2.7-1.7z"/></svg>
