<svg xmlns="http://www.w3.org/2000/svg" viewBox="0 0 818.96 16.89"><g data-name="Layer 2 Image"><path d="M803.23 7.71V2.38H819V.82h-6.08c-4.51-.1-9 .22-13.55-.39a64.64 64.64 0 0 0-10.28-.12c-3.35.09-6.73-.46-10 .48-6.43-.15-12.88.38-19.29-.48a26.65 26.65 0 0 0-3.5 0c-1.17 0-2.34-.06-3.5 0s-2.48-.41-3.62.29-2.18-.51-3.26-.31c-.24 0-.57-.09-.74 0-1.28.87-2.7.33-4.05.49a1.48 1.48 0 0 0-.43.22l.61.68-1.43.11c-.16-.4-.23-.89-.41-.93-1-.25-2-.42-3-.58-2.47-.38-4.85.72-7.3.52-.14 0-.28.12-.52.22l.22.8c.86-.07 1.49-1 2.23-.36v2.8a7.37 7.37 0 0 1-3.67-3.47H670a10.88 10.88 0 0 1-3.32-.4c-1.64-.51-2.14.22-1.92 1.93h15.33v5.47h-1.5c-3.76-.16-7.53-.35-11.29-.49-1.38-.05-2.77 0-4.26 0a3 3 0 0 0-1-3.42 9 9 0 0 1 .96-1.57c.77-.87.8-.84.08-1.89h-33.4l-.23.36 1.26.69-.65.82h11.65c1.09 0 2.19-.18 3.38-.29v5.3h-10.76c-.58 0-1.31-.22-1.72 0-1.4.89-2.86.22-4.36.53v-5l-1.36-2h-45.72c-.93 0-2-.36-2.77.44-1.26-.94-2.71-.33-4.06-.43s-3 0-4.5 0c-.42 0-.93.16-1.23 0-1.71-1-3.52-.17-5.19-.51l-.65 1.36c.38.63 1 .69 1.69.69h11.17v5.5a8 8 0 0 1-2.73-.05 12.08 12.08 0 0 0-4.56-.44h-7.75c-.63 0-1.27 0-1.9-.07V2.29h-.91l-.21-2a21.87 21.87 0 0 1-2.92 0c-.88-.13-1.63.53-2.62.1a7.27 7.27 0 0 0-2.72-.07h-3l-.85 1.47c-1.23.19-2.25-.56-3.38-.79a23.68 23.68 0 0 0-3.69-.21l-.63 1.45 2.83.16v5.34h-16.8V2.29h10.09c.1 0 .2-.22.4-.46l-.83-1h-58.3c-6.5 0-13 .08-19.49 0s-12.88.49-19.29-.46c-2.62-.39-5.19.48-7.79.48Q321.24.8 213.9.79h-2.65v1.56h14.86v5.94h-16.54a.45.45 0 0 1-.22-.08 2.52 2.52 0 0 1-.26-.23V5.85c-.64 0-.25 1.52-1.37.75l-.06-1 1.67-1.68c-.78-1.33.82-1.83.89-3h-23.55l.1 1.47h4.42v3.05a12.78 12.78 0 0 1-.1 2.77h-16.85V2.34H183l.7-1-.78-.46-.38.33a21.25 21.25 0 0 0-2.72-.36H34.38l.94 1.52h16.26v5.86h-17V3l-1.1 1.71c-.65-.36-1.19-.9-1.74-.91a2.12 2.12 0 0 1-2.06-1.44C29.14.77 27.64 1.29 26.56.84c-.17-.07-.59.44-.89.69L27.12 3v1.7h-2l-1.16-1-.46 1.04h-2.17l.29-.35-1.23-.66.27-1.48L19.14.72H0v1.61h16.59v5.84c-5.46.69-11-.86-16.59-.31v2.43h23.8c1.11 0 2.25.27 3.32-.45a1.7 1.7 0 0 1 1.46 0c1.56.83 3.21.45 4.81.45h59.75c2.12 0 4.18 1 6.29.5 3.91-.89 7.87-.36 11.8-.46s8 0 12 0h12a3.79 3.79 0 0 1 2.33.44 2.39 2.39 0 0 0 1.95 0c1.91-.83 3.88-.32 5.81-.46 2.58-.17 5.2.44 8.11-.85l-.82 1.45c1-.33 1.85.26 2.72-.42.32-.25.93-.17 1.41-.18h31.5a17.09 17.09 0 0 0 7.77.39 23.6 23.6 0 0 1 7.8-.26 30.85 30.85 0 0 0 7.8.3c6.85-.83 13.7-.27 20.55-.4s13.83 0 20.75 0a3.5 3.5 0 0 0 1.9-.23c.46-.25 1.27.19 1.93.24s1.33 0 2 0h2a7.47 7.47 0 0 0 2.84-.39 3.62 3.62 0 0 1 2.82.25 8.56 8.56 0 0 0 3.72.7c4.91-.1 9.86.31 14.74-.13 6.11-.54 12.2-.2 18.3-.46 1.16 0 2.43-.84 3.52-.39 1.46.6 2.88.38 4.32.42 1.91.06 3.84 0 5.75 0 2.35.1 4.7.33 7 .48 2 .14 4-.72 6-.54a32.26 32.26 0 0 0 6 0c1.18-.12 2.34-.67 3.55-.43 5.08 1 10.2.35 15.29.46s10.17 0 15.25 0h94.24c1.85 0 3.69.38 5.54.46a31.3 31.3 0 0 0 5.74 0c6.26-.89 12.53-.32 18.8-.43s12.5 0 18.75 0h37.75c1.1 0 2.19-.37 3.29-.46a13.67 13.67 0 0 1 3.24 0c6.08 1 12.2.32 18.3.45s12.33 0 18.5 0h37a3.7 3.7 0 0 0 .54-.09l.17-.83 1.3-.09.17.81c.12.06.26.2.4.2h14c.77 0 1.59.28 2.34-.43a1.86 1.86 0 0 1 1.68 0c1.41.75 2.88.44 4.31.45h16.5c1.6 0 3.26-.4 4.81.45a1.55 1.55 0 0 0 1.23 0c1.89-.88 3.87-.45 5.8-.45q20.62-.06 41.25 0c1 0 2.06-.22 3 .38.95-.78 2.06-.3 3.09-.37s2.33 0 3.5 0h9.75c3.1.14 6.26.8 9.28.38 4.13-.58 8.21-.24 12.31-.36a83.86 83.86 0 0 1 12.24.07c5.62.67 11.21.26 16.8.38s11.33 0 17 0H819V7.71zm-716.59.5h-16.9c0-.87 0-1.83-.05-2.8s0-2 0-3h17zm35 .12c-1.13-.21-2.27.38-3.26-.54-1.6.23-3.26-.45-4.84.35a3.37 3.37 0 0 1-1.43.14h-7.32V2.36h16.85zM156 8.21a.41.41 0 0 1-.21.08h-16.52v-6h16.83v5.84s-.02.04-.1.08zm78.76-4V2.87h.26l.18 1.34zm26.36 3.51C255.6 8.9 250 8 244.23 8.38v-6h16.91zm16.09-2.86l-.1-.1a.79.79 0 0 1-.24.5l-.16-.16.41-.35.1.1a.79.79 0 0 1 .24-.5l.16.16zm18.91 3.27c-2.81.71-5.5-.35-8.24-.33s-5.65 0-8.59 0V2.37h16.84zm6.46-1a2.06 2.06 0 0 1 2.49-.78l.13.78zm28.54.65c-2.88-.33-5.68 1.06-8.47.4s-5.52-.2-8.38-.5V2.36h16.85zm34.37-.11a.41.41 0 0 1-.21.08h-16V2.33h16.32v5.3s-.02.04-.09.08zm35.17.08c-2.13 0-4.25.32-6.22-.09a27.66 27.66 0 0 0-5.29-.39c-1.76 0-3.56-.23-5.43.69v-5.6h16.87c0 .8.06 1.68.07 2.56s.02 1.81.02 2.87zm34.95-.47c-2.78-.34-5.42.67-8.21.51s-5.65 0-8.7 0V2.38h16.91zm35 1c-2.31-.25-4.65.53-6.94-.47a2.11 2.11 0 0 0-1.47 0c-2.38.95-4.85.29-7.27.45-.41 0-.84-.35-1.22-.52V2.37h16.9zm35 .06a9.15 9.15 0 0 0-1.52-.34c-1.38-.1-2.77-.12-4.16-.17-.7.89-1.68.38-2.53.49-2.86.38-5.65-.6-8.6-.52V2.36h16.84zm46.63-7c1-.07 1.24.53 1.71 1.72zm57.88 6.41h-16.86c0-.79-.06-1.67-.07-2.55s0-1.81 0-2.79h17zm45.88.9c-.51-1.21-.45-2 .11-2.69l-2.21-2.09-1 .92h-3.33a7.57 7.57 0 0 1-.57 2.1c-.58-1.09-.18-1.68.9-2.26a23.68 23.68 0 0 1 1.59-2.83h1l1.39 1.45 1.4.07 2.12 1.86zm59.17-.9h-16.93V2.39h8.64l.62-1.28 1 1.1h6.61c0 .95.06 1.83.07 2.71s0 1.8 0 2.79zM723.36 3l-.21-1.16h1.8zm26.78 4.68h-1.62l-1 1-2.1-1.42c-2.11 0-4.34-.33-6.41.1a44.57 44.57 0 0 1-5.75.43c0-.89-.06-1.77-.07-2.65s0-1.81 0-2.79h17zm35 .08h-9.29s-5 .22-7.62-.7V2.41h16.87zm-87.9 7.53h-2.25c-.11 0-.2.21-.41.45l.82 1H819v-1.5z"/><path d="M558.67 2.29a10.45 10.45 0 0 0 2.22 0c.36-.08.61-.64 1.06-1.15L560.06 0c-.4.89-1.41 1-1.39 2.29zm-373.05-.66l.06-.71h-2.09c.58.79 1.17 1.08 2.03.71zm257.69 13.65c-1.19 0-2.39.23-3.57-.43a2.51 2.51 0 0 0-2.18 0 4.54 4.54 0 0 1-2.83.42h-51.24c-1 0-2.16-.52-3.05.46a.49.49 0 0 1-.48 0c-.9-1-2-.46-3.05-.46h-96.24c-1.68 0-3.42-.42-5.06.44-.34.18-.92-.11-1.39-.2a6.51 6.51 0 0 0-1.14-.26h-11.75l-.83 1.39H628l1.39-1.39h-2.9q-91.57.04-183.18.03zm-183.22-.23c-.55.33-1.05.76-1.15.68-1.12-.89-2.4-.41-3.58-.41-9.75 0-19.5-.07-29.24 0-2.09 0-4.27-.62-6.3.45a.49.49 0 0 1-.45-.07c-.76-.82-1.73-.39-2.58-.39H52.07c-7.41 0-14.83-.09-22.24 0s-14.7-.49-22 .42c-1.55.19-3.19-.42-4.79-.43H0v1.41h260.2zm400.04.95l-.5.78h7.17c2.33 0 4.67.1 7 0s4.43.56 6.57-.41c2.21.92 4.51.3 6.77.42s4.63 0 7 0v-1.41h-34.52zm-1.13-.62c-5.63-.41-11.23.4-16.8-.53a11 11 0 0 0-4.79.37c-1.31.37-2.81 0-4.22.1s-2.68.39-4 .6l.07.76h30l-.56-.68c.05-.21.66-.24.3-.62z"/></g></svg>