<svg xmlns="http://www.w3.org/2000/svg" viewBox="0 0 16.39 365"><g><path d="M14.5 198.21l.22.19.2-.07z"/><path d="M15.08 364.78c.18-.18.39-.29.4-.41a58.14 58.14 0 0 0 0-7.67c-.29-2.45-.5-2.58 0-4.9a3 3 0 0 0-.17-2.36 3.8 3.8 0 0 1-.26-1.28l.94-.33v-17.36l-1-.68c.2-.2.42-.32.42-.44v-11.21l-.95-.83v12.58H8.19V313h3.29a15.49 15.49 0 0 1 3.23.13V317c2.09-1.1.07-2.6.44-3.81l1-.34v-7.26c0-2.42-.05-4.83 0-7.25s-.75-4.64-.56-7 0-4.83.05-7.24A45.05 45.05 0 0 1 16 277c.42-2.34.09-4.82.09-7.23v-7.17l-1.33-.15-.87-1.93h-3s-2 .44-2.78-.78c0-1.38.08-2.88 0-4.36-.25-3.94.95-7.79.47-11.72h6.12V261l1.7.82c-1-2-.74-3.73-.77-5.4s0-3.33 0-5c0-.52-.44-1-.44-1.54s.49-1.05.43-1.54c-.3-2.64.57-5.18.54-7.79v-13.81c-2.56-.57-4.86-1.64-7.2-1.21-1-1.9-.81-3.79-.78-5.64a10.9 10.9 0 0 1 .38-3.33 3.15 3.15 0 0 0-.36-3.28.75.75 0 0 1 0-.71c.89-1.22.22-2.69.6-4h5.83v16.23l.42-.34.33 1.12c.56-6.56-.16-12.92.78-19.24a16.14 16.14 0 0 0 0-3.49 28.35 28.35 0 0 0-.5-3.29c-.06-.33-.27-.63-.87-1.14a1.81 1.81 0 0 1-.32.08c-.07 0-.17-.18.1-.27 0-.12.3 0 .61.06l-.19.07a3.8 3.8 0 0 0 1.19.17v-1.64c0-1.5.07-3 0-4.5s-.34-2.86-.47-4.29a8.42 8.42 0 0 0-.06-2.23c-.32-.78.86-1.28.12-2.16-.37-.44-.06-1.44-.06-2.19 0-1.75-.07-3.5 0-5.25s.5-3.37.45-5c-.16-5.68.41-11.36-.4-17a52.55 52.55 0 0 1-.06-8.48 70.14 70.14 0 0 1 .37-8.3c.3-2.18.65-4.57-.38-6.78a.48.48 0 0 1 .1-.44c.73-.6.36-1.4.37-2.09a68 68 0 0 0-.41-9.29 53.11 53.11 0 0 1-.05-8c.06-2.6-.24-5.2.43-7.8a18.84 18.84 0 0 0 .06-4.39l-.88-.7v-1.93l.93-.19c-.33-1.79.46-3.59-.51-5.31a1.63 1.63 0 0 1 .11-1.41 3.72 3.72 0 0 0 .16-3.32 7.48 7.48 0 0 1-.37-2.58c0-3.08.14-6.17-.06-9.24s.75-6.17.54-9.09L15 63.26l1-.42v-5.69s-.12-.1 0 0h-1.64c.3.67.55 1.14.72 1.64a2.25 2.25 0 0 1-.07.78l-1.53-.14c.15-.4.23-.62.32-.83s.26-.53.5-1h-2.77l.47-2.24-1.59.7c-.7-1.09.08-1.92.29-2.74-.66-.7-1.58-1.23-.85-2.29a6.09 6.09 0 0 0 2.78-.46H9.51a4.46 4.46 0 0 1-.92-3c-.33-3.87.74-7.67.53-11.54v-2.44h5.53V50l1-.1c-.56-11.33 1-22.6.3-34l-.87.79-.69-1.2h-2.9l-2.88-.06V0h-1.5v99c0 1.25-.09 2.51 0 3.75a28.82 28.82 0 0 0 .63 3.2h1.34v-2.35H15c-.77 1.85-.29 3.73-.37 5.57s-.09 3.84 0 5.75.35 3.64.55 5.54H8.61v-5.69a4.53 4.53 0 0 0-.4-2.6c-.34-.55.19-1.63.33-2.47-1.13-.11-.59 1.33-1.42 1.44 0 2.34-.33 4.64.09 6.81a45.22 45.22 0 0 1 .4 7.56c.06 2.5 0 5 0 7.5 0 2-.77 4-.52 6 .18 1.51.86 3 .52 4.54-1 4.65-.37 9.36-.48 14s0 9.5 0 14.25c0 2.6.68 5.16.52 7.79s0 5.33-.06 8c-.05 1.77-.38 3.53-.46 5.29s-.06 3.5 0 5.25c0 .78-1.11 1.37-.33 2.21.59.65.28 1.42.3 2.12.08 2.78-.84 5.5-.48 8.29.16 1.26.4 2.52.48 3.79a38.81 38.81 0 0 1 0 4 4.76 4.76 0 0 1-.35 2.11 3.66 3.66 0 0 0-.05 2.89 5.58 5.58 0 0 1 .4 2.84v46.25c0 2 .35 4 .46 6a7 7 0 0 1-.43 3.31c-.43 1 .31 2.23-.51 3.3-.28.37 0 1.13 0 1.72a39.65 39.65 0 0 0 .07 6.74c.82 4.69.15 9.38.47 14.05.09 1.29-.4 2.51-.1 3.85a19.71 19.71 0 0 1 .05 4.4v21.25s.35 2.93-.47 4.3a.92.92 0 0 0 0 .74c.89 2 .3 4 .53 6 2.38-.6 4.8-.11 7.17-.32a1.57 1.57 0 0 1 .21.2.42.42 0 0 1 .08.21v16.54H8.11v-5.6c0-1.33.09-2.67 0-4s-.42-2.49-.73-4.2a11 11 0 0 0-.24 1.39c0 2.67-.39 5.41.11 8a20.26 20.26 0 0 1 .42 4.49h8zm-3.58-101.2l.2.25h-1.08l.38.54a5.05 5.05 0 0 0-.9-.4 4 4 0 0 0-.9 0v-.42zm-2.8 15l2.79-.05h3v17h-5.8zm4.9-50c.23.06.42.28.78.55-.4.22-.65.45-.74.4a2.39 2.39 0 0 1-.52-.59c.16-.18.35-.44.48-.41zM8.86 61c.06.06.17.12.16.16a1.56 1.56 0 0 1-.16.34l-.18-.18zm-.17 24.46v-16.9l2.8-.06h3v17zM10.13 89a1.4 1.4 0 0 1 .6-.5c.09 0 .29.25.64.58a2.92 2.92 0 0 1-.88.36c-.12.03-.39-.37-.36-.44zm3.71 13.11l-1.05-1.64-.31.89c-.83.43-1.37 0-1.86-.63 1-.7.13-1.85.64-2.67a3.4 3.4 0 0 1 2.58 4.07zm-1-6.61a2.65 2.65 0 0 1-.18-.64 6.48 6.48 0 0 1 .11-.94 9.58 9.58 0 0 1 1.28.24 7.31 7.31 0 0 1 1 .51c-.41 1.14-1.39.76-2.25.85zm.46 104c1.17.64.77 1.55.89 2.53-1.35-.62-1.19-1.52-.93-2.52zm-4.61-60.94l2.81-.06h3v17H8.69zm5.86 35v16.87c-.8 0-1.68.06-2.56.07s-1.8 0-2.87 0V188c0-2.76-.86-5.47-.5-8.25.11-.85-.31-1.75.45-2.58.25-.27-.05-1.07-.15-1.62s-.27-1.21-.44-2zM7.49 293h-.25v-1.5h.25zM.48 233.53l.63-.22V72.55c0-.77.35-1.66-.46-2.31a.48.48 0 0 1 0-.47c1-1.07.46-2.38.46-3.55q.03-33.1 0-66.22h-1v233.19c.01.1.22.21.37.34z"/><path d="M15.61 14.46V0h-1v14.46zM11.91 55c1.23.74 2.71.55 4.2.42v-1.73L13.87 53zm2.94-2.7c1.21.1 1.21.1 1.05-.66zM.64 261.68c-.37-1.76.41-3.53.43-5.28.09-7.16 0-14.32 0-21.49 0-.13-.15-.27-.25-.43l-.65.12c-.32 8.19-.17 52.21.2 54.4.92-.59.74-1.5.74-2.34 0-4.16.08-8.33 0-12.49s.4-8.33-.47-12.49zm-.03 70.68c.24-4.67-.46-9.36.45-14A8.65 8.65 0 0 0 .65 314c-.54-1.67.5-3.31.47-5v-9.73c0-1.44.23-2.92-.61-4.24 0 0-.29.07-.29.13v59.79a.69.69 0 0 0 .42-.55c.22-5.5-.49-11 .51-16.51.31-1.89-.63-3.66-.54-5.53zm.02 29.09c-.08-1.13 0-2.28 0-3.41-.21 1.75-.36 4.23-.44 7h.63a17.2 17.2 0 0 1-.19-3.59zM.61 289a4.75 4.75 0 0 0-.47 1.52c.07 1.5-.42 3.07.47 4.48.17-.13.48-.26.48-.39v-5.22c0-.13-.31-.26-.48-.39zM7.2 107.6v1.32h.44l-.19-1.31z"/></g></svg>
