<svg xmlns="http://www.w3.org/2000/svg" viewBox="0 0 16.7 365"><g><path d="M11.7 320.62c-1-8.08-.35-16.19-.47-24.29s0-16.33 0-24.5v-24.5-24.5c0-.7.33-1.51-.45-2.07a.48.48 0 0 1 0-.47c1-1.17.46-2.55.46-3.8v-41.5c.92-6.83.34-13.69.5-20.54-.82-3.23-.44-6.52-.49-9.79s0-6.67 0-10c0-1-.29-2.08.44-3.08a1.8 1.8 0 0 0 0-1.68c-.74-1-.44-2.06-.44-3.08V81.07c1-6.91.35-13.86.47-20.79s0-13.83 0-20.75v-21c0-2-.75-4-.56-6s0-4.16 0-6.25V0H8.7v15.44H2.39c-.23-.47-.46-1-.72-1.42a2.8 2.8 0 0 1-.43-.32l.16-.16.35.41-.08.05c.85-.11.5-.76.51-1.16V-.03H.7v3.4l1.17.39-1.17.41v13.41c0 .36.35.71.37 1.08a4.37 4.37 0 0 1-.2 1.14l1 1.45-1.18.4v6.39a4.83 4.83 0 0 0 .71 2.87h1.2l.25-1.42c.45 1.06.15 2.25.84 3.22 0 0-.09.12-.18.23H2.38l-.53-1.22-1.12 1a8.76 8.76 0 0 0 .91 5.15l-.86.3v4.22l1 .33a3.79 3.79 0 0 0-1.1 3.13V58.1a6.67 6.67 0 0 0 .1.84l.85.17c-.38 1-1.24 1.7-.85 2.79l1.48.28-1.57 1v8.66a15.9 15.9 0 0 1 0 3c-.16.83.73 1.57.09 2.36 1.22.88-.15 1.71-.16 2.57-.12 7.68.57 15.37-.37 23-.19 1.55.41 3.19.43 4.79.06 6.33 0 12.66 0 19 0 1.1.27 2.22-.42 3.33a2.45 2.45 0 0 0 0 2.17c.66 1 .42 2.06.42 3.08V218l1.56-.08v-9.42h6.37v16.94H2.25v-4l-1.09-.63c.43-.69 1.37-.88 1-1.65L.7 220.38v6.21c0 2.08-.1 4.17 0 6.25s-.58 4.1.46 6a.47.47 0 0 1-.09.44c-.68.51-.38 1.22-.38 1.84v28.75a2.89 2.89 0 0 0 .15 1.43c.77 1.21.27 2.29-.21 3.33 1 1.11 1 1.11.82 2.28l-.62.13v2.81h1.3l.14-1.29H8.7v3.6s.31 2.4.4 3.55c.15 2.07.45 4.2-.33 6.31-.37 1-.06 2.26-.06 3.35H2.13V281.5l-1.47.75V365h1.62v-17h6.33v16.9a4.18 4.18 0 0 1-.67.1h3.77c-.06-14.79-.01-29.59-.01-44.38zm-9.46 9.3v-16.83H8l.08.09a.44.44 0 0 1 .08.22v16.52zM1.39 40l.75.67v-7.11h6.45v16.89H2.28V42c-.36-.82-1.5-1-.89-2zm.68 24.5h-.25v-1h.25zm.17 202.55l-.1-.1a.79.79 0 0 1-.24.5l-.16-.16.41-.35.1.1a.79.79 0 0 1 .24-.5l.16.16zm6.38-6.57H2.27v-17h6.35zm-6.39-70.07v-16.82h6.31l.08.09a.44.44 0 0 1 .08.22v16.52zm0-34.91v-17h5.89v16.89l-2.81.06zm6.39-35.05H2.27v-16.89l2.82-.06H8.2c0 3.06.14 6 0 9-.2 2.63.7 5.15.46 7.95zm.45-42.24c-.63 2.38-.13 4.71-.53 7.25H2.28V68.55H8.7a19.27 19.27 0 0 1 0 2.41c-.33 2.47 1.03 4.9.41 7.25zM15.2 0v74.23c0 1.17-.55 2.48.46 3.55a.48.48 0 0 1 0 .47c-.91.82-.44 1.88-.45 2.81 0 6.83 0 13.66-.06 20.49 0 2.09.62 4.27-.45 6.3a.49.49 0 0 0 .07.45c.77.68.4 1.56.4 2.33v254.35h1.5V0z"/></g></svg>
