<svg xmlns="http://www.w3.org/2000/svg" width="322.54" height="293.398" viewBox="0 0 322.54 293.398"><path d="M65.516 281.415c0-1.984 0-2.363-.026-2.795-.026-.393-.092-.756-.59-.81-.105-.015-.236-.015-.485-.042-.197-.014-.25-.08-.25-.148 0-.08.08-.12.302-.12.328 0 1.534.04 2.11.04.433 0 1.022-.014 2.124-.027 2.242.014 4 .31 5.19 1.566.67.687 1.26 1.82 1.26 3.43 0 1.634-.696 2.97-1.443 3.7-.642.674-1.848 1.605-4.483 1.605-.524 0-.97-.013-1.402-.053-.51-.055-1.048-.096-1.297-.096-.315 0-.63 0-.997.014s-.537.027-.904.027c-.223 0-.262-.067-.262-.135 0-.095.105-.135.25-.135.17-.014.26-.027.406-.055.262-.04.393-.297.432-.824.04-.647.066-1.606.066-2.768v-2.375zm2.32 1.513c0 1.43.013 2.363.026 2.62.026.553.08.823.223.972.236.298.773.486 1.35.486.917 0 1.69-.202 2.385-.945.682-.7.852-1.903.852-3.172 0-1.23-.433-2.323-.983-3.094-.905-1.215-2.15-1.47-3.016-1.47-.29 0-.59.04-.708.106-.104.055-.118.12-.118.243.013.46-.013 1.432-.013 2.525v1.73zM82.55 281.415c0-2.2-.013-2.47-.04-2.903-.026-.392-.144-.62-.472-.702-.118-.027-.302-.027-.433-.04-.17-.015-.236-.067-.236-.15 0-.08.078-.12.287-.12.747 0 1.376.04 1.953.04l3.696-.013c.262 0 .577-.027.708-.055.092-.027.158-.054.21-.054.065 0 .08.054.08.122 0 .066-.027.202-.066.594-.04.27-.065.742-.105 1.445 0 .106-.052.187-.13.187-.067 0-.12-.067-.132-.188 0-.15-.012-.285-.064-.474-.065-.31-.236-.486-.865-.54-.432-.04-1.572-.068-1.965-.068-.08 0-.105.04-.105.136v2.97c0 .095.013.163.105.163.367.014 1.43 0 1.9-.014.642-.027.812-.068.957-.31.08-.122.118-.177.183-.177.08 0 .08.08.08.162 0 .135-.067.62-.106 1.148-.014.31-.014.972-.014 1.12 0 .176-.04.257-.118.257-.092 0-.118-.095-.144-.217l-.04-.31c-.052-.392-.235-.622-.877-.662-.367-.027-1.442-.054-1.848-.054-.066 0-.08.066-.08.176v.932c0 .46-.013 1.256 0 1.77.013.944.197 1.16 1.65 1.16.342 0 .853-.014 1.22-.162s.524-.445.642-1.066c.026-.162.08-.243.157-.243.104 0 .117.135.117.297 0 .526-.144 1.554-.21 1.81-.092.352-.184.365-.668.365-1.81 0-2.793-.083-4.17-.083-.615 0-1.166.04-1.887.04-.236 0-.314-.04-.314-.134 0-.068.064-.135.26-.135.158-.014.29-.027.394-.055.367-.054.42-.566.446-1.418.026-.54.04-1.337.04-2.174v-2.375zM95.337 278.863c-.367-.837-.51-.958-.957-1.053-.105-.027-.223-.04-.3-.04-.146-.027-.21-.08-.21-.15 0-.093.104-.12.274-.12.708 0 1.468.04 1.992.04.46 0 1.167-.04 2.19-.04.196 0 .3.054.3.135s-.08.135-.196.135c-.157.014-.236.014-.354.04-.34.056-.393.204-.393.34 0 .175.08.444.3 1.024.617 1.648 1.443 3.66 2.033 5.24.538-1.242 1.9-4.55 2.333-5.82.064-.148.104-.324.104-.445 0-.177-.08-.272-.314-.312-.158-.04-.38-.055-.524-.068-.17-.014-.236-.054-.236-.135s.065-.135.288-.135c.865 0 1.507.04 1.704.04s1.048-.04 1.455-.04c.196 0 .288.04.288.135s-.065.135-.236.135c-.158.014-.368.014-.578.122-.275.135-.46.42-.826 1.216-.524 1.16-.996 2.255-1.744 3.97-.84 1.917-1.402 3.146-1.743 3.85-.38.796-.512.972-.683.972-.183 0-.288-.19-.537-.81l-3.433-8.227zM111.217 281.415c0-2.2-.013-2.47-.04-2.903-.026-.392-.144-.62-.472-.702-.118-.027-.302-.027-.433-.04-.17-.015-.236-.067-.236-.15 0-.08.08-.12.288-.12.747 0 1.376.04 1.953.04l3.696-.013c.262 0 .577-.027.708-.055.093-.027.16-.054.21-.054.066 0 .08.054.08.122 0 .066-.026.202-.065.594-.04.27-.065.742-.105 1.445 0 .106-.052.187-.13.187-.067 0-.12-.067-.132-.188 0-.15-.013-.285-.065-.474-.065-.31-.236-.486-.865-.54-.433-.04-1.573-.068-1.966-.068-.08 0-.105.04-.105.136v2.97c0 .095.013.163.105.163.367.014 1.43 0 1.9-.014.642-.027.812-.068.957-.31.078-.122.117-.177.182-.177.08 0 .08.08.08.162 0 .135-.067.62-.106 1.148-.013.31-.013.972-.013 1.12 0 .176-.04.257-.118.257-.092 0-.118-.095-.144-.217-.012-.107-.025-.202-.038-.31-.053-.392-.236-.622-.878-.662-.367-.027-1.442-.054-1.848-.054-.065 0-.08.066-.08.176v.932c0 .46-.012 1.256 0 1.77.014.944.198 1.16 1.652 1.16.34 0 .852-.014 1.22-.162.366-.148.523-.445.64-1.066.027-.162.08-.243.158-.243.105 0 .118.135.118.297 0 .526-.144 1.554-.21 1.81-.092.352-.183.365-.668.365-1.81 0-2.792-.083-4.168-.083-.616 0-1.167.04-1.888.04-.236 0-.314-.04-.314-.134 0-.068.065-.135.262-.135.157-.014.29-.027.393-.055.368-.054.42-.566.447-1.418.026-.54.04-1.337.04-2.174v-2.375zM126.98 283.806c0 1.363-.04 2.336.184 2.62.184.256.433.323 1.52.323.722 0 1.14-.015 1.508-.217.314-.148.537-.5.682-1.134.04-.15.065-.26.17-.26.09 0 .104.07.104.26 0 .31-.144 1.592-.275 1.983-.105.352-.21.365-.734.365-1.81 0-3.03-.082-4.418-.082-.616 0-1.324.04-2.045.04-.183 0-.288-.026-.288-.147 0-.082.078-.122.26-.122.158-.014.302-.027.446-.055.472-.08.485-.324.524-1.404.026-.54.04-1.352.04-2.19v-2.376c0-2.2-.013-2.444-.04-2.877-.026-.377-.118-.607-.446-.7-.118-.042-.314-.056-.51-.07-.145 0-.276-.025-.276-.134 0-.107.13-.135.393-.135.748 0 1.43.04 1.94.04.12 0 1.744-.04 2.216-.04.236 0 .314.04.314.12 0 .123-.13.15-.314.15-.13.013-.262.013-.446.054-.354.067-.446.324-.472.797-.026.43-.04.7-.04 2.93v2.256zM136.884 282.644c0-2.7 1.756-5.334 5.61-5.334 3.33 0 5.413 2.296 5.413 5.037 0 3.146-2.07 5.55-5.505 5.55-3.867 0-5.518-2.863-5.518-5.253zm8.4.297c0-2.24-.903-4.792-3.223-4.792-1.205 0-2.555.688-2.555 3.89 0 2.552 1.036 4.995 3.29 4.995.813 0 2.49-.365 2.49-4.092zM155.306 281.415c0-1.485 0-2.47-.04-2.903-.026-.378-.144-.62-.458-.688-.17-.04-.34-.04-.5-.055-.17 0-.235-.055-.235-.136s.04-.135.29-.135c.562 0 1.9.04 2.123.04.63 0 1.363-.04 1.966-.04 1.783 0 2.648.43 3.172.93.288.284.707.88.707 1.797 0 2.08-1.847 3.2-3.656 3.2-.09 0-.314-.014-.406-.04-.08-.026-.144-.054-.144-.136 0-.08.052-.134.29-.134 1.087 0 1.61-.877 1.61-2.093 0-.932-.17-1.675-.64-2.2-.342-.38-.788-.555-1.246-.555-.17 0-.275.014-.354.027-.105.027-.157.107-.157.338v5.158c0 1.054 0 2.283.065 2.85.026.392.118.65.51.73.185.04.42.055.578.068.197 0 .25.04.25.148 0 .066-.066.12-.263.12-.904 0-2.293-.04-2.412-.04-.065 0-1.494.04-1.94.04-.184 0-.262-.04-.262-.134 0-.095.105-.135.25-.135.13-.014.26-.027.393-.055.262-.054.38-.243.433-.756.05-.567.078-1.526.078-2.836v-2.375zM169.495 281.415c0-2.2-.013-2.47-.04-2.903-.025-.392-.144-.62-.47-.702-.12-.027-.303-.027-.434-.04-.17-.015-.235-.067-.235-.15 0-.08.08-.12.29-.12.745 0 1.375.04 1.952.04l3.695-.013c.263 0 .577-.027.708-.055.092-.027.157-.054.21-.054.065 0 .078.054.078.122 0 .066-.025.202-.064.594-.04.27-.066.742-.105 1.445 0 .106-.054.187-.132.187-.066 0-.118-.067-.13-.188 0-.15-.015-.285-.067-.474-.063-.31-.234-.486-.864-.54-.432-.04-1.572-.068-1.965-.068-.078 0-.104.04-.104.136v2.97c0 .095.014.163.105.163.367.014 1.43 0 1.9-.014.643-.027.813-.068.958-.31.078-.122.117-.177.183-.177.08 0 .08.08.08.162 0 .135-.066.62-.105 1.148-.013.31-.013.972-.013 1.12 0 .176-.04.257-.118.257-.092 0-.117-.095-.145-.217l-.04-.31c-.053-.392-.236-.622-.878-.662-.367-.027-1.442-.054-1.85-.054-.063 0-.077.066-.077.176v.932c0 .46-.014 1.256 0 1.77.014.944.197 1.16 1.65 1.16.342 0 .854-.014 1.22-.162.367-.148.524-.445.643-1.066.026-.162.08-.243.157-.243.105 0 .118.135.118.297 0 .526-.144 1.554-.21 1.81-.092.352-.184.365-.668.365-1.81 0-2.792-.083-4.168-.083-.617 0-1.167.04-1.89.04-.234 0-.313-.04-.313-.134 0-.068.066-.135.263-.135.157-.014.288-.027.394-.055.368-.054.42-.566.446-1.418.026-.54.04-1.337.04-2.174v-2.375zM182.94 281.415c0-2.094-.027-2.363-.04-2.795-.027-.555-.184-.73-.498-.797-.197-.04-.406-.04-.525-.055-.156-.014-.235-.066-.235-.148 0-.08.092-.12.288-.12.564 0 1.822.04 2.006.04.25 0 1.508-.04 2.11-.04 1.23 0 2.097.12 2.674.458.63.352 1.192 1.04 1.192 2.066 0 1.135-.63 1.998-1.756 2.714.8 1.188 1.756 2.634 2.556 3.58.694.796 1.01 1.024 1.376 1.08.145.026.223.026.328.04.145 0 .223.053.223.135 0 .12-.132.135-.263.135h-1.18c-1.35 0-1.928-.135-2.386-.445-.418-.257-.838-.838-1.35-1.688-.603-1.026-.904-1.58-1.14-1.944-.026-.04-.093-.08-.157-.08h-.865c-.066 0-.105.026-.105.108v.688c0 1.066 0 1.7.066 2.27.024.35.116.647.51.74.184.056.327.056.59.083.21.012.235.065.235.147 0 .08-.092.12-.275.12-.877 0-2.307-.04-2.398-.04-.156 0-1.428.04-1.874.04-.196 0-.263-.04-.263-.134 0-.095.092-.135.236-.135.132-.014.303-.027.446-.055.263-.067.367-.31.406-.77.053-.567.066-1.513.066-2.822v-2.375zm2.253.905c0 .108.04.162.118.203.25.135.644.176 1.01.176.354 0 .617-.056.826-.218.275-.216.512-.797.512-1.7 0-1.92-1.18-2.418-1.86-2.418-.21 0-.434.014-.525.054-.053.027-.08.04-.08.148v3.754zM206.916 281.415c0-1.984 0-2.363-.026-2.795-.026-.393-.092-.756-.59-.81-.105-.015-.236-.015-.484-.042-.197-.014-.25-.08-.25-.148 0-.08.08-.12.302-.12.327 0 1.534.04 2.11.04.433 0 1.022-.014 2.123-.027 2.243.014 4 .31 5.192 1.566.668.687 1.258 1.82 1.258 3.43 0 1.634-.695 2.97-1.44 3.7-.644.674-1.85 1.605-4.484 1.605-.524 0-.97-.013-1.402-.053-.51-.055-1.048-.096-1.298-.096-.314 0-.63 0-.996.014s-.537.027-.904.027c-.223 0-.262-.067-.262-.135 0-.095.104-.135.248-.135.17-.014.263-.027.407-.055.26-.04.393-.297.432-.824.04-.647.065-1.606.065-2.768v-2.375zm2.32 1.513c0 1.43.014 2.363.027 2.62.025.553.078.823.223.972.235.298.773.486 1.35.486.918 0 1.69-.202 2.385-.945.683-.7.854-1.903.854-3.172 0-1.23-.433-2.323-.983-3.094-.903-1.215-2.147-1.47-3.013-1.47-.29 0-.59.04-.71.106-.103.055-.116.12-.116.243.015.46-.013 1.432-.013 2.525v1.73zM224.76 284.913c-.063 0-.09.026-.116.094l-.406 1.107c-.13.352-.21.703-.21.865 0 .255.118.376.394.403.145.027.354.04.46.055.194 0 .234.066.234.135 0 .107-.104.135-.275.135-.59 0-1.034-.04-1.728-.04-.145 0-1.01.04-1.665.04-.184 0-.263-.055-.263-.135 0-.108.092-.135.25-.135.156-.014.287-.027.42-.055.457-.094.72-.514.995-1.16l3.498-8.158c.25-.58.395-.783.538-.783.13 0 .25.19.472.676.34.756 2.543 5.928 3.434 7.98.446 1.054.734 1.378 1.193 1.445.145.04.302.04.42.055.17 0 .248.053.248.135 0 .094-.092.135-.34.135-1.285 0-2.78-.027-3.618-.04-.21 0-.288-.04-.288-.122s.065-.135.184-.162c.146-.027.197-.12.158-.243l-.878-2.146c-.014-.054-.066-.08-.105-.08h-3.004zm2.623-1.08c.08 0 .08-.04.065-.068l-1.153-2.89c-.04-.095-.065-.067-.092 0l-1.114 2.89c-.015.04.013.068.052.068h2.24zM239.24 284.21c0-.73-.146-1-.368-1.444-.484-.92-1.782-3.146-2.23-3.835-.497-.782-.64-.958-1.06-1.093-.08-.027-.236-.055-.342-.068-.13-.015-.196-.067-.196-.15 0-.093.104-.12.263-.12.537 0 1.52.04 2.018.04.224 0 1.05-.04 1.875-.04.145 0 .25.027.25.107 0 .108-.066.136-.264.176-.354.04-.406.176-.406.283 0 .096.04.217.13.393.212.39 1.85 3.388 2.06 3.794.8-1.554 1.508-2.904 1.756-3.444.13-.283.21-.513.21-.688 0-.148-.08-.27-.472-.338-.118-.027-.223-.067-.223-.162 0-.08.08-.12.29-.12.537 0 .982.04 1.48.04.184 0 1.258-.04 1.508-.04.156 0 .262.026.262.12 0 .108-.092.148-.262.148-.17.014-.354.055-.512.108-.367.148-.498.378-.734.688-.445.567-2.32 3.876-2.504 4.443-.195.565-.21 1.093-.21 1.282v.96c0 .214 0 .77.04 1.335.026.338.053.676.537.77.236.055.498.055.72.082.16.012.212.052.212.147 0 .066-.066.12-.263.12-.944 0-2.032-.04-2.464-.04-.38 0-1.442.04-2.03.04-.185 0-.264-.054-.264-.147 0-.068.08-.12.235-.12.21-.028.343-.028.46-.07.34-.093.42-.337.445-.728.04-.567.053-1.176.053-1.39v-1.042zM251.07 287.52c-.223-.095-.287-.27-.287-.54 0-1.095.04-1.607.078-1.986.026-.242.08-.324.158-.324.092 0 .104.122.118.23.013.135.025.256.065.418.224 1.107 1.207 1.742 2.23 1.742 1.245 0 1.625-.662 1.625-1.242 0-.566-.104-1.04-1.22-1.823l-.812-.58c-1.6-1.16-2.045-2.106-2.045-3.296 0-1.554 1.246-2.81 3.343-2.81.564 0 .958.027 1.508.135.21.04.434.096.643.162.132.04.172.082.172.19-.026.43-.053.7-.053 1.903 0 .243-.04.338-.145.338-.066 0-.12-.04-.145-.257-.014-.135-.053-.472-.236-.782-.248-.433-.852-.892-1.795-.892-1.076 0-1.47.62-1.47 1.242 0 .46.158.986 1.05 1.607l.667.46c1.836 1.255 2.412 2.093 2.412 3.456 0 .933-.407 1.85-1.39 2.445-.76.473-1.6.58-2.28.58-.983.003-1.68-.132-2.19-.376zM141.64 230.556c2.27.726 3.917 1.773 4.938 3.142l-5.78 3.484c-.053-.85-.78-1.607-2.184-2.27l-3.714 2.208v12.91c0 .644.14 1.256.422 1.836.23.456.548.87.957 1.244.46.456.918.79 1.377.996l-5.705 3.422-.04-.03h-.037l-.076-.032-.193-.093-.268-.125c-.23-.124-.448-.25-.652-.373-.256-.166-.51-.342-.766-.53-.588-.455-1.047-.963-1.38-1.524-.433-.683-.65-1.42-.65-2.208v-14.528c0-1.182-.46-2.198-1.378-3.05-.46-.434-.92-.756-1.378-.963l5.667-3.42h.038l.116.06.153.063.23.093c.177.104.368.208.573.31.23.146.447.292.65.436.537.373.983.79 1.34 1.244.46.56.753 1.162.882 1.804l6.854-4.104zM170.164 250c0 .643.14 1.244.42 1.804.23.457.55.87.958 1.244.46.435.92.757 1.378.964l-5.666 3.422h-.04l-.114-.062-.153-.062-.23-.093-.535-.31-.69-.436c-.535-.372-.982-.787-1.34-1.243-.434-.58-.727-1.192-.88-1.835l-6.854 4.137c-2.22-.706-3.855-1.732-4.9-3.08-.818-1.08-1.226-2.313-1.226-3.703v-13.315c0-.497-.14-.974-.42-1.43-.23-.395-.55-.758-.96-1.09-.458-.393-.918-.705-1.377-.933l5.667-3.423c.817.373 1.53.913 2.144 1.618.484.56.893 1.213 1.225 1.96.383.85.626 1.628.728 2.333v14.373c0 .872.728 1.65 2.183 2.334l3.715-2.21v-12.972c0-.643-.154-1.244-.46-1.804-.23-.456-.536-.87-.92-1.244-.484-.435-.956-.757-1.416-.964l5.704-3.422h.038l.04.03.075.032.192.093.267.124c.23.124.446.25.65.373.28.166.536.332.766.498.586.478 1.058.996 1.417 1.556.433.684.65 1.42.65 2.21.002.89-.01 5.732-.036 14.526zM183.642 258.455c0 .643.14 1.244.422 1.804.23.455.548.87.957 1.243.46.435.92.757 1.38.964l-5.706 3.422-.04-.032h-.037l-.076-.03-.19-.094-.27-.124c-.23-.124-.446-.25-.65-.373-.256-.166-.497-.342-.728-.53-.613-.455-1.085-.963-1.417-1.523-.434-.685-.65-1.42-.65-2.21v-22.983c0-.642-.14-1.254-.42-1.835-.23-.435-.55-.85-.96-1.244-.458-.413-.918-.725-1.377-.932l5.667-3.422h.038l.115.062.153.062.23.093c.205.104.397.208.575.31.23.146.447.292.65.436.562.393 1.022.82 1.38 1.274.433.56.727 1.172.88 1.836l6.74-4.075c3.445 1.1 5.45 2.914 6.01 5.444l.038 15.305-10.223 6.253c-.41-.54-1.238-1.1-2.49-1.68v2.577zm0-21.366v14.9c.79-.25 1.57-.373 2.336-.373 1.2 0 2.36.31 3.484.933v-15.275c0-.892-.727-1.69-2.182-2.396l-3.638 2.21zM221.012 250.653c0 .498.153.975.46 1.43.23.374.536.738.92 1.09.484.394.956.705 1.416.933l-5.705 3.422c-.945-.435-1.75-1.1-2.412-1.99-.484-.665-.893-1.432-1.224-2.303l-7.12 4.293c-3.447-1.1-5.438-2.914-5.974-5.444h-.038c-.103-.414-.167-.89-.192-1.43h.04v-10.64c0-1.1.713-2.27 2.143-3.515 1.123-.997 2.693-2.002 4.71-3.02 2.297-1.18 4.582-2.156 6.853-2.923 2.246.705 3.88 1.732 4.9 3.08.818 1.08 1.226 2.313 1.226 3.702v13.313zm-6.93-13.377c0-.892-.74-1.68-2.22-2.365-2.452 1.474-3.677 3.05-3.677 4.73v11.168c0 .892.74 1.68 2.22 2.365l3.64-2.178.036-13.72zM226.755 227.072c0-.664-.14-1.275-.42-1.835-.23-.435-.55-.85-.96-1.244-.458-.415-.918-.726-1.377-.933l5.705-3.422h.04l.037.03.077.032.19.093.27.124c.23.104.446.228.65.373.255.145.497.31.728.498.613.477 1.085.985 1.417 1.524.433.705.65 1.452.65 2.24v25.603c0 1.763.906 3.08 2.72 3.95l-5.668 3.423-.04-.03h-.037c-2.656-1.62-3.982-3.66-3.982-6.13v-24.296zM160.833 226.15c0 .012.002.023.003.034l.04.03c-.003-.018-.003-.04-.006-.06l-.037-.003zM190.135 202.195c-3.934 1.522-7.023 3.875-7.778 8.55-1.357-1.337-1.07-3.858-.532-5.043.537-1.185 1.742-3.302 3.318-4.26 2.08-1.267 8.302-1.623 8.905-1.568.44.04.866.25 1.3.385-.15.43-.244.89-.462 1.282-.178.32-1.713 1.315-2 1.558-1.756 1.484-2.593 1.94-3.63 4.062-.302.62-.9 1.276-1.658 1.68-.67-1.418.07-3.742 1.053-4.44.708-.503 1.274-1.206 1.902-1.82-.138-.13-.278-.258-.417-.387zM230.1 207.41c-1.715-.175-2.17-.633-1.61-1.98.896-2.147 1.3-4.346 1.28-6.644-.008-.966-.894-2.004.472-2.995 1.35 1.703 2.86 3.187 2.834 5.748-.026 2.546-2.394 3.663-2.977 5.873zM257.015 157.428l-9.747 9.83-9.028-3.93 6.973 10.192M260 138.784l-11.173 11.335-7.6-5.436 6.973 10.192M286.517 108.905l-11.132 11.038-7.643-5.137 6.974 10.192M118.204 227.71c-1.572-1.602-3.493-2.89-5.763-3.86-2.27-.972-4.836-1.457-7.7-1.457-2.236 0-4.367.206-6.392.618-2.026.413-4.052.913-6.077 1.502-.593.176-1.223.346-1.885.508-.664.162-1.293.243-1.886.243-1.05 0-1.975-.25-2.778-.75-.175-.117-.332-.31-.47-.574-.14-.266-.272-.537-.394-.817-.122-.28-.228-.365-.314-.57-.088-.207-.167-.153-.236-.153h-.157c-.14 0-.235-.04-.287.196-.052.236-.078.334-.078.45 0 1.325.288 2.42.864 3.36.575.942 1.352 1.7 2.33 2.32.977.618 2.122 1.057 3.432 1.336 1.31.28 2.68.414 4.113.414 1.117 0 2.2-.076 3.248-.223 1.048-.147 2.096-.222 3.144-.222.348 0 .524.074.524.22-1.432 1.09-2.723 2.295-3.876 3.62-1.153 1.324-1.73 2.868-1.73 4.634 0 .882.22 1.685.655 2.405.436.72.916 1.426 1.44 2.117.524.692 1.004 1.39 1.44 2.096.436.706.655 1.486.655 2.34 0 .44-.035.808-.105 1.102-.07.294-.245.545-.524.75-.28.206-.7.353-1.257.44-.56.09-1.328.133-2.306.133-1.362.118-2.68.42-3.955.905-1.277.486-2.394 1.11-3.354 1.876-.96.764-1.73 1.647-2.306 2.647-.576 1-.864 2.09-.864 3.266 0 0 1.318-2.7 2.7-3.42 1.378-.72 3.045-1.08 5.002-1.08 2.235 0 4.087.28 5.553.838 1.468.56 2.935 1.53 4.402 2.914.21.148.375.173.498.393.122.22.358.173.707.173h.367c1.257-1 2.76-2.402 4.506-3.284 1.746-.883 3.527-1.686 5.344-2.57 2.654-1.294 4.758-3.05 6.313-5.344 1.554-2.295 2.33-4.747 2.33-7.395 0-2.265-.418-4.44-1.256-6.544-.84-2.105-2.044-3.948-3.616-5.552zm-8.914 23.15c0 .087-.5.538-.778.538h-.262c-1.502-1-2.7-.74-3.59-.93-.89-.192-1.71-.485-2.46-.677-.753-.19-1.128-.365-1.128-.425 0-.265.122-.518.367-.71.243-.19.47-.417.68-.653.908-.823 1.763-1.72 2.567-2.676.804-.956 1.205-2.055 1.205-3.29 0-.942-.183-1.812-.55-2.606-.367-.794-.77-1.567-1.205-2.318-.437-.75-.884-1.5-1.25-2.25-.367-.75-.597-1.553-.597-2.407v-1.103c0-.618.692-1.03 1.147-1.236.453-.206 1.105-.31 1.91-.31.104 0 .36.023.744.067.385.044.793.11 1.212.2.42.087.976.198 1.308.33.33.132.68.302.68.508v19.95zm6.12-5.694c-.07.97-.122 1.905-.384 2.802-.262.898-.6 1.535-1.123 2.358-.524.824-1.184 2.072-2.092 2.072h-.26c-.21 0-.317.077-.788-.218-.47-.294-.473-.365-.473-.66v-19.86c0-.116-.182-.182-.078-.198.105-.014.074-.022.144-.022.838 0 1.53.375 2.195 1.126.664.75 1.202 1.59 1.674 2.516.47.927.598 1.795.86 2.604.26.81.204 1.273.204 1.39v3.09c.002 1.03.193 2.028.123 3z"/><path d="M320.655 229.898c-.45-.187-.597-.255-6.108-.255-4.425 0-10.955.05-17.46.104-6.457.05-5.312-.1-9.64-.1-.126 0-.157.492-.157 1.36v-18.07c0-1.763-.17-4.716-2.912-4.716-.25 0-.618.03-.856.077-.665.06-31.448.09-48.64.093 1.095-1.42 1.684-2.765 2.198-3.86.854-1.82 1.56-6.576 1.276-8.813-.47-3.71-2.07-5.474-5.192-7.93-2.057-1.62-5.688-2.427-8.632-1.652-2.944.775-11.08 5.974-13.03 9.29.534-2.453 2.775-8.07 3.413-10.355.547-1.963.927-9.518.98-10.423.19-3.093.133-5.967-.328-9.415-.222-1.66-1.682-7.943-2.258-9.54-1.918-5.32-4.942-12.448-5.707-14.613-.133-.377 3.925-6.164 4.204-6.304.662-.332-.447-5.04-.394-5.767.086-1.162 1.953-1.87 2.35-2.97.316-1.934 1.507-10.488.938-10.276-.426.16-.998-.52-.462-.85 1.172-.72 2.198-1.54 2.503-2.684.095-.35 1.14-8.01 1.2-8.362.11-.662-.77-.655-.817-1.318-.08-1.17 1.82-1.035 1.65-2.366.97-5.365 1.547-8.107 2.096-10.173.28-1.053 7.227 4.375 7.848 4.987 1.166 1.15 2.27 2.364 3.354 3.594 3.074 3.046 4.03 6.183 4.707 9.428.676 3.245 1.43 8.45.82 10.66-1.04 3.306-2.65 2.714-2.563 3.744.113 1.335-.392 1.602.43 1.332 1.362-.448 3.52-2.76 4.292-3.805 1.57-2.13 17.532-27.948 22.126-39.875 6.085-15.796 6.27-34.837 7.077-36.79.7-1.695 1.59-4.32-.1-4.976-.96-.374-40.318-4.896-40.78-5.395.227-.825 8.325-16.983 8.926-19.063.22-.76-.014-1.82-.42-2.52-.204-.35-1.413-.477-1.9-.212-.6.327-.963 1.142-1.35 1.793-.177.3-10.308 19.32-10.308 19.32-3.66.193-29.512-3.346-31.288-3.522-.033-.95-1.065-9.404-1.934-10.11-.454-.368-2.776-.566-3.41-.317-1.49.583-.705 2.5-.656 3.905.052 1.53.38 4.035.578 5.56.146 1.123-19.69-1.307-22.383-1.91-1.825-.41-1.255-.146-1.286-1.892-.05-2.772.296-3.122-1.484-4.418-.242-.177-4.865-.564-7.732-1.076-1.573-.28-18.7-1.93-18.93-1.97-1.58-.287-5.594-.635-8.304-1.117-2.597.065-3.876-.584-3.876-.584-.856-2.47-4.344-13.694-5.103-14.106-1.743-.947-3.524-1.146-4.356 1.097-.413 1.11 3.338 10.676 3.935 12.4-2.274.214-13.066-.95-14.15-1.108-.8-.116-1.628-.027-2.435-.108-1.47-.147-17.59-1.612-18.39-1.18-.427.23-.094 4.027-.275 4.48-.466 1.172-4.185 32.948-4.2 34.884-.003.234.294.374.393.585.56 1.2.903 1.152 1.836.287 1.647-1.525 5.556-7.69 12.06-12.227 11.103-7.742 28.34-8.18 30.53-8.326.358-.024 2.515 6.345 3.305 8.173-1.45.86-3.67 2.544-4.976 3.887-2.04 2.098-1.694 4.934-.193 7 .58.795 4.755 8.16 5.23 8.963.692 1.162 1.536 2.77 2.368 3.547-2.93.102-54.61 4.31-55.54 4.204-1.222-.14-2.45-.354-3.673-.33-1.165.02-2.348.534-3.48.416-1.235-.13-3.862-.29-3.862-.29-.23.477-.503 2.76.038 5.194.043.19.4.223.448.417.58.052 3.356.244 3.424 1.612.015.314 1.055 3.597 1.172 3.904.736 1.91 1.733 3.766 2.157 5.743.714 3.318 12.002 40.628 15.465 48.876 3.115 7.42 11.058 16.166 13.005 19.92-11.556 5.704-15.016 22.956-14.686 28.447-5.363.158-7.823-.317-14.293 5.323-7.072 6.17-8.243 16.495-8.21 21.71-16.113-.058-19.504-.283-19.965-.24-3.823.367-3.81 3.225-4.51 5.427-.142.443-.288.9-.462 1.36-.558 1.472-.796 7.074-.74 14.93-3.915.01-3.19.15-9.46.1-6.505-.052-13.034-.104-17.46-.104-5.51 0-5.658.068-6.108.255-1.222.29-1.203 1.027-1.144 3.212l.007.242c.042 1.61 9.15 26.434 10.383 29.083-2.355 6.964-5.25 13.253-7.376 17.875-2.085 4.53-3.007 6.58-3.007 7.73 0 1.91.06 3.132.195 3.85.228 1.24.893 1.51 1.542 1.51h.017l.726.006c3.705.027 16.577-.63 28.397-.63 11.898 0 21.443.212 21.8 0 1.422-.838 1.08-3.024 1.08-3.068l-4.29-17.165-1.59-.474c25.156.03 120.025.095 175.103.095 29.214 0 43.74-.06 51.016-.097l-1.694.492-4.29 17.158c0 .044-.342 2.227 1.08 3.066.357.212 9.903-.002 21.8-.002 11.82 0 24.692.656 28.397.63l.725-.01h.017c.65 0 1.314-.27 1.542-1.507.133-.72.194-1.942.194-3.852 0-1.148-.922-3.2-3.007-7.73-2.125-4.62-5.02-10.91-7.376-17.874 1.233-2.65 10.342-27.474 10.384-29.084l.006-.242c.057-2.19.076-2.927-1.145-3.216zm-109.517-49.103c-.977-.36-4.893-1.574-5.297-2.137.332-1.66.332-8.672.04-11.107.452.124 5.574 2.037 5.872 2.118.076 2.187-.224 8.498-.614 11.127zm-.487 3.02c-.13 1.735-.646 5.22-1.887 6.86-1.033.053-2.907.09-4.077.125.424-2.905.36-5.703.804-8.74 2.63.78 5.16 1.754 5.16 1.754zm-2.404-33.43c2.63 5.843 3.324 13.737 3.477 15.12l-6.107-2.266c.144-.64-1.07-10.943-1.197-12.15 1.203-.04 2.56-.66 3.826-.705zm-1.027-25.86c-.457 1.67-3.44 2.59-5.208 3.234-2.926 1.06-53.225 24.27-54.713 24.94-1.725.772-3.386 1.64-5.375 2.366.296-.4.482-.936.906-1.18 3.67-2.1 63.784-34.262 65.7-35.31.002 0-.97 4.7-1.31 5.95zm-8.818 21.818c.144.83 2.745 17.194 2.803 25.785.063 9.426-1.634 21.12-1.634 21.12l-1.19-.28c.585-3.31.488-6.81.488-13.925 0-8.083-.876-11.59-3.31-29.118-.67-4.365-2.743-11.593-2.52-11.468 1.51-.822 10.472-6.08 10.625-6.58.537 1.505.34 2.544-.893 3.693-1.918 1.785-4.315 4.15-4.633 6.904-.15 1.31 0 2.337.265 3.87zm-89.677 27.816c-.505-.903 1.76-2.283 2.275-2.758 1.172-1.082 2.396-2.11 3.663-3.213 1.424 1.186 1.844 2.71 1.823 4.457-.02 1.556-.05 3.123.115 4.665.14 1.302.5 2.59.872 3.852.165.564.61 1.044.9 1.576.2.37.535.78.5 1.144-.12 1.338.482 1.973 1.818 2.162-2.397 1.557-4.855 2.623-7.683 2.663-.86.01-1.15-.324-1.32-1.126-.577-2.747-1.38-5.454-1.81-8.22-.216-1.393-1.638-2.372-.668-3.778.31-.456-.247-1-.485-1.427zm33.268-13.627c1.07-.695 13.736-5.527 44.312-17.33-1.694 2.845-7.345 6.99-11.994 11.103s-14.726 12.254-34.538 23.336c.168-1.346.65-4.414.85-5.338.277-1.286.502-6.668.85-7.938.25-3.364-.49-3.178.52-3.833zm2.562 19.36c11.265-6.08 35.71-18.513 47.622-34.182 1.043 5.578 2.698 18.725 2.698 18.725-1.976 4.116-20.438 13.337-33.306 17.627-14.024 4.674-33.448 8.098-37.787 9.35-.072-.143.587-1.748.515-1.89.26-.306.462-.75.794-.894 2.004-.865 8.2-2.656 19.463-8.735zm-7.9-3.03l-10.907 4.674s-1.558-.78-3.895-4.674c-2.337-3.895-.39-8.57-.39-8.57l15.423-3.373-.23 11.943zm-14.43 16.69c3.895-.584 22.593-3.31 32.722-6.038 13.575-3.655 33.598-12.173 40.61-18.893.166 2.363.584 12.27.584 12.27-13.05 7.49-37.395 14.024-51.613 15.485-10.228 1.05-25.49 1.465-25.71.974.274-.01 3.408-3.797 3.408-3.797zm-5.6 5.38c2.544 1.16 22.166.177 23.852.23 6.407-.515 13.51-1.482 23.152-3.515 10.952-2.31 23.302-6.358 26.227-8.09 1.956-1.16 4.427-2.195 6.48-3.257.088.798.27 8.123 0 7.87-1.317-1.24-7.28-1.256-11.713-.117-2.496.642-8.287 4.16-10.205 6.052-.973.958-1.75 2.112-2.707 3.09-.26.266-.872.354-1.28.28-3.086-.555-8.45 4.69-9.326 6.224l-10.932 4.162c-1.41-1.497-5.697-2.41-8.473-1.753-3.276.775-22.796.533-28.802-8.108l3.726-3.07zm94.04-90.91c-.502 1.742-.432 3.215-.898 4.963-.19.71-64.33 36.356-65.022 36.792l-.267-.268c.6-.384 65.268-42.633 66.33-43.432.097.015.026 1.356-.144 1.945zm1.278-7.01c-.078.578-65.21 42.304-65.882 42.776l-.34-.15c.584-.414 67.543-51.645 67.3-50.482-.1.483-.887 6.432-1.077 7.854zm1.66-13.925c-.053.674-67.183 52.015-67.835 52.537l-.345-.19c.565-.458 8.25-7.026 8.796-7.494 1.045-.896 60.153-51.786 61.127-52.705.105-.004-1.617 6.197-1.745 7.853zm-32.64 18.033c1.304-3.464 2.822-8.63 5.144-10.765 3.26-3 10.064-6.508 16.838-8.092.106.153-1.38 1.3-1.273 1.453-6.543 6.22-13.273 12.22-20.708 17.405zm-13.356-74.104c1.34-1.094 14.412.874 42.655 4.528 21.065 2.726 53.524 7.15 53.465 7.304.228 5.664-2.662 21.458-6.27 34.63-.958 3.502-6.972 14.84-8.582 16.807.238-3.05 1.77-13.59 1.073-13.947-.37.67-3.984 15.775-4.47 16.987-.16-.03.485-12.858-.18-12.338-.9.11-1.57 16.44-1.966 16.808-.394-3.016-.727-11.338-1.61-13.053 0 0-1.547 16.678-1.71 16.745-2.865-11.73-7.478-14.6-18.116-21.73 0 0 .765-4.284 1.008-5.79.128-.797 1.25-2.366.604-3.34-.683-1.034-.687-.93-1.923-1.367-1.76-.62-1.834-.625-3.257.403-.556.402-2.033 1.507-2.55 1.974-2.84 2.578-5.696 5.138-8.552 7.7-.14.125-.324.2-.576.353-.986-.822-9.617 1.538-10.74 2.147-1.387.75-4.128 2.25-6.23 3.392.545-.596-4.094 3.947-4.504 3.26-.314-.528-3.745-13.81-3.89-14.297-.47.206-.358 13.59-.358 13.59s-3.708-20.25-4.113-20.743c-.173.04 1.777 20.734 1.52 20.965-.318-1.924-4.738-27.938-5.632-28.475-.178.095 2.814 27.083 2.41 25.92-.694-2.008-2.32-8.832-5.216-22.616-2.315-14.407-3.058-35.19-2.29-35.818zm-5.113-.292c3.672 44.545 6.068 44.808 12.44 65.946.81 1.415 2.15 6.97 2.37 8.91-.113.014-5.685.832-10.477 2.094l1.048-11.878-3.395 12.56-.35.114.347-17.323-3.574 13.5c1.103-14.11-.14-21.576-1.21-32.758-1.038-10.844-3.036-22.547-5.124-30.507-1.18-4.495-5.398-11.083-5.398-11.083.19-.015 13.134.44 13.322.424zm-21.566 32.383c.155-.747 1.7-.812 1.495-1.803 1.456-1.093 1.455-16.31 1.25-18.085-.313-2.708-1.567-3.745-3.88-4.77-1.596-.704-3.123-.715-4.676-.915-1.203-.155-2.465.163-4.01.298-.444-1.458-3.088-6.817-3.088-6.817 4.235-.584 14.846.83 17.674 2.337 1.952 2.97 5.306 11.62 6.583 19.203 1.516 9.007 3.177 21.74 2.857 21.613-.776-.308-14.432-9.976-14.206-11.063zm8.58 11.24c-.786.494-6.2-.722-8.348-.78 0 0-1.44-4.625-2.083-5.832 1.293.524 9.204 6.114 10.43 6.612zM117.5 28.24c-12.408 1.996-24.54 5.844-28.193 8.474-.2.398.145-3.652.145-3.652s-1.785 4.457-2.922 5.697c.344-.576 1.023-8.912 1.023-8.912s-5.47 12.776-5.697 12.71c.18-.887 2.87-26.325 3.797-26.15 1 .19 40.473 3.02 47.455 3.91.748.094 23.094 2.617 23.37 2.644 1.664.163.8 2.26.8 2.26-1.483.484-5.863.252-6.848.204-2.363-.114-4.54.362-5.352 1.18-.286.29.216 3.024.32 3.388-5.39-.4-19.387-3.122-27.9-1.753zm14.966 38.518c.47 1.36 1.375 4.293 1.953 5.97-3.52.395-11.06-.378-14.814-.855.594-.28 12.323-5.267 12.862-5.115zm-4.998-.19c-1.24.946-10.205 3.18-11.206 3.995-1.034.84-2.275.75-3.42.66-3.98-.308-7.95-.75-11.924-1.15-.706-.07-12.19-.74-14.02-1.28.022-.145 39.405-2.338 40.57-2.226zm-39.097 61.76c-1.992-4.825-12.32-38.405-15.194-45.63-1.422-3.57-2.39-6.527-2.292-9.224 2.505.105 10.635.602 11.85.71 5.16.464 18.46 2.047 19.955 2.37 1.516.326 46.974 7.4 48.37 7.55 1.406.15 4.03.61 5.547.793.167 1.292.94 7.108.67 12.204-.4 3.622-1.914 19.685-1.83 21.096.076 1.273.3.98 1.294.228 2.908-7.605 20.665-9.783 19.907-9.258-2.577 1.787-9.673 7.66-10.714 8.722-.81.827-27.808 23.376-28.573 24.377-.71 1.242-.4 15.23-.405 15.716-.017 2.242.584 1.17.292 2.923-4.6.95-8.577 3.486-12.653 3.108-.023-.137-2.826-.5-2.758-.916-.16-.573-4.39-10.697-4.39-10.697s-.78 6.74-1.43 7.33c-.14-.104-3.396-13.41-3.396-13.41l-.894 11.802-6.438-29.92s1.45 25.996 1.253 25.985c-.02-.59-8.405-35.998-8.405-35.998s5.537 31.41 4.83 33.495c-.204-.3-13.203-40.665-15.28-47.526 1.72 6.563 10.81 43.592 10.81 43.592s-6.413-10.426-10.127-19.42zm10.595 30.03c.857 2.336 1.91 5.06 2.717 7.364-3.31-.036-7.582.462-11.658 2.533-.57.29-1.068.625-1.537.98 1.23-3.225 4.056-7.864 10.478-10.878zm-26.205 29.92c6.853-4.58 12.527-2.062 12.527-2.062v-1.922c0-.1.237-9.867 7.476-13.546 3.716-1.89 7.263-2.213 9.787-2.076.088.325.2.623.25.882.217 1.105 1.292 5.235 1.203 6.357-.156 1.984-.63.026.793 2.128.818 1.21.526 7.91.947 9.22.114.358-.135 3.073-.148 3.445-.064 1.894-1.453 9.092 4.188 16.848.17.233.32.45.463.663-17.112-.016-32.68-.026-42.368-.026-.922 0-1.802 0-2.664-.002-.004-3.398.985-15.522 7.545-19.906zM32.775 289.4H3.72c-.056 0 .433-1.737.433-3.517 0-.704.833-3 2.17-5.91 2.125-4.632 4.052-4.57 6.396-11.62l3.374-7.52-2.336-2.327c-1.846-2.777-4.172-7.904-6.132-12.916l2.802-3.188h-4.08c-1.572-5-2.694-7.937-2.745-8.636l-.006-.318c-.012-.468 1.594-.1 1.594-.387.372-.027 1.49-.282 4.933-.282 4.28 0 9.008-.58 15.3-.53 5.945.047 5.273-.31 8.793-.346.008.613.018 1.238.03 1.874l-16.135 1.697 16.224 2.32c.02.795.044 1.604.07 2.423L18.11 241.93l16.433 2.35c.03.78.06 1.572.094 2.368l-16.526 1.738 16.71 2.39.114 2.298-16.823 1.77 17.033 2.435c.03.774.053 1.514.07 2.222L18.11 261.3l17.147 2.452c-.003.94-.012 1.685-.016 2.203l-17.13 1.8 18.772 2.685.018.022.04.91c.183.38.36.752.536 1.124l-.183-.3-19.18 2.016 20.97 3.118-20.97 3.338 20.69 2.96 3.51.272c.13.353.2.548.2.548l-24.404 2.765 14.665 2.185zm189.028-20.513c-26.125 0-57.376-.025-85.324-.055-1.174 0-1.698-5.11-1.698-5.11s-.632 5.187-1.43 5.186c-.906 0-3.6-.488-2.672-.443 1.778.085.527-3.67.527-3.67s-1.192 3.578-1.61 3.577c-30.09-.032-75.48.38-83.93.37l-1.758-.7 20.156-2.093-24.39-3.445c.034-.12.067-.258.1-.41l24.29-2.52-24.238-3.424-.024-.434 24.262-2.52-24.577-3.47-.018-.35 24.594-2.555-24.88-3.515-.012-.278 24.892-2.585-24.744-3.494c-.072-.094-.148-.19-.228-.29l24.972-2.592-25.31-3.574c0-.057 0-.117-.002-.173l25.312-2.63-25.3-3.572c0-.06.004-.116.006-.176l25.294-2.627-24.797-3.502c0-.102.004-.202.006-.3l24.79-2.574-17.998-2.543c3.492-.183 10.747-.456 22.68-.456 20.36 0-13.185-.38 16.715-.335.808 0 .15 5.18-.387 7.056.76.002 2.46-6.6 3.218-6.598 5.595.01 13.892.017 23.862.024.034.02.077.02.134 0 .833 0 1.677 0 2.532.002.767.548 2.17.46 3.196.002h1.687c.228.207.448.532.603.48.534-.173 1.005-.173 1.454-.173h.863l-.082-.215c1.66-.02 2.947.558 4.97 1.093 3.274.864 7.743-.333 11.14-.398.535-.01 1.07-.055 1.605-.074-.992.617-2.003.988-3.02 1.35-1.63.58-3.12 2.752-3.004 4.383.175 2.475 2.12-.72 3.395-1.48 2.102-1.252 4.52-1.65 6.926-1.22 1.513.273 4.248 1.406 5.627.24-.918 1-3.823 4.47-4.293 6.675-.484 2.273-1.342 2.553-1.148 2.993.675 1.53 1.417-.093 2.417-2.5 1.238-2.982 4.107-5.43 5.84-7.072 1.088-1.03 2.264-2.848 5.04-4.454.83-.48 9.532-4.18 9.1-1.83-.182.982-1.345 3.938-.62 6.775.5 1.955 1.7 4.438 3.526 6.14 1.942 1.81 3.26 2.288 4.386 2.62.814.24 2.05.068 2.624-.947.633-1.12.828-1.948.78-3.116-.016-.348-.147-2.435-.342-2.678-.423-.054-.567-.055-.78.242-.242.34-.542 1.497-.536 2.138.015 1.92-1.362 1.66-2.58.978-1.12-.628-4.776-3.58-4.206-7.714.643-4.66 4.964-11.535 8.342-14.695 3.606-3.374 7.61-4.92 11.258-5.494 1.806-.285 6.225-.585 8.173.258.02.57-.22 1.452.114 1.838 1.167 1.35 1.645 2.548.41 4.15-1.005 1.304-1.885 2.73-2.63 4.198-.645 1.27-1.75 2.933-2.602 4.195-1.06 1.57-1.37 2.287-.938 3.88.314 1.157 2.043-.43 3.5-2.27.912-1.153 1.43-2.54 2.193-3.637 1.214-1.74 2.426-3.505 3.843-5.075 1.048-1.16 3.074-2.96 5.63-3.763 2.556-.803 7.202-.714 9.422.365s4.663 6.41 4.864 10.17c.187 3.494-1.647 7.48-2.278 8.715s-1.687 2.11-2.07 2.22c-.01-.355-.41-.026-.516-1.604-.097-1.46.068-3.484-1.484-4.063-1.57-.586-.064 2.125-.2 4.48-.288 4.915 2.968 3.57 3.272 3.49 1.265-.328 4.492-4.853 5.024-7.08.587-2.455 1.022-6.278 1.03-8.89.01-2.85-1.286-7.395-1.19-7.977.21-1.27.566-2.603 1.23-3.684.782-1.273 2.94-3.58 6.622-3.064 4.535.636 6.038 3.816 6.163 7.39.146 4.183-1.614 8.02-3.822 10.02h-.46l-.327.69c-1.606.924-4.797.045-5.118.187-1.426.632-1.602 1.162-.783 2.436.743 1.156 3.16 1.27 4.463.477l.074-.048c3.796 0 31.777-.002 34.373-.005l-9.137.95 26.018 3.673-26.018 2.702 26.018 3.674-26.018 2.702 26.018 3.674-26.018 2.702 26.018 3.674-26.018 2.702 26.018 3.674-26.157 2.702 25.997 3.69-25.86 2.686 26.02 3.674-26.02 2.702 26.02 3.674-26.02 2.702 25.336 3.578c-.523.52-1.234.963-2.18 1.072-.756.064-11.174.143-57.19.143zm96.414-35.122c-.05.7-1.173 3.635-2.745 8.635h-4.08l2.803 3.188c-1.96 5.012-4.285 10.14-6.132 12.916l-2.336 2.328 3.375 7.52c2.344 7.05 4.27 6.988 6.396 11.618 1.336 2.912 2.17 5.206 2.17 5.912 0 1.78.49 3.517.434 3.517h-29.057l14.667-2.186-24.404-2.764s.068-.195.2-.548l3.508-.273 20.692-2.96-20.972-3.337 20.972-3.118-19.18-2.017-.184.3c.176-.37.353-.744.537-1.124l.04-.93 18.956-2.687-16.588-1.762v-2.297l16.755-2.396-16.755-1.762v-2.298l16.755-2.396-16.755-1.76v-2.3l16.755-2.396-16.755-1.762v-2.3l16.755-2.395-16.755-1.762v-2.298l16.755-2.396-16.755-1.76v-1.81l-.092-.002c4.192 0 3.03.4 9.284.348 6.29-.05 10.978.53 15.257.53 3.444 0 4.54.256 4.912.282 0 .29 1.596-.08 1.583.387l-.018.318z"/><path d="M87.69 104.156c-.173-.665-.273-1.02-.28-.99-.004.03.096.38.28.99z"/><path fill="#1D1D1B" d="M120.74 86.362s2.312 6.847-2.31 10.27c-4.622 3.423-9.243 8.56-4.622 18.83 4.622 10.27 20.797 15.404 28.885 13.693 8.088-1.712 11.554-6.847 11.554-15.405s-5.777-11.982-11.554-15.405c-5.777-3.424-21.952-11.983-21.952-11.983zM207.732 40.037s2.146 4.036-2.146 6.054c-4.29 2.02-8.583 5.046-4.29 11.1 4.29 6.053 19.31 9.08 26.82 8.07 7.51-1.008 10.728-4.035 10.728-9.08s-5.364-7.063-10.728-9.08-20.384-7.063-20.384-7.063z"/></svg>