<svg xmlns="http://www.w3.org/2000/svg" viewBox="0 0 311.35 25.84"><path d="M311.16 12.54c0-2.92.33-5.85.1-8.58a4.51 4.51 0 0 0-.57-2.45c-.82 1-.2 3.55-.75 4.52-102.41-.17-206.33.28-308.78-.1C.9 4.06 1.19 1.64.69 0H.5a.46.46 0 0 0-.28.28C-.21 4.25.12 8.8.12 13.21c0 3.3-.15 6.52-.09 9.71a6.54 6.54 0 0 0 .38 2.92c.73-.28.53-1.36.57-2.07.11-2.53 0-5.46.1-7.74 6.78-.33 14.1-.18 20.56-.18 1.85 0 3.79-.23 5.47.28 0 1 .09 2.45.09 3.86 0 1.27-.39 3.22.57 3.58.95-1.78-.09-5.85.57-7.64 5.93-.17 12.47-.09 18.49-.09 2 0 4.11-.23 5.94.28v4.06c0 .93-.28 3.42.47 3.39s.47-2.72.47-3.68c0-1.64.08-2.73.1-3.87 7.91-.34 16.74-.2 24.52 0 0 1.63 0 4.19.09 5.94 0 .56-.28 1.56.47 1.6.61-.81.42-2.3.48-3.58a36.36 36.36 0 0 1 .09-4.06c5.9-.26 12.62.18 18.49-.09a22.56 22.56 0 0 1 6 .28v4c0 1.26-.4 3 .57 3.49.65-.79.37-2.32.37-3.68a14.85 14.85 0 0 1 .19-4c5.86-.26 12.55.19 18.39-.09a22.37 22.37 0 0 1 6 .28v4c0 1.27-.39 3 .56 3.49.67-.77.38-2.33.38-3.68a15.2 15.2 0 0 1 .19-4c5.89-.27 12.62.19 18.48-.09a22.35 22.35 0 0 1 6 .28 43.54 43.54 0 0 0 0 5.84c0 .55-.25 1.51.47 1.6.63-.19.38-1.12.38-1.69 0-2-.21-4.55.29-5.95 5.69-.08 12.35-.09 18.39-.09 2.08 0 4.19-.23 6 .28v4.06c0 1.26-.26 3 .57 3.39.67-.77.38-2.33.38-3.68a14.86 14.86 0 0 1 .19-4c7.54-.08 16.74-.29 24.43.09-.06 1.65.05 4.2.09 5.94 0 .54-.25 1.54.47 1.6.61-.79.43-2.28.47-3.58a34.55 34.55 0 0 1 .1-4.06c6-.17 12.53-.09 18.58-.09 2 0 4.11-.23 5.94.28v4c0 1.26-.4 3 .56 3.49.51-.88.38-2.3.38-3.68a14.82 14.82 0 0 1 .19-4c7.89-.09 16.69-.28 24.42.09.18 1.67.09 4.14.1 5.94 0 .55-.27 1.55.47 1.6.64-.75.47-2.28.47-3.58s-.08-2.88 0-4c5.83-.34 12.62-.18 18.67-.18 2.07 0 4.19-.23 6 .28 0 2.1-.47 5.23.28 6.88.81-.56.47-2.1.47-3.4a12.7 12.7 0 0 1 .19-3.68c8.57-.13 18.27-.2 26 .09v4.16c0 1.35-.24 2.89.47 3.67.74-.51.47-1.67.47-2.45zM7.48 15.09H1.07c-.07-.93-.37-2.87.19-3.49 2 .06 4.34-.12 6.22.09a6.64 6.64 0 0 1 0 3.4zM20.4 15a30.18 30.18 0 0 1-5.28 0c-.06-.89-.36-2.8.19-3.39 1.67.06 3.58-.12 5.09.09a11.53 11.53 0 0 1 0 3.3zm6.7-4.24c-8.49.12-17.55.18-26 0a16.54 16.54 0 0 1 0-3.59.47.47 0 0 1 .28-.29c8.58.07 17.42-.12 25.84.1a12.49 12.49 0 0 1-.12 3.77zM33.23 15a27.08 27.08 0 0 1-5 0c0-.77-.42-2.71.1-3.39 1.64.06 3.51-.12 5 .09a22.12 22.12 0 0 1-.1 3.3zm12.83 0a28.62 28.62 0 0 1-5.19 0c0-1-.34-2.59.19-3.39 1.64.06 3.52-.12 5 .09a12.13 12.13 0 0 1 0 3.3zm6.7-4.34c-8 .16-16.63.16-24.62 0A24.67 24.67 0 0 1 28 7.17a.27.27 0 0 1 .19-.29c8.18.07 16.6-.12 24.62.1a30 30 0 0 1-.06 3.68zM59 15a29.16 29.16 0 0 1-5.19 0c-.05-.9-.36-2.8.19-3.39 1.64.06 3.51-.12 5 .09a29.06 29.06 0 0 1 0 3.3zm12.83.09c-1.38 0-3.66.1-5.19-.09-.06-.89-.36-2.8.2-3.39 1.64.06 3.52-.12 5 .09a12.43 12.43 0 0 1-.04 3.39zm6.51-4.34c-8.06.2-16.66.12-24.62-.1a27.37 27.37 0 0 1-.09-3.49.48.48 0 0 1 .29-.29c8.08.08 16.5-.11 24.48.13a26 26 0 0 1-.09 3.75zm6.32 4.34h-5.09a8.09 8.09 0 0 1-.1-3.3 19.19 19.19 0 0 1 5.19-.09 11.87 11.87 0 0 1-.03 3.39zm12.92 0h-5.19c-.23-.81-.45-3 .19-3.49 1.67.06 3.57-.12 5.09.09a23.64 23.64 0 0 1-.12 3.4zm6.32-4.34c-8 .16-16.57.16-24.52 0a23.49 23.49 0 0 1-.09-3.68.71.71 0 0 1 .28-.19C87.65 6.95 96 6.76 104 7a15.33 15.33 0 0 1-.13 3.75zm6.5 4.34h-5.19a23.18 23.18 0 0 1-.09-3.3 20.17 20.17 0 0 1 5.28-.09 10.74 10.74 0 0 1-.02 3.39zm12.83 0h-5.1a17.91 17.91 0 0 1-.09-3.3 20.15 20.15 0 0 1 5.28-.09 8.56 8.56 0 0 1-.12 3.39zm6.32-4.34c-8 .16-16.63.16-24.62 0-.06-.93-.12-2.3-.09-3.59a.48.48 0 0 1 .28-.29c8.14.07 16.53-.12 24.52.1a25.77 25.77 0 0 1-.12 3.78zm6.6 4.34h-5.19c-.06-.92-.36-2.87.19-3.49 1.64.06 3.52-.12 5 .09a11.59 11.59 0 0 1-.03 3.4zm12.83 0a49 49 0 0 1-5.19-.09 26.61 26.61 0 0 1 0-3.21 19.15 19.15 0 0 1 5.19-.09 11.59 11.59 0 0 1 .02 3.39zm6.13-4.34c-8 .16-16.57.16-24.52 0a26.37 26.37 0 0 1-.19-3.59.48.48 0 0 1 .28-.29c8.14.07 16.54-.12 24.52.1a10.52 10.52 0 0 1-.12 3.78zm6.76 4.25a27.59 27.59 0 0 1-5.28 0c.13-.9-.35-2.89.28-3.39 1.64.06 3.52-.12 5 .09a25.14 25.14 0 0 1 0 3.3zm12.82 0a29.11 29.11 0 0 1-5.19 0c-.07-.89-.36-2.8.19-3.39 1.64.06 3.52-.12 5 .09a11.64 11.64 0 0 1 .01 3.3zm6-4.34c-7.8.38-16.66.19-24.62.1a28.54 28.54 0 0 1-.07-3.69.76.76 0 0 1 .29-.19c8.11.07 16.47-.12 24.42.1a14.3 14.3 0 0 1 .02 3.68zm6.83 4.34a29.12 29.12 0 0 1-5.19 0c-.06-.89-.36-2.8.19-3.39 1.67.06 3.57-.12 5.09.09a8 8 0 0 1-.09 3.3zm12.92 0a29.12 29.12 0 0 1-5.19 0c-.24-.78-.45-2.89.19-3.39 1.67.06 3.57-.12 5.09.09a22.63 22.63 0 0 1-.09 3.3zm5.85-4.34c-8 .16-16.63.16-24.62 0a25.37 25.37 0 0 1-.09-3.49.47.47 0 0 1 .28-.29c8.14.07 16.54-.12 24.52.1a19.11 19.11 0 0 1-.09 3.68zm7.07 4.34a30.16 30.16 0 0 1-5.28 0c-.06-.91-.35-2.78.19-3.39 1.67.06 3.58-.12 5.09.09a11.36 11.36 0 0 1 0 3.3zm12.83-.09a30.28 30.28 0 0 1-5.28 0c.15-1-.32-2.71.28-3.3 1.64.06 3.51-.12 5 .09a11.46 11.46 0 0 1 0 3.2zm5.76-4.25c-8 .16-16.63.16-24.62 0a9.49 9.49 0 0 1-.09-3.58.76.76 0 0 1 .28-.19c8.11.07 16.47-.12 24.43.1.28 1.13-.09 2.41 0 3.67zM239 14.9a29.26 29.26 0 0 1-5.19 0c-.07-.86-.36-2.74.19-3.3 1.64.06 3.52-.12 5 .09a11.32 11.32 0 0 1 0 3.21zm12.92 0a29.67 29.67 0 0 1-5.28 0 21.59 21.59 0 0 1 0-3.11 19.14 19.14 0 0 1 5.19-.09 7.62 7.62 0 0 1 .11 3.2zm5.56-4.34c-8 .16-16.63.16-24.61 0a33.9 33.9 0 0 1-.1-3.4.49.49 0 0 1 .29-.29c8.14.07 16.53-.12 24.52.1a25.79 25.79 0 0 1-.08 3.59zm7.26 4.34a29.24 29.24 0 0 1-5.19 0c-.07-.86-.36-2.74.18-3.3 1.64.06 3.52-.12 5 .09a14.1 14.1 0 0 1 .04 3.21zm12.83.09a28.62 28.62 0 0 1-5.19 0c-.06-.89-.36-2.8.19-3.39 1.63.06 3.51-.12 5 .09a11.67 11.67 0 0 1 .02 3.31zm5.57-4.34c-7.84-.05-16.72.13-24.71-.09a25.6 25.6 0 0 1-.1-3.4.49.49 0 0 1 .28-.29c8.15.07 16.54-.12 24.53.1a25.58 25.58 0 0 1 .02 3.69zm7.37 4.35a30.11 30.11 0 0 1-5.27 0c-.06-.9-.37-2.8.19-3.39 1.67.06 3.58-.12 5.09.09a11.46 11.46 0 0 1-.01 3.3zm12.93-.09c-1.4.38-3.88.13-5.28.19-.07-.92-.36-2.87.19-3.49 1.63.06 3.51-.12 5 .09a21.61 21.61 0 0 1 .09 3.2zm6.79-4.15c-8.37 0-17.61.07-26.13-.1a26.07 26.07 0 0 1-.1-3.59.77.77 0 0 1 .29-.19c8.58.07 17.41-.12 25.84.1a27.2 27.2 0 0 1 .09 3.77z" /></svg>
