<svg xmlns="http://www.w3.org/2000/svg" width="1249.264" height="256.411" viewBox="0 0 1249.264 256.411"><g stroke="#000" stroke-miterlimit="10"><path d="M1246.367 256.19c-.014 1.003 1.888 1.15 2.017.134.934-7.38.11-14.773-2.084-21.875v17.77c.06 1.32.085 2.642.067 3.97zM421.324 249.066c10.77 1.122 21.79 3.405 32.075 6.99h4.92c-4.682-1.766-9.48-3.224-14.127-4.46-18.288-4.87-37.936-6.503-56.736-2.996-7.974 1.488-15.935 4-23.335 7.457h5.03c15.77-6.572 33.894-8.895 52.172-6.99z"/><path d="M413.078 256.057h19.86c-6.578-.6-13.243-.586-19.86 0zM1241.878 164.144c-.885 10.09.4 20.827 4.422 30.546v-5.804c-2.197-6.692-3.18-13.767-2.93-21.068.19-5.625.942-13.037 2.93-20.206v-5.005c-2.71 7.49-3.9 15.582-4.422 21.537z"/><path d="M1241.382 147.758c1.062-4.054 2.685-8.176 4.918-11.96v-4.404c-9.77 13.635-10.423 34.72-8.286 48.648 1.374 8.956 4.196 17.66 8.286 25.898v-4.592c-7.44-16.976-9.567-35.847-4.918-53.59zM443.774 247.424c8.042 2.12 16.89 4.85 24.97 8.633h3.437c-.24-.12-.48-.246-.725-.365-20.52-10.012-44.784-15.23-68.24-14.534-19.735.585-40.056 5.47-56.904 14.9h3.55c28.207-14.31 61.732-17.122 93.914-8.634z"/><path d="M453.734 243.13c9.7 2.717 19.162 7.093 27.053 12.927h2.785c-1.495-1.222-3.05-2.393-4.668-3.498-21.442-14.648-50.484-16.967-76.697-15.402-23.033 1.375-46.99 6.84-65.764 18.9h2.656c13.477-8.072 29.162-12.926 45.514-15.452 22.49-3.474 47.212-3.612 69.12 2.524z"/><path d="M1239.427 200.88c-4.133-3.905-8.835-7.55-13.933-10.847.032-.132.038-.274-.016-.435-3.938-11.56-.554-23.304 2.58-34.692 3.144-11.42 8.195-22.225 18.242-29.706v-2.36c-9.184 6.336-15.105 15.513-18.44 25.557-4.07 12.258-9.013 27.325-4.82 40.095-2.986-1.818-6.085-3.526-9.294-5.08 0-.004.003-.008.003-.013-.34-15.37 2.005-30.627 9.622-44.634 5.083-9.346 12.77-18.398 22.928-23.952V112.5c-10.03 5.18-17.815 13.58-23.24 22.51-8.607 14.17-12.673 31.384-11.382 47.432-2.61-1.197-5.275-2.303-7.99-3.3.17-.156.277-.372.266-.65-.522-13.568 4.324-26.57 12.227-38.127 7.394-10.81 17.8-22.263 30.12-29.27v-2.08c-9.33 4.996-17.154 12.49-23.886 20.054-12.597 14.153-21.29 31.192-20.58 49.422-5.448-1.89-11.058-3.365-16.73-4.31 9.394-15.705 20.066-30.604 32.954-44.305 8.18-8.696 17.165-18.23 28.243-24.452v-1.693c-5.172 2.795-10.012 6.276-14.483 10.216-19.675 17.34-36.572 37.886-48.767 59.916-4.284-.62-8.592-.947-12.877-.935 13.965-8.476 25.73-20.143 34.428-32.628.313.087.682.027.894-.29 10.214-15.376 21.396-31.036 37.75-41.972 1.003-.67 2.022-1.31 3.056-1.92v-2.35c-7.123 3.972-13.403 9.38-18.808 14.778-5.356 5.35-10.038 11.16-14.33 17.195 1.117-2.282 2.176-4.59 3.124-6.937.322.064.697-.068.838-.448 5.028-13.476 14.85-24.738 29.175-30.874v-2.856c-10.498 4.248-19.88 11.197-25.448 19.892 2.61-11.18 3.086-22.705.798-33.918-5.37-26.32-26.803-44.924-53.776-55.87-12.234-4.966-25.1-8.263-38.135-9.937l-2.03-.244c-5.594-.645-11.215-1-16.826-1.05l-5.494.04c-5.085.132-10.153.502-15.174 1.12l-1.52.197c-2.49.333-4.975.703-7.44 1.156l-9 1.944c-2.45.608-4.883 1.27-7.29 2l-12.984 4.635c-.267.11-.53.228-.796.34l-3.314 1.45c-1.96.89-3.897 1.827-5.808 2.806l-4.505 2.418c-2.506 1.41-4.956 2.904-7.355 4.475l-6.134 4.302c-1.503 1.12-2.978 2.277-4.43 3.465l-2.16 1.814c-1.127.97-2.232 1.966-3.324 2.977l-1.95 1.848c-1.037 1.007-2.062 2.03-3.063 3.08-19.237 20.198-27.345 44.614-29.224 70.517-1.85 25.482.927 51.238-4.242 76.503-.302 1.48-.64 2.954-1.002 4.426 1.41-20.08-8.41-39.923-27.3-52.138-22.48-14.535-52.393-16.184-76.413-3.53-11.863 6.25-21.754 15.593-27.55 26.655-5.265 10.05-7.548 22.797-.877 32.794 6.21 9.307 19.018 13.193 30.827 11.894-12.085 1.967-26.426.9-35.468-6.47.08-1.023.148-2.05.185-3.08.904-25.346-11.898-49.826-32.055-67.633-14.79-13.064-34.156-22.847-54.864-26.344l-4.96-.71c-5.53-.657-11.135-.863-16.757-.55l-9.783 1.108c-9.752 1.67-23.77 7.562-27.636 9.724-3.867 2.162-15.748 11.847-17.862 14.157s-2.948 3.51-4.24 5.38L666 142.94c-.15.31-.31.614-.456.926-9.302 20.02-3.535 45.67 15.918 59.55 18.177 12.97 46.394 11.9 63.808-1.7 2.553-1.992 4.763-4.234 6.652-6.676-1.234 7.866-5.866 15.73-11.677 21.372-12.89 12.513-31.745 18.283-50.445 19.87-19.046 1.618-38.41-.294-57.362-2.005-19.334-1.746-38.606-4.057-57.78-6.847-39.384-5.73-77.614-15.354-116.423-23.333-19.08-3.923-38.332-7.095-57.82-8.967-17.89-1.718-36.372-3.128-54.278-.89-31.867 3.982-60.233 23.665-70.595 50.398-1.194 3.082.813 3.728 2.033.81 11.67-27.9 40.06-47.213 74.55-49.92 19.514-1.53 39.545.303 58.89 2.585 20.427 2.41 40.51 6.335 60.52 10.616 39.295 8.406 78.265 17.017 118.27 22.542 20.105 2.777 40.356 4.84 60.64 6.312 17.396 1.263 35.104 2.075 52.298-1.16 17.77-3.345 35.27-11.734 45.05-25.594 3.85-5.455 6.47-12.513 6.544-19.312.41-.68.804-1.366 1.17-2.07.254-.49.096-.932-.23-1.24-.063-.123-.19-.225-.363-.25-.248-.12-.53-.175-.803-.154-.664-4.84-2.816-9.358-6.967-12.837-.01-.177-.087-.352-.252-.494-.612-.523-1.238-.86-1.86-1.068-.242-.158-.476-.32-.728-.47-.42-.254-.916-.054-1.08.254-3.095.262-5.644 3.685-5.2 6.706.37 2.52 1.693 4.66 3.56 6.37-1.555-.786-3.02-1.69-4.316-2.784-4.35-3.682-6.576-11.238-.28-14.466 8.042-4.124 16.596 5.368 19.074 10.87 7.026 15.6-1.007 32.938-14.49 43.68-29.117 23.2-73.84 22.29-110.277 18.28-40.963-4.512-81.75-11.446-122.153-18.82-36.98-6.747-74.128-16.983-112.052-18.508-40.318-1.62-82.455 11.154-108.073 39.616-.264.292.192.658.49.388 15.382-13.922 33.087-25.188 54.028-31.737 20.29-6.345 41.892-7.53 63.208-5.746 20.37 1.702 40.302 5.865 60.228 9.78 23.285 4.576 46.62 8.95 70.05 12.924 23.29 3.95 46.66 7.55 70.09 10.796 19.494 2.7 39.133 5.19 58.91 5.23 35.053.074 84.384-9.798 93.486-44.9 3.03-11.686-.242-33.34-17.963-34.54-6.787-.46-11.294 4.693-10.5 10.39.807 5.778 5.485 9.188 10.937 11.543-3.995-.55-7.812-1.812-11.055-4.096-5.838-4.112-9.2-11.937-5.74-18.14 3.764-6.752 13.62-8.97 21.41-7.058 8.608 2.11 14.48 9.12 17.47 16.16 5.324 12.543 3.442 27-3.497 38.757-7.934 13.44-22.515 21.283-37.458 27.856-7.714 3.393-15.533 6.84-23.9 8.816-7.836 1.85-15.98 2.084-24.046 1.747-16.737-.7-33.508-2.62-50.136-4.373-33.4-3.518-66.622-8.122-99.676-13.6-37.314-6.182-74.153-14.15-110.813-22.797-.633-.15-1.016.254-1.063.698-21.524-5.4-46.077-2.767-66.9 3.55-19.01 5.77-38.19 15.637-51.773 29.163-2.032 2.022.05 2.747 2.442.64 14.237-12.538 30.298-22.37 49.873-28.308 22.157-6.72 44.32-6.874 67.196-4.096 6.28 1.56 12.582 3.065 18.893 4.542-.028.125-.032.254 0 .372-14.53-4.418-30.123-6.262-45.42-5.375-30.33 1.76-62.997 14.092-84.16 33.765-.743.69.264 1.572 1.137.95 11.41-8.14 22.835-15.808 36.222-21.458 14.427-6.088 30.15-10.002 46.135-11.02 26.82-1.705 53.757 5.108 74.953 19.33-46.936-22.914-108.555-18.102-147.584 15.588-1.295 1.118-.19 1.28 1.44.066 21.293-15.867 47.57-26.25 75.634-27.89 24.522-1.433 49.095 3.822 70.305 14.498-14.918-5.26-31.47-7.548-47.424-7.812-32.848-.543-66.448 7.84-93.128 24.857-.414.264.973.813 1.757.38 21.436-11.83 45.364-19.797 70.617-22.262 26.392-2.577 55.6.018 78.944 11.834 5.767 2.918 11.203 6.643 16.03 10.955.006.18.094.362.308.52.4.296.81.585 1.21.88.055.05.107.104.162.156h5.938c-1.52-.838-3.036-1.687-4.544-2.548-.148-.084-.287-.095-.41-.065-.477-.432-.966-.85-1.455-1.27 2.707 1.324 5.437 2.612 8.177 3.884h3.136c-4.505-1.883-9.005-3.777-13.5-5.684-3.258-2.573-6.75-4.873-10.418-6.93 11.985 3.782 23.727 8.112 35.39 12.615h4.454c-14.034-5.396-28.15-10.63-42.623-15.08-3.2-2.942-6.632-5.655-10.25-8.152 3.432.91 6.87 1.837 10.312 2.777 20.296 6.977 40.747 13.613 61.15 20.347l.327.11h6.432c-3.145-1.054-6.29-2.1-9.438-3.123-7.286-2.37-14.568-4.752-21.853-7.125 12.706 3.545 25.483 7.033 38.323 10.246h7.155c-29.49-6.953-58.456-15.624-87.587-23.666-1.95-.6-3.9-1.203-5.852-1.796-.172-.052-.32-.01-.437.074-1.016-.277-2.03-.557-3.048-.832-.032-.01-.057 0-.088-.007-5.884-3.605-12.206-6.64-18.804-9.135 38.246 11.273 77.544 19.522 117.008 26.778 16.1 2.96 32.322 6.063 48.643 8.584h13.54c-22.004-2.732-43.84-6.806-65.516-10.81-35.814-6.614-71.4-14.233-106.237-24.086 65.71 14.634 132.917 24.813 200.228 31.02 17.432 1.607 36 4.366 53.14-.16 8.742-2.31 16.998-6.057 25.092-9.712 8.355-3.772 16.56-7.97 23.547-13.54 11.51-9.175 18.323-22.142 19.063-35.765.69-12.674-4.2-28.4-18.11-34.558-12.52-5.542-30.908.624-29.603 14.47.832 8.825 7.875 14.25 16.393 16.24-2.927-.387-5.8-1.075-8.55-2.173-7.77-3.1-14.1-10.076-13.63-17.828.48-7.88 7.897-14.336 16.39-16.133 8.298-1.756 17.18.47 24.058 4.668 14.238 8.688 19.957 25.045 17.647 39.68-2.318 14.69-11.695 28.23-23.27 38.764-11.72 10.667-27.058 16.694-43.486 19.92h8.79c3.365-.843 6.68-1.807 9.93-2.907 17.095-5.785 30.685-17.42 40.112-31.047 8.768-12.676 13.415-27.89 9.316-42.567-3.75-13.427-14.946-25.773-30.915-28.64-15.218-2.732-33.93 6.86-30.72 22.167 2.563 12.233 15.047 17.594 27.76 17.963-4.22.11-8.5-.535-12.58-1.7-8.907-2.546-19.012-7.456-21.84-15.826-5.627-16.65 13.857-28.467 30.83-26.875 18.965 1.778 34.014 16.316 41.537 30.826 7.083 13.66 6.18 28.946-.8 42.494-8.814 17.106-24.948 28.568-43.63 36.11H740c23.077-10.43 42.114-27.063 46.284-50.77 2.838-16.137-3.627-31.394-15.407-43.738-11.033-11.562-27.635-20.077-45.243-16.366-15.582 3.284-27.485 18.827-19.338 32.386 4.153 6.91 13.127 11.302 21.507 13.68-11.02-1.268-21.722-4.87-29.352-11.356-7.7-6.544-5.717-17.254-.713-24.68 4.49-6.66 11.78-11.848 19.952-14.674 17.73-6.132 37.205-.056 50.796 10.712 14.94 11.837 21.978 28.954 25.444 45.952 1.692 8.296 3.072 17.518.293 25.74-2.95 8.73-10.165 16.074-17.255 22.49-4.21 3.81-8.73 7.354-13.503 10.624h3.55c7.59-5.424 14.508-11.55 20.416-18.28 6.07-6.913 10-14.437 10.075-23.277.074-8.643-1.575-17.76-3.84-26.162-4.58-16.977-14.34-33.485-31.075-43.536-14.55-8.738-33.45-11.554-49.53-4.375-14.393 6.423-31.105 26.214-17.7 39.787 6.37 6.448 17.033 10.17 26.263 12.132 4.608.98 9.276 1.466 13.948 1.535-17.246 3.268-37.1 1.48-46.59-11.41-13.806-18.753 1.098-41.456 22.215-49.45 17.558-6.648 38.27-4.376 54.735 3.636 18.806 9.152 30.963 25.933 36.43 43.86 5.767 18.912 5.737 41.382-6.415 58.384-4.48 6.266-9.99 11.988-16.175 17.158h3.585c8.818-7.53 16.22-16.2 20.475-25.854 8.002-18.16 5.94-40.423-1.758-58.394-7.46-17.413-21.647-32.533-41.39-39.912-17.613-6.583-38.632-7.078-55.573 1.366-20.104 10.02-32.063 33.47-17.41 51.464 11.943 14.67 38.043 15.047 56.98 8.744.194-.02.386-.038.58-.06-7.888 3.6-16.876 5.19-25.808 5.703-11.938.682-24.335-.828-33.16-8.534-15.833-13.823-14.303-36.64-.065-50.76 15.723-15.592 41.462-20.584 64.048-16.29 22.53 4.28 40.938 17.628 51.81 35.274 10.982 17.825 14.872 39.236 11.212 59.21-2.732 14.913-10.283 27.5-21.143 38.042h2.68c12.138-12.255 19.652-27.085 21.18-44.06 1.837-20.414-3.046-41.503-15.6-58.912-12.556-17.415-32.58-29.502-56.033-32.162-22.004-2.496-45.887 3.64-60.4 18.94-14.273 15.045-15.03 38.918 2.05 52.735 9.323 7.54 22.186 8.923 34.358 8.133 9.693-.63 19.273-2.54 27.588-6.76-7.536 6.406-20.1 8.535-29.953 9.67-12.46 1.436-24.332-.827-34.015-8.095-18.55-13.92-19.732-37.642-7.01-55.066 13.766-18.857 40.81-27.15 65.43-24.935 26.203 2.357 48.567 16.424 64.17 34.504 14.976 17.354 20.67 37.964 17.214 59.462-2.724 16.942-9.744 32.986-21.19 46.547h1.695c12.44-15.45 20.436-34.214 21.963-52.896 1.844-22.56-6.98-42.99-23.72-60.038-16.443-16.75-39.322-28.516-64.85-29.346-23.76-.772-48.922 8.063-62.026 26.123-13.566 18.697-11.64 44.65 9.416 58.477 10.802 7.094 23.337 8.28 36.338 6.153 9.314-1.523 20.502-3.735 27.33-9.836-12.928 14.73-38.478 19.49-57.54 11.13-23.348-10.243-32.28-37.2-24.314-58.09 8.682-22.774 35.457-37.605 61.99-39.248 27.79-1.72 55.053 9.544 74.54 26.46 19.82 17.204 32.47 41.003 31.803 65.7-.543 20.074-9.547 39.31-22.928 55.41h3.53c1.843-2.295 3.6-4.647 5.256-7.052 20.665 4.213 41.808-.69 60.832-7.984 21.17-8.117 42.82-19.31 55.487-36.85 9.886-13.694 12.276-34.7-4.83-45.12-15.178-9.244-42.13-4.182-54.185 7.26-6.003 5.696-9.544 15.042.72 18.57 6.363 2.188 13.23 1.766 19.21-.603-7.812 4.562-17.255 8.276-25.683 3.323-12.744-7.49-2.44-21.633 6.68-27.076 17.496-10.44 42.936-14.12 60.33-1.506 18.8 13.634 12.908 37.156-1.028 51.704-13.844 14.45-34.01 24.78-53.71 31.846-21.72 7.79-44.94 11.857-68.286 13.348-.19.012-.344.067-.477.14h18.848c19.216-2.387 38.096-6.81 55.833-13.818 22.29-8.807 47.756-22.63 58.54-42.768 9.563-17.858 3.294-38.993-18.225-47.042-10.273-3.843-21.633-3.844-32.308-1.344-10.738 2.515-22.91 7.307-29.643 15.38-5.64 6.766-6.55 17.664 2.388 22.714 9.187 5.19 19.108 1.204 27.188-3.878-7.873 7.318-18.422 13.058-29.964 8.422-14.684-5.898-11.893-22.68-3.46-31.826 16.25-17.627 47.637-23.753 70.194-12.4 22.865 11.51 28.412 34.912 17.933 55.156-10.573 20.43-32.916 32.175-56.037 39.698-14.176 4.612-28.705 8.323-43.346 11.705H870.8c10.247-2.104 20.61-3.765 31.044-4.896-.087.415.257.878.842.688 1.084-.352 2.167-.72 3.248-1.097 12.632-1.198 25.354-1.613 38.08-1.076 10.34.435 20.68 1.486 30.87 3.2.004 0 .008 0 .01.002 5.213.877 10.38 1.95 15.495 3.18h15.655c23.396-4.056 39.204-22.99 46.52-42.416 4.213-11.184 6.263-23 6.174-34.777-.093-12.107-3.083-23.662-6.288-35.367-3.407-12.445-5.953-24.957-2.588-37.635 3.163-11.92 10.65-23.164 21.502-30.93 20.16-14.424 51.807-14.172 70.634 2.15 10.97 9.51 15.063 23.7 12.335 36.857-1.317 6.353-4.173 12.508-8.57 17.704-4.303 5.083-11.238 10.948-18.963 9.886 19.696-7.675 29.177-29.878 20.05-47.083-9.767-18.414-36.627-26.41-57.64-18.964-23.108 8.19-35.064 29.12-34.37 50.227.695 21.197 10.76 41.286 10.804 62.535.033 15.635-7.594 29.984-16.834 43.04-7.804 11.026-18.8 21.216-32.982 24.768h7.243c17.713-7.195 29.638-24.28 37.62-39.52 5.127-9.79 7.834-19.966 7.44-30.755-.34-9.27-2.49-18.41-4.724-27.444-4.926-19.927-11.008-41.726 1.184-60.658 13.225-20.536 42.877-29.812 66.246-16.278 12.008 6.954 18.958 18.733 17.21 31.404-1 7.236-4.475 14.02-9.758 19.475 8.402-9.99 9.062-24.868.492-35.24-12.69-15.358-38.013-17.942-55.457-7.585-20.045 11.9-24.292 32.765-20.615 52.47 1.932 10.35 5.3 20.44 7.344 30.77 2.225 11.25 2.318 22.66-.105 33.897-3.35 15.54-14.613 39.68-32.333 49.465h3.192c8.92-5.712 16.13-14.433 20.996-22.57 10.41-17.4 14.44-37.578 11.33-57.043-3.054-19.095-12.548-38.3-8.542-57.825 4.438-21.628 28.646-38.87 53.88-31.822 12.815 3.58 23.287 12.988 24.442 25.068 1.044 10.923-5 21.922-15.876 27.406.052-.092.09-.187.14-.28.108-.007.22-.033.337-.106 14.303-8.96 15.085-27.963 3.353-38.893-13.522-12.6-35.91-11.872-50.218-.82-14.073 10.87-16.232 27.108-13.814 42.483.038 5.953 1.503 11.986 4.355 17.518 5.108 16.602 11.437 33.085 6.517 50.425-3.326 11.727-10.32 22.52-17.19 32.886-3.11 4.69-6.577 9.485-10.756 13.574h3.165c3.847-4.003 7.14-8.575 10.11-13.17-.032.128-.034.27.007.42 1.064 3.99 5.35 6.478 8.998 8.68 2.563 1.55 5.274 2.89 8.074 4.07h5.725c-3.422-1.148-6.736-2.56-9.87-4.225-3.88-2.063-9.614-4.993-10.96-9.077-.248-.757-1.17-.756-1.67-.34 2.04-3.18 3.93-6.36 5.75-9.353.563-.927 1.12-1.86 1.668-2.8 1.234 4.347 3.642 8.444 7.017 11.803.284.48.58.954.908 1.42 3.995 5.678 10.53 10.047 17.892 12.572h27.462c9.68-4 18.757-13.154 15.66-22.3 4.184 5.993 2.096 14.098-3.685 18.865-1.68 1.386-3.572 2.515-5.597 3.435h4.3c2.27-1.41 4.27-3.132 5.84-5.232 4.464-5.978 4.683-13.938-1.153-19.218-.2-.18-.474-.157-.688-.04-.24-.43-.502-.856-.8-1.282.032-.053.06-.106.094-.16.086-.053.17-.108.258-.162 6.49 6.083 13.65 14.098 8.135 22.54-.882 1.35-1.963 2.514-3.17 3.554h3.49c1.757-1.86 3.073-4.062 3.746-6.682 2.16-8.406-4.744-15.604-11.742-20.532.164-.563-.546-.952-1.07-.718-.418-.182-.84.166-.72.52-.155 0-.31.027-.434.103-.118-.07-.263-.105-.424-.06-2.18.622-4.742 1.49-7.06 1.432-6.1-.15-7.84-6.27-1.08-6.558 3.47-.15 7.71 1.437 10.755 2.674 6.66 2.705 12.987 7.203 15.717 13.362 2.818 6.36 1.43 11.886-2.182 16.46h2.93c2.384-3.628 3.58-7.795 2.91-12.463-1.677-11.66-14.89-19.433-27.09-21.68-4.543-.84-11.91-.08-9.906 5.628 2.203 6.272 10.38 4.267 15.24 2.06 0 .02.003.038.005.057-6.543 3.317-15.188 5.787-21.47.833-3.237-2.554-4.65-6.64-2.02-9.936 2.933-3.675 8.846-4.243 13.58-3.984 14.015.768 29.507 9.09 34.546 20.92 2.747 6.448 1.86 12.867-1.22 18.565h2.68c4.343-9.313 3.074-19.887-5.346-28.274-5.588-5.565-13.136-9.472-21.147-11.696-7.17-1.99-16.928-3.265-23.26 1.3-6.427 4.633-3.98 12.507 2.41 16.07 4.43 2.47 9.318 2.307 13.924.92-5.28 2.505-11.304 3.796-16.992 2.26-9.824-2.655-14.966-12.448-7.297-19.63 6.984-6.54 19.2-6.246 28.45-4.767 9.14 1.462 17.967 4.933 24.77 10.566 10.68 8.846 14.507 21.666 10.485 33.25h2.87c5.785-16.63-5.484-34.003-22.604-41.59-13.625-6.037-46.345-10.632-50.26 8.378-1.53 7.433 5.167 13.935 12.93 15.88 8.045 2.018 15.535-.854 21.763-5.095-5.29 5.424-12.54 9.345-20.934 9.417-9.703.083-19.745-6.745-20.618-15.51-1.05-10.56 10.996-17.78 21.026-20.69 9.303-2.7 19.51-2.784 28.93-.467 20.172 4.965 33.554 20.932 33.874 39.227.064 3.69-.448 7.17-1.43 10.45h2.553c1.296-4.448 1.758-9.223 1.192-14.323-2.202-19.812-19.102-35.357-41.425-38.473-10.894-1.52-22.447-.12-32.164 4.577-8.625 4.17-16.583 11.914-14.824 21.158 1.697 8.92 11.483 15.817 21.595 16.192 10.455.388 19.88-5.205 25.5-12.67-.797 10.307-12.51 17.703-23.91 18.36-12.97.745-25.667-7.114-28.683-18.335-2.936-10.925 6.147-21.427 15.85-27.333 9.065-5.516 20.284-8.203 31.277-7.75 23.292.957 42.058 17.15 47.552 36.507 2.067 7.28 2.024 14.826.272 22.088h2.628c1.95-8.27 1.732-16.92-1.175-25.28-7.377-21.218-30.144-37.008-55.85-35.216-21.75 1.517-52.566 19.806-41.08 41.967 5.744 11.084 19.727 17.313 33.274 14.814 10.374-1.914 20.41-9.19 21.31-18.55 3.592 12.473-14.833 22.294-27.255 22.143-9.488-.115-19.934-4.036-26.464-10.533.037-.22-.033-.455-.297-.662-.428-.334-.843-.67-1.25-1.01-2.06-2.437-3.584-5.18-4.355-8.177-6.192-24.066 20.872-44.708 46.164-45.803 28.406-1.23 52.856 16.672 61.727 39.67 3.324 8.617 4.432 17.79 2.577 26.635h3.132c2.34-11.563-.333-23.66-6.032-34.217-12.513-23.18-41.103-38.825-70.562-33.33-13.963 2.606-26.253 10.285-33.638 21.02-.244.354-.48.72-.714 1.085 3.72-13.766 19.7-23.906 35.634-24.635 5.97.58 12.057.485 18.012-.257 21.954 2.674 42.27 11.118 55.798 27.243 10.87 12.956 14.92 27.755 14.493 43.09h3.555c.94-15.905-5.5-32.664-16.165-44.924-12.188-14.008-31.666-24.396-51.934-26.337 1.522-.303 3.026-.656 4.52-1.038 22.63 3.14 44.516 11.455 59.63 27.068 7.005 7.235 12.285 15.726 15.392 24.824 2.335 6.836 2.988 13.548 2.863 20.406h3.285c1.332-16.677-7.376-34.56-19.256-46.712-14.632-14.966-36.13-24.33-58.365-26.568 2.054-.62 4.075-1.32 6.068-2.08 22.238 4.552 44.25 12.48 61.16 26.217 15.986 12.986 25.703 30.203 27.782 49.143h2.494c-.136-19.034-11.757-37.19-27.24-50.044-17.097-14.194-39.19-22.32-62.042-26.17 1.738-.713 3.44-1.495 5.128-2.308 22.22 3.554 43.63 11.123 59.964 25.25 15.296 13.228 23.8 30.794 24.637 49.435v-17.772c-3.778-12.227-11.632-23.59-21.666-32.538-16.062-14.323-38.204-22.864-60.794-25.434 1.36-.697 2.697-1.434 4.02-2.19 12.078 1.066 23.71 2.83 35.08 7.02 12.658 4.66 24.19 11.548 33.666 20.278 3.548 3.27 6.785 6.8 9.692 10.528v-3.965c-2.176-2.55-4.464-4.99-6.875-7.268zm-491.355-12.31c-2.034-1.08-3.868-2.48-5.27-4.1-.88-1.02-1.713-2.23-2.157-3.445-1.01-2.765.73-7.28 4.81-5.52 4.033 3.702 6.08 8.132 6.632 12.802-1.328.142-2.67.23-4.015.262zm89.634 17.742c12.042 8.86 31.39 7.945 45.344 3.43 11.133-3.604 30.844-15.176 23.074-27.555.13-.68.253-1.365.337-2.056.003-.017-.002-.032 0-.05.052-.064.08-.142.096-.223 9.728 4.464 3.75 15.632-2.522 21.03-5.974 5.142-13.76 8.95-21.574 11.453-13.572 4.345-32.842 6.59-45.476-.918.295-1.694.537-3.398.722-5.11zm46.288 1.63c11.142-4.567 19.17-13.632 21.767-24.146 4.067 11-10.222 19.96-21.766 24.145zm-47.348 5.353c15.645 9.02 39.948 4.315 55.315-2.79 8.517-3.936 17.797-9.81 20.908-18.207 2.105-5.682-.284-13.876-8.43-13.805-.396.003-.37.467-.047.562.095.028.177.06.268.09-.052.014-.1.04-.14.09-.04.046-.083.093-.122.14-.026.004-.05 0-.077.008-.107.03-.217.053-.324.083l-.22.016c.06-.3-.15-.664-.606-.68-.28-.037-.522-.09-.767-.144.27-1.07.998-2.09 1.857-2.79.128-.104.256-.19.385-.274.137.185.43.27.66.05 1.398-.1 2.796-.202 4.194-.304l2.442 1.95c.57.603 1.06 1.312 1.475 2.005 1.306 2.18 1.852 4.733 1.84 7.18-.022 5.155-2.66 9.838-6.278 13.796-5.934 6.493-14.247 11.564-22.534 15.495-7.88 3.738-16.408 6.483-25.172 8.1-9.42 1.738-18.43 1.62-27.96 1.432 1.402-3.932 2.524-7.938 3.332-12.002zm-3.91 13.618c.04.012.073.034.12.04 23.19 3.252 49.406-4.806 67.53-17.287 8.48-5.84 17.156-13.724 16.743-23.89-.148-3.63-1.56-7.89-4.76-10.384-.99-.772-2.232-1.384-3.48-1.618-.056-.135-.154-.26-.298-.337-1.832-.995-4.506.326-5.76 1.557-1.03 1.008-1.513 2.15-1.5 3.344-1.537-.657-1.828-1.855-.856-3.598-.366-2.245.76-3.665 3.377-4.26 1.627-.544 3.503-.683 5.214-.43 2.763.41 5.268 1.772 7.23 3.482 4.752 4.137 5.568 9.946 3.907 15.46-3.108 10.325-12.884 19.336-22.187 25.79-18.568 12.885-43.038 18.582-66.396 15.25-.04-.007-.077-.005-.116-.007.432-1.03.838-2.07 1.23-3.112zm-1.956 4.767c.114.068.253.117.42.14 25 3.54 51.093-2.993 70.44-17.323 9.174-6.795 18.927-16.294 21.085-27.037 1.632-8.127-3.192-17.606-13.245-19.162-4.444-.688-10.107.976-11.687 5.035-1.082 2.78.514 5.37 3.284 6.235-4.066-.07-8.41-1.14-8.67-5.045-.27-4.044 5.24-6.535 8.875-7.47 7.525-1.935 17.372-1.01 23.12 4.013 13.71 11.986-1.718 29.026-11.488 38.126-21.22 19.764-52.078 35.572-83.37 25.232.433-.908.832-1.827 1.236-2.744zm-2.01 4.336c30.966 11.217 62.992-5.448 84.29-24.587 9.943-8.936 21.998-20.755 17.508-34.335-3.785-11.446-19.967-15.066-31.673-11.084-4.42 1.504-9.66 5.084-8.178 9.833.946 3.03 3.682 4.41 6.827 4.882-1.115.12-2.234.205-3.36.2-1.788-.006-3.582-.187-5.32-.554-.955-.2-2.26-.4-3.1-.84-1.64-.858-3.38-4.06-3.04-5.822.577-3.018 5.926-6.14 8.483-7.524 3.387-1.832 7.15-3.075 11.013-3.878 15.572-3.238 33.9 2.287 35.08 18.126 1.105 14.874-12.105 26.11-24.064 34.853-12.434 9.09-25.592 17.94-40.743 23.23-14.65 5.117-30.83 6.568-45.91 2.05-.077-.023-.145-.016-.216-.02.84-1.495 1.642-3.005 2.404-4.53zm50.953-52.76c-8.243-3.08-5.19-10.15-.934-14.764 3.322-3.604 7.907-6.215 12.7-8.075 15.724-6.108 38.603-7.23 47.843 8.158 9.288 15.468.032 32.696-12.366 44.378-13.392 12.618-31.302 21.204-49.305 27.68-17.602 6.33-36.657 10.348-55.577 6.9 1.226-1.84 2.39-3.712 3.498-5.608.086.104.196.195.364.248 16.825 5.27 35.14 2.898 51.128-3.494 9.306-3.72 17.9-8.654 26.03-14.07 8.335-5.55 16.857-11.477 23.947-18.258 10.513-10.055 18.278-26.73 6.894-38.768-10.694-11.31-32.472-9.676-45.188-2.14-4.56 2.703-12.822 9.738-6.564 14.516 4.81 3.672 12.963 3.538 19.095 1.655-6.505 3.126-14.7 4.207-21.567 1.64zm-5.413 69.586c10.267-2.607 20.457-5.462 30.313-9.056 24.717-9.01 47.998-24.376 54.717-48.27 6.265-22.28-7.622-44.142-32.574-51.268-12.675-3.62-26.642-2.656-38.932 1.66-12.245 4.3-24.867 12.287-29.72 23.454-4.344 10.002-.552 23.078 12.062 26.53 13.46 3.685 25.806-3.995 32.96-13.525l.17-.122c-4.368 9.394-13.06 17.65-24.884 19.29-11.428 1.586-24.23-3.657-28.386-13.462-8.102-19.11 14.284-37.567 32.023-44.532 20.352-7.99 44.35-6.765 62.28 5.318 18.54 12.496 26.053 33.104 18.866 52.655-8.414 22.89-30.877 36.513-54.407 46.49-11.57.985-23.09 2.634-34.49 4.84zm90.083-48.82c8.65-20.94 1.03-43.478-19.27-56.888-19.778-13.066-46.364-13.25-67.907-3.345-17.66 8.12-38.82 28.236-28.085 47.103 5.326 9.36 18.168 14.073 29.653 12.365 12.695-1.888 22.372-11.02 25.864-21.57-2.6 10.954-11.55 20.717-23.508 24.8-12.51 4.27-29.01 1.714-36.2-9.047-6.56-9.816-3.6-22.502 1.918-32.12 5.694-9.923 14.783-18.213 25.604-23.922 21.88-11.543 49.073-10.71 70.31 1.613 21.534 12.498 32.4 34.826 28.475 57.162-4.163 23.7-25.618 44.585-53.6 45.972 20.497-9.067 38.79-22.86 46.746-42.122zm-24.358 43c16.023-2.427 29.937-12.372 38.255-24.727 13.187-19.59 12.826-43.662 12.1-65.657-.758-22.967-2.443-46.717 5.694-68.914 8.777-23.944 29.942-44.402 53.734-57.86 22.87-12.934 50.105-19.572 77.292-16.752 25.726 2.668 50.302 13.46 66.02 31.844 15.478 18.104 21.523 41.42 14.653 63.383-7.64 24.427-24.072 50.093-49.898 62.77-13.38 6.57-29.056 9.315-44.1 6.114-16.09-3.423-31.766-13.658-35.964-28.297-3.784-13.2 3.334-28.257 19.284-31.668 13.218-2.827 26.447 5.9 26.443 17.387-3.41-6.778-10.363-12.056-19.175-12.498-9.185-.462-17.837 4.355-20.28 12.29-5.55 18.024 14.91 33.286 32.674 37.197 50.297 11.073 85.62-39.02 86.408-77.254.442-21.463-9.254-43.355-27.904-57.565-18.464-14.07-45.624-21.418-69.917-19.85-26.004 1.68-49.85 16.06-69.02 30.67-20.172 15.374-31.76 35.352-36.333 58.303-5.088 25.54-1.394 51.135-2.516 76.827-1.14 26.12-12.278 57.484-44.65 64.874-4.26-.303-8.528-.517-12.8-.62zm23.758.113c-.987-.06-1.215.867-.784 1.456-1.59-.177-3.178-.354-4.77-.502 17.188-5.658 29.394-19.435 35.436-34.474 7.682-19.122 6.154-39.88 5.562-59.795-.61-20.535-.2-41.563 6.476-61.413 7.562-22.482 24.04-39.244 45.548-52.667 10.827-6.757 22.312-13.54 34.913-17.44 11.004-3.403 22.875-4.304 34.446-3.268 24.088 2.156 49.044 11.91 63.896 29.12 29.063 33.677 18.248 87.927-20.3 112.694-20.032 12.87-49.85 14.878-68.475-1.4-8.412-7.35-15.177-21.422-5.948-30.452 5.07-4.963 13.938-6.26 20.792-3.637 6.195 2.372 10.402 7.296 12.566 12.78-.01.044-.025.09-.036.133-6.132-4.727-13.704-9.375-22.185-6.87-7.155 2.113-9.43 8.624-7.82 14.62 4.44 16.527 28.144 22.878 45.105 20.605 21.644-2.9 38.387-18.116 46.587-35.25 8.266-17.27 11.413-39.155 6.155-57.46-5.292-18.425-21.713-32.55-40.61-40.887-9.892-4.363-20.877-7.47-31.894-8.553-11.123-1.093-21.654.9-31.97 4.495-22.194 7.737-43.015 17.436-57.42 34.663-13.904 16.627-21.107 36.655-23.822 56.983-1.56 11.685-1.746 23.483-1.204 35.228.566 12.274 1.942 24.387-.14 36.622-1.973 11.592-6.213 22.863-12.514 33.197-5.473 8.97-14.072 22.3-27.59 21.472zm7.445 2.52c-1.505-.218-3.01-.425-4.518-.617 15.175-1.086 24.883-18.472 30.25-28.993 8.146-15.962 11.084-33.034 10.12-50.426-2.11-38.025-1.65-78.697 27.897-109.448 14.55-15.143 35.87-24.525 56.934-30.895 21.317-6.447 44.154-1.55 63.2 8.2 18.964 9.71 32.944 25.352 35.518 44.83 2.403 18.174-1.256 38.754-11.41 54.827-11.79 18.666-35.544 32.56-60.416 26.576-10.692-2.572-22.798-9.635-23.856-20.248-.578-5.792 3.478-10.474 10.38-10.682 5.26-.16 9.876 2.166 14.008 4.917-5.677-2.318-12.562-3.398-16.55 1.853-4.142 5.456 1.822 11.556 6.794 14.508 15.416 9.152 36.516 6.402 50.78-3.12 31.217-20.84 34.38-64.122 13.71-91.675-10.004-13.34-25.49-22.844-43.075-26.845-18.67-4.247-37.086-1.495-53.884 6.54-20.027 9.58-39.682 22.256-50.703 40.222-10.117 16.49-12.746 35.58-13.364 54.04-.738 22.052 1.65 44.3-2.644 66.174-3.896 19.847-14.882 44.42-39.172 50.26zm4.517.7c13.603-4.677 23.204-15.7 29.078-27.296 7.255-14.323 9.572-30.086 10.26-45.62 1.48-33.386-5.247-70.398 15.453-100.474 11.39-16.55 30.87-28.674 50.175-37.378 16.96-7.646 35.713-9.257 53.923-4.062 35.612 10.16 55.08 42.3 49.578 74.184-3.322 19.254-16.51 39.592-38.556 46.073-9.68 2.846-20.78 2.84-30.137-.954-4.674-1.896-10.455-5.085-11.7-9.83-1.47-5.595 5.414-7.933 10.434-7.162.725.11 1.444.275 2.157.468-1.763.11-3.423.653-4.733 1.92-1.926 1.865-2.938 6.15.47 7.21 1.807 3.002 6.048 4.677 9.876 5.593 7.286 1.742 15.217 1.16 22.304-.983 15.826-4.788 26.34-16.887 31.053-30.637 9.136-26.645-3.05-58.815-30.733-73.284-29.078-15.198-67.365-4.75-91.44 13.405-29.878 22.533-30.316 59.197-29.595 91.025.433 19.186 1.062 39.08-5.918 57.528-6.723 17.772-20.554 34.374-41.368 40.372-.194-.032-.386-.068-.58-.1zm5.04.893l-.12-.023c27.438-9.7 40.96-36.54 44.186-61.16 3.945-30.11-3.243-60.865 5.43-90.57 4.78-16.373 14.567-30.546 30.344-40.475 13.54-8.522 29.613-14.615 46.31-15.906 16.093-1.244 32.107 2.51 44.528 11.757 11.825 8.803 19.66 21.364 22.915 34.597 4.062 16.51 1.002 35.55-11.552 48.818-6 6.342-14.185 10.95-23.364 12.802-7.308 1.474-25.752 2.02-27.234-7.296-.024-.148-.106-.25-.21-.312.277-1.278 1.272-2.393 2.605-2.925 1.718-.685 3.662-.63 5.574-.374-1.227.66-2.12 1.768-2.29 3.163-.265 2.193 1.65 4.747 4.203 4.992 12.502 4.477 26.827-.267 35.725-8.673 10.203-9.638 14.553-23.302 14.2-36.245-.742-27.153-24.756-50.784-55.504-54.25-28.65-3.23-56.896 9.714-72.222 30.84-8.36 11.52-12.988 25.01-14 38.606-1.134 15.256 4.168 29.856 4.705 45 .322 9.08-1.752 17.98-3.87 26.816-2.203 9.182-4.423 18.43-8.217 27.227-6.974 16.174-21.015 31.665-41.86 33.538-.1.008-.19.028-.277.053zm169.53-122.133c6.285-9.3 8.432-20.69 6.298-31.31-4.483-22.313-28.16-36.21-53.18-35.635-26.62.612-47.852 18.257-55.08 40.087-4.055 12.244-2.738 24.59.386 36.87 3.496 13.746 7.62 27.07 7.514 41.28-.228 30.64-17.556 74.066-59.398 74.295-.17 0-.317.03-.448.076-.113-.03-.224-.063-.337-.092 22.86-2.07 38.204-21.487 44.788-40.018 4.392-12.363 6.988-25.426 7.817-38.35.83-12.923-1.082-25.25-4.318-37.818-3.49-13.555-4.51-26.822.31-40.258 4.625-12.887 14.037-24.24 26.915-31.692 25.448-14.728 61.528-11.613 80.177 10.66 9.11 10.883 12.09 25.095 8.957 38.24-1.597 6.702-4.796 13.12-9.55 18.564-5.048 5.78-13.29 11.06-21.333 9.184 8.716-.186 16.315-7.917 20.48-14.083zm4.113 4.154c7.288-9.228 10.605-20.692 9.802-31.865-1.794-24.96-25.19-44.134-53.19-46.32-29.367-2.29-56.897 14.807-67.296 38.512-5.32 12.126-6.39 25.222-3.704 37.962 1.628 7.72 4.124 15.275 5.265 23.08 1.056 7.218 1.267 14.532.79 21.796-1.112 16.937-4.797 35.265-13.51 50.525-8.51 14.91-25.32 27.723-45.452 25.43-.086-.01-.167-.01-.246-.008 26.59-5.318 38.604-30.802 44.237-52.258 3.537-13.472 7.274-27.212 5.915-41.125-1.39-14.227-5.712-27.967-4.214-42.36 2.812-27.026 20.92-52.584 50.704-62.072 30.216-9.626 64.69.145 79.68 25.95 7.825 13.47 8.918 29.98 2.643 44.087-6.833 15.36-23.21 26.534-42.145 22.644-.07-.084-.163-.16-.312-.205-1.714-.536-3.56-1.556-3.51-3.37.04-1.386 1.32-2.576 2.788-3.036l.693.292c.037.015.068.01.103.02-.11.19-.102.433.128.637.234.207.47.395.71.584.036.046.086.083.143.12 10.238 7.972 23.712-1.092 29.978-9.025zm-27.278 7.085c-.377.187-.747.383-1.132.56-.198.09-.244.265-.203.43-.228-.05-.454-.08-.683-.14-.148-.095-.297-.182-.444-.282.05-.023.1-.045.145-.075.613.09 1.27-.09 1.67-.68.148.156.387.248.647.187zm-4.682-25.506c-7.488-7.64-19.19-9.78-29.932-6.714-10.594 3.025-17.836 9.403-21.874 17.2.98-12.952 17.28-21.782 31.265-22.483 9.04-.453 19.31 1.895 24.337 9.032 4.01 5.693 5.66 14.037 2.94 20.618.713-6.278-1.914-12.734-6.736-17.654zm-15.942-22.24c12.012.328 24.32 6.805 28.733 16.875 4.143 9.456 1.07 20.32-7.076 27.266.12-.316.215-.637.315-.956 5.39-6.57 4.653-15.572.846-22.8-4.354-8.267-14.006-11.85-23.958-12.174-9.738-.318-19.625 2.674-26.995 8.284-3.175 2.416-6.208 5.614-8.127 9.16 4.86-14.224 17.83-26.154 36.26-25.653zm-38.36 38.998c-.003-.413-.027-.823-.022-1.237.013-1.042.077-2.087.177-3.13.1.75.276 1.503.528 2.252-.248.698-.478 1.403-.68 2.116zm7.637 34.668c3.627 4.51 8.115 8.226 13.173 11.188-4.278 1.48-7.02 5.7-7.894 9.683-.166-1.184-.375-2.366-.6-3.547.405-1.09.926-2.148 1.603-3.133 1.01-1.47 2.417-2.54 3.645-3.847.587-.625-.25-1.55-1.064-1.1-2.232 1.227-3.78 3.352-4.703 5.625-1.116-5-2.598-9.94-4.16-14.87zm20.588 14.848c1.805.738 3.655 1.398 5.544 1.978-8.85 1.31-16.75 7.8-20.188 14.986.04-1.126.03-2.252.002-3.378 2.448-6.377 7.646-9.654 14.43-12.768.356-.165.38-.542.213-.818zm-14.798 10.736c-.05-.7-.147-1.4-.22-2.1.04-.037.073-.08.083-.14.447-2.605 1.66-5.045 3.53-7.106 1.642-1.808 3.754-2.748 5.78-4.047 1.588.853 3.224 1.64 4.906 2.353-6.635.76-11.747 5.62-14.078 11.04zm12.594-.2c-7.973 4.84-13.73 12.112-14.356 20.667-4.055 7.033-6.32 15.666-4.553 23.448-1.46-2.18-2.653-4.53-3.607-7.12 3.787-6.64 7.067-13.55 8.797-20.832.472-1.984.8-3.976 1.016-5.97.04-.04.075-.082.1-.14 2.067-4.948 5.556-9.342 10.412-12.493 4.566-2.962 9.33-3.843 14.655-4.852.967.225 1.94.436 2.92.622-5.747 1.433-11.425 4.267-15.384 6.67zm69.947-18.495c-.113.01-.226.013-.34.022-.224.02-.366.188-.395.362-1.615.855-3.25 1.676-4.913 2.433-.59-.042-1.18-.085-1.77-.12-.605-.034-.677.85-.08.93h.006c-1.85.792-3.72 1.536-5.625 2.198-.16-.02-.322-.046-.484-.067-.382-.052-.618.194-.65.453-12.072 4.005-25.176 5.315-38.873 2.875-25.396-4.524-46.19-25.71-39.997-49.266 2.802-10.66 12.243-19.778 24.46-22.494 12.634-2.808 25.13 2.877 29.39 13.778 1.344 3.437 1.56 6.966.598 10.337.098-6.88-4.252-13.573-11.135-17.182-9.24-4.845-21.42-2.712-29.355 3.186-8.78 6.526-11.786 17.323-9.677 27.008 2.576 11.824 12.647 21.41 24.488 26.93 24.297 11.327 52.834 4.995 72.82-10.29 12.19-9.324 21.105-21.487 27.917-34.254 6.11-11.452 11.323-23.664 12.16-36.4 1.477-22.407-9.78-44.843-28.3-60.08-19.392-15.953-46.417-23.544-72.725-22.946-57.447 1.307-112.78 42.458-121.833 92.47-4.542 25.094-.32 50.45-1.446 75.67-1.127 25.244-10.36 53.88-39.602 64.274-4.932 1.753-10.103 2.684-15.36 2.753 19.245-6.124 34.015-21.573 39.185-39.202 17.506-40.464 1.744-85.856 16.948-126.922 6.606-17.84 19.1-33.774 35.11-46.156.5.02 1.013-.216 1.16-.773l.044-.148c5.673-4.278 11.77-8.117 18.19-11.44 23.548-12.186 51.452-16.967 78.56-14.493 27.213 2.483 55.728 11.95 75.263 29.213 18.124 16.015 24.35 38.703 21.135 60.693-4.168 28.54-25.235 60.61-54.87 76.65z"/><path d="M433.047 254.95c1.585.333 3.24.705 4.928 1.107h6.5c-4.557-1.286-9.11-2.324-13.42-3.155-15.92-3.07-32.646-3.004-48.235 1.384-1.857.523-3.74 1.116-5.625 1.772h4.7c16.427-4.78 34.436-4.608 51.152-1.107zM273.597 252.888c-2.674.833-5.247 1.913-7.727 3.17h4.868c4.79-1.933 9.92-3.06 15.47-2.97 6.548.102 13.51 1.187 20.032 2.97h7.075c-3.064-1.082-6.24-1.95-9.44-2.654-9.857-2.168-20.467-3.573-30.278-.516z"/><path d="M280.432 243.72c-10.938 1.218-22.11 5.67-30.862 12.337h4.847c4.733-3.272 10.142-5.89 16.244-7.645 17.02-4.9 36.003-1.695 50.954 6.593.61.34 1.22.692 1.825 1.052h5.71c-13.706-9.288-31.495-14.252-48.718-12.336zM192.82 200.18c-18.465-14.068-45.625-21.417-69.918-19.848-26.004 1.68-49.85 16.06-69.02 30.67-16.183 12.334-26.83 27.637-32.774 45.055h2.063c.033-.096.06-.193.092-.288 7.562-22.483 24.04-39.245 45.548-52.668 10.827-6.757 22.312-13.54 34.913-17.44 11.004-3.403 22.875-4.304 34.446-3.268 24.086 2.156 49.042 11.91 63.894 29.12 11.04 12.794 16.32 28.557 16.517 44.544h2.152c-.086-20.918-9.752-42.04-27.913-55.877z"/><path d="M208.504 237.277c-5.292-18.425-21.712-32.55-40.61-40.887-9.892-4.363-20.877-7.47-31.894-8.553-11.123-1.093-21.654.9-31.97 4.495-22.194 7.737-43.015 17.436-57.42 34.663-7.42 8.874-12.917 18.722-16.856 29.062h2.36c4.37-11.593 10.868-22.578 20.423-32.522 14.55-15.143 35.87-24.525 56.934-30.895 21.317-6.447 44.154-1.55 63.2 8.2 18.964 9.71 32.944 25.352 35.518 44.83.45 3.393.685 6.87.708 10.387h2.17c-.04-6.45-.846-12.807-2.562-18.78z"/><path d="M148.553 195.78c-18.67-4.248-37.086-1.496-53.884 6.54-20.027 9.58-39.682 22.255-50.703 40.22-2.665 4.345-4.798 8.872-6.524 13.518h2.375c2.1-5.405 4.792-10.668 8.276-15.73 11.39-16.55 30.87-28.674 50.175-37.378 16.958-7.646 35.71-9.257 53.92-4.062 29.24 8.34 47.582 31.502 50.17 57.17h2.05c-1.163-11.985-5.476-23.693-12.782-33.433-10.005-13.34-25.49-22.846-43.075-26.846z"/><path d="M162.202 211.488c-29.078-15.198-67.365-4.75-91.44 13.405-11.48 8.658-18.603 19.408-22.995 31.163h2.412c5.336-13.49 14.456-25.15 28.002-33.676 13.54-8.522 29.613-14.615 46.31-15.906 16.093-1.244 32.107 2.51 44.528 11.757 11.825 8.803 19.66 21.364 22.915 34.597.262 1.066.492 2.144.695 3.23h2.36c-3.226-18.094-14.695-35.112-32.788-44.57z"/><path d="M201.936 196.888c-19.39-15.953-46.416-23.545-72.723-22.946-53.427 1.215-105.02 36.896-119.26 82.115h2.033c.5-1.665 1.044-3.323 1.65-4.972 8.776-23.944 29.94-44.402 53.733-57.86 22.87-12.934 50.104-19.572 77.29-16.752 25.727 2.668 50.303 13.46 66.02 31.844 11.836 13.844 18.147 30.735 17.395 47.74h2.21c1.113-22.103-10.08-44.138-28.35-59.17z"/><path d="M7.104 242.985c6.605-17.84 19.1-33.775 35.108-46.157.502.02 1.014-.216 1.162-.773.013-.05.03-.1.043-.15 5.673-4.277 11.77-8.116 18.19-11.44 23.548-12.185 51.452-16.966 78.56-14.492 27.213 2.484 55.728 11.95 75.263 29.214 17.076 15.09 23.586 36.1 21.594 56.872h3.298c.677-7.377.365-14.802-1.123-22.095-5.37-26.32-26.804-44.924-53.777-55.87-12.234-4.966-25.1-8.263-38.135-9.937l-2.028-.244c-5.595-.646-11.216-1.002-16.827-1.05l-5.494.04c-5.086.13-10.154.5-15.175 1.12l-1.52.196c-2.49.333-4.975.703-7.44 1.156l-9 1.944c-2.45.608-4.883 1.27-7.29 2l-12.984 4.635c-.266.11-.53.228-.795.34l-3.314 1.45c-1.96.89-3.896 1.827-5.807 2.806l-4.505 2.42c-2.505 1.408-4.955 2.903-7.355 4.474l-6.134 4.3c-1.505 1.12-2.98 2.278-4.43 3.466l-2.162 1.814c-1.128.968-2.233 1.965-3.325 2.976l-1.95 1.848c-1.037 1.007-2.062 2.03-3.063 3.08C12.85 221.46 4.77 238.175.626 256.057h2.652c.99-4.398 2.23-8.76 3.826-13.073z"/><path d="M100.875 252.817c-1.71 1.015-3.297 2.1-4.782 3.24h4.07c9.927-6.657 22.75-9.56 35.86-5.898 4.555 1.272 8.803 3.293 12.453 5.897h3.532c-13.524-11.4-35.492-12.526-51.133-3.24z"/><path d="M110.732 256.057h9.51c1.253-.086 2.533-.12 3.843-.085.48.013.96.052 1.44.085h10.464c-8.05-2.685-17.06-2.58-25.258 0z"/><path d="M106.76 238.847c-10.2 3.615-18.222 9.713-23.947 17.21h3.056c14.506-16.96 41.137-23.678 62.518-11.295 5.146 2.98 9.354 6.852 12.356 11.295h2.653c-10.5-17.16-36.306-24.416-56.638-17.21z"/><path d="M134.09 212.528c-28.652-3.23-56.897 9.714-72.223 30.84-2.913 4.015-5.363 8.273-7.375 12.69h2.658c8.21-17.198 23.255-31.54 43.938-38.13 30.216-9.625 64.69.146 79.68 25.95 2.237 3.852 3.905 7.957 5.026 12.18h2.263c-5.8-22.42-27.356-40.53-53.968-43.53z"/><path d="M128.598 218.447c-28.99-2.26-56.18 14.377-66.876 37.61h2.85c5.12-10.576 13.575-19.785 24.57-26.147 25.448-14.728 61.527-11.613 80.176 10.66 3.906 4.665 6.676 9.945 8.33 15.487h2.585c-5.924-20.604-26.99-35.687-51.635-37.61z"/><path d="M120.994 225.53c-22.6.52-41.31 13.318-50.87 30.527h2.73c3.912-6.81 9.337-12.954 16.058-17.762 20.16-14.424 51.807-14.172 70.634 2.15 5.066 4.392 8.646 9.787 10.784 15.612h2.422C165.937 236.76 144.04 225 120.994 225.53z"/></g></svg>