<svg id="Layer_1" xmlns="http://www.w3.org/2000/svg" viewBox="0 0 387.9 363"><style>.st0{fill:#FFFFFF;stroke:#000000;stroke-width:6;stroke-miterlimit:10;}</style><path class="st0" d="M379.9 26c-.6-.1-1.1-.2-1.7-.2-5.2-.2-10.5-.5-15.7-.7-6.1-.3-12.2.1-18.1 2-4.7 1.6-9.5 2.8-14.2 4.4-4.9 1.7-9.8 3.7-14.6 5.8-4.2 1.8-8.1 4.2-12.2 6.1-2.3 1.1-4.8 2.2-7.3 2.4-6.5.5-13.1 1-19.6.5-5.9-.4-11.8-1.9-17.6-3.2-8.9-1.9-17.8-3.9-26.6-6.1-9.2-2.3-18.3-5.5-27.6-7.3-11-2.1-21.8-5.7-33.2-5.3-6.5.2-13 .3-19.4 1.3-8.4 1.3-16.9 2.8-24.8 6-5.8 2.3-11.5 4.8-17.2 7.3-2.2 1-4.6 1.8-6.4 3.3-4.7 3.9-9.5 7.8-12 13.7-.4.9-1.2 1.5-2 2.5-1.8-1-3.5-2.1-5.2-3-10.3-4.9-20.3-10.3-29.8-16.7-6-4.1-12.1-8-18.1-12.1-5.9-3.7-11.4-7.7-17-11.5C14.2 11.6 8.7 8.1 3 5.1v338c1.8.3 3.7.4 5.6.4 4.7 0 9.4.5 14 .9 14.5 1.3 29 2.3 43.3-1.5 8.7-2.3 17.5-3.9 25.5-8.2 5.9-3.2 11.6-6.6 17.5-9.7 8.3-4.3 15.6-9.9 22-16.7 4.3-4.5 9-8.7 13.7-12.8 5.1-4.3 10.2-8.7 15.8-12.4 6.6-4.4 13.3-8.9 21.7-9.4 2.1-.1 4.2-.5 6.3-.9 8.5-1.6 17-1.4 25.5-.9 5.8.3 11.7.6 17.5.4 9.1-.2 18.2-.8 26.6-4.9.8-.4 1.9-.1 2.8.1 6 1.1 12 2.3 18.1 3.2 8.6 1.2 17.3 1.9 25.8 3.3 7 1.2 13.4 4.2 18 9.8 3.1 3.7 5.7 7.8 8.9 11.5 3.7 4.3 5.3 9.5 6.8 14.6 2.5 8.2 1.7 16.4-2 24.1-1.1 2.2-3.7 3.8-5.8 5.5-1.8 1.5-3.2-.4-4.7-.9-1.9-.6-3.6-1.6-5.4-2.5-1.8-.9-3.5-1.9-5.4-2.6-1.9-.8-3.8-.4-5.1 1-1.3 1.3-1.3 3.1-.5 4.8.6 1.3 1.3 2.5 2 3.6-1.4 2.9-2.3 5.5.8 7.8.4.3.4 1 .5 1.6.8 4.2.8 4.3 5.1 4.9 1.9.3 3.8.1 6.4.2 6.7 4.4 12.5 3.4 20.5-4.3 5.4 2 11 2.5 16.6.6 2.3-.8 4.2-1.8 5.1-4.2.8-2.3 1.5-4.7 2.3-7.1 5 .2 9.9-.2 14.3-3.3V26.7c-1.1-.2-2.2-.5-3.2-.7z"/><path d="M40.7 106.7c.1 0 .1 0 0 0-1.9-.7-7.7-2.8 0 0zM26.4 105.9c.8.1.3 0 0 0 .1 0 0 0 0 0zM157.3 58.7zM23.3 26.8zM23.3 26.8c.9.4 1.4 0 .9-.1-.3.1-.6.1-.9.1zM155 58.8c-.5 0-1 .1-1.4.1.3 0 .7 0 1.4-.1zM155 58.8c.2 0 .5 0 .8-.1-.2.1-.4.1-.8.1zM156.8 58.7h.5-.5zM155.9 58.8c.4 0 .7 0 .9-.1-.2 0-.6.1-.9.1zM341.2 166.5zM152.9 59c-.2 0-.1 0 0 0zM153.5 58.9h-.2.2zM157.3 58.7c.2 0 .2 0 0 0zM153.4 58.9h-.4c0 .1.2 0 .4 0zM68.4 66.4c9.9 4.5 1.3.6 0 0zM49 49.1zM49 49.1zM137.9 83.7zM120.3 76.3c2 .7.1-.3 0 0zM16.6 22.1c.7.5.1-.1 0 0zM49.1 49.2c0-.1 0-.1 0 0 1.9 1.9 3.9 1.9 0 0zM241.4 55.8zM107.1 74.2c1.7.6.1-.2 0 0zM241.4 55.8zM10.1 105.8c.2-.2.4-.3.5-.5-2.4-.5-2.7 2.3-.5.5zM35 298.9c-.6 0-.1.3 0 0zM22.1 291zM22.1 291c-.2 0-.2 0 0 0zM353.3 332v-.1.1zM330.1 357.9zM321.2 279.6c-.2 0-.4-.1-.6-.1 13 12.5 5.8 1.3.6.1zM353.3 331.9c1.1-.9.7-.5 0 0zM380.1 338.6c-.2.1-.5.2-.8.3.3-.1.6-.2.8-.3zM353.3 332c0-.1 0-.1 0 0-.8.7-2 1.7 0 0zM333.8 340.9c.1.1.2.1.3.2 3.4 1.5 3.8-4-.3-.2zM318.4 275c.2-.3-1.3-.8 0 0zM340.9 295.4c0-.1 0 0 0 0zM340.9 295.4c.2.5 2.8 7.6 0 0zM340.9 295.4zM310.4 270.1c.1-.2-.8-.5 0 0zM380.8 338.4zM378 339.4c-.1 0-.1 0 0 0zM378 339.3zM378 339.4zM380.5 338.5c.1 0 .1 0 .2-.1-.1.1-.2.1-.2.1zM15.1 180.6zM96.8 51.5c-.2.1-.3.2-.3.3 0-.1.1-.2.3-.3zM129.1 178.9c.3-.1.5-.1.8-.2-.2.1-.5.1-.8.2zM226.3 176.5zM284.8 58.4c-.1 0-.1 0 0 0zM253.7 162.5c-.1 0-.1 0 0 0zM130.1 178.7c.4-.1.8-.2 1.1-.2-.3 0-.7.1-1.1.2zM313.5 154.6h0zM185.4 179c.1-.2.1-.1 0 0z"/><path d="M378.7 164.5c-5.7 3.1-9.5 9.1-15.5 4.3l.2-.2c.1-.1.2-.2.3-.2 5.5-5.2 12.2-8.8 19.4-11.5v-2.3c-3.7 1.3-7.3 2.8-10.7 4.7-5.8 3.2-11.4 11.7-17.2 5.5 9.1-6.2 18.1-11.4 27.9-15.4v-4.6c-1.6.3-3.1.6-3.7.7-5.1 1.4-10.2 2.7-15.2 4.2-4.8 1.4-9.7 3.3-14.2 5.6-3.8 1.9-7.3 5.9-11.7 3.2.7-.7 1.5-1.3 2.3-1.8-.4.2 1.8-.9 3.1-1.5.1-.1.3-.1.4-.2.1-.1.2-.1.3-.2.1 0 .2-.1.2-.1s-.1 0-.2.1c-.1 0-.2.1-.3.2-.1.1-.2.1-.4.2-.6.3-1.6.8-3.1 1.5 13.2-6.3 27.9-11.1 42.5-13.3v-2.5c-15.1 3.8-31.8 6.7-45.4 14.5-.2.1-1.3.7-1.4.8.1-.1.5-.3 1.4-.8-3.3 1.9-4.7 1.4-8-.4 16.8-7.9 34.6-13.9 53.4-14.1v-2.5c-3.2.3-6.1.4-7 .5-7.3.8-14.5 2-21.6 4.1-7.1 2-13.7 5.2-20.5 7.9-6 2.4-9 4.2-15.3 2 11.7-6.3 22.5-10.6 35.5-13.3 9.5-2 19.3-2.7 29-3.4v-4.6c-12.9-.8-25.8-1.3-39.1 1 5.8-4.2 26.2-5 39.1-2.2v-15.2c-4.1 3.3-8.8 5.1-14.8 4.6 5.3-2.2 10-4.1 14.8-6.1v-2.5c-11.7 6.2-28.9 8.8-37.6 4.2 13.4.6 25.4-2.6 37.4-7.4v-4.4c-9.7 2.6-20.2 3.3-29.7 3.6-4.6.1-49.3-1.1-49-3.5 1.3-.1 2.1-.2 2.5-.2 15.2-1.1 30.3-1.5 45.5-1.9 7.7-.2 15.3-.3 23-1 2.3-.2 4.9-.8 7.6-1.5V98c-11.7 1.7-23.7 1.6-35.1 1.8-10.1.1-20.4.3-30.5.9-5 .3-10 .9-15 1.5-4.3.5-9.9 2.3-14.1 1.1 4.3-1.1 8.5-2.6 12.8-3.2-4.1.6 11.2-1.6 0 0 20.8-3 41.2-4.2 62.1-5.5 6.6-.4 13.1-.5 19.7-1v-2.1c-1.1.1-2.1.2-3.2.3-11.4.8-22.8 1.2-34.3 1.9-11.3.7-22.8 1.1-34.1 2.6-5.7.8-11.4 1.9-16.9 3.4-3.8 1-11 5.4-14.8 3.9 2.6-1.1 5.2-2.2 7.8-3.4-1.3.5-.6.3 0 0s1.2-.5 0 0c19.6-8.3 39.9-13 61.2-13.2 10.6-.1 21.2 1 31.8 1 .8 0 1.6 0 2.4-.1v-2.3c-6.1.2-12.3.1-18.8-.3-8.6-.4-17.2-.5-25.8.3-3.2.3-24.4 4.1-24.9 2.3 6.4-1.7 12.7-3.7 19.3-5-6.5 1.3 6.4-1.3 0 0 13.5-2.7 27.1-3.2 40.8-2.7 3.1.1 6.2.2 9.4.4v-1.8c-6.8-.4-13.5-.8-20.3-.7-13.2.2-26.9 1.8-39.6 5.5-3.7 1.1-32.7 12.9-33.9 11.1 2.7-2 5.1-4.5 8.1-6-.6.3-.8.4 0 0 .2-.1.3-.2.5-.3 10.2-5.3 20.6-11 31.6-14.6 11.1-3.7 22.2-4.2 33.8-3.8 6.6.2 13.2.6 19.7 1v-2.1c-10.5-.8-21-1.3-31.5-.9-23.1.8-46.7 12.5-65 26.1-.7.7-1.5 1.3-2.4 1.8 2.1-5.1 7.7-8.7 11.8-12.1 5.3-4.3 10.7-8.8 16.4-12.6 11.6-7.5 25.7-11.1 39.4-11.3 10.2-.1 21 .6 31.3 2.2v-1.8c-8.8-1.2-17.7-2-26.5-2.4-17.2-.8-33.8 3.6-48.1 13.3-14.7 9.9-26.2 23.8-40.8 33.9.4-.7.8-1.4 1.4-2 12.2-11.9 23.9-25.1 38.2-34.5 15.8-10.4 32.2-16.7 51.3-17 8.3-.1 16.5 1 24.6 2.7V53c-9.7-2.1-19.5-3.7-29.7-3.2-18.1 1-34.6 8.6-49.4 18.7-7 4.8-13.6 10.2-19.3 16.6-2.3 2.6-14.7 17.4-17.3 15.7 1-1.5 1.8-3.1 3.1-4.4-.1.1-.1.1 0 0 0-.1.1-.1.1-.1C282 83.7 292.4 70.7 307 61.2c14.9-9.7 30.1-17.9 48.4-17.8 9.2 0 18.4 1.3 27.6 3.1v-2.2c-12.9-2.3-26.1-3.2-39.1-1.8-17.2 1.8-32.5 12.5-45.9 22.6-7.6 5.7-13.8 13-20.2 20.1-5.5 6.1-10.6 15.4-17.7 19.5.7-3 2.4-5.7 4.4-8.1-.5.6-.4.4 0 0 5.7-6.5 11.4-13 17.4-19.3 6.4-6.7 14-12.1 20.5-18.6 6.1-6.1 14.6-9.6 22.3-13 8.3-3.7 16.9-6.8 25.8-8.5 10.5-2 21.6-1.2 32.4 1v-2c-8-1.7-16-2.5-24.2-2-18.9 1.3-38 9-53.2 19.9-8.3 5.9-16 12.4-23.2 19.6-2.1 2.1-16.5 19.7-18 18.8 4.1-14.7 19.4-26 31-34.8 14.5-10.9 28.1-18.8 46-22.9 13.4-3.1 27.8-3.7 41.7-1.7v-1.6c-5.1-.6-10.1-.9-15.1-1.4-9-.8-18 .1-26.7 2.4-4.8 1.3-9.6 2.9-14.2 4.6-4 1.5-8.8 4.4-13.2 4.4 18.4-10 38.8-16 59.9-14.6-5-.3-7-.4-7.3-.5.6 0 9.6.6 10.1.6-.1 0-.9-.1-2.7-.2 3.1.2 6.2.7 9.3 1.3v-1.3c-2.5-.4-5.1-1.2-7.4-1.3-5.2-.2-10.5-.6-15.7-.6-11-.1-21.9 3.7-32.2 7.4-9.3 3.4-17.7 8.2-26.8 12-9 3.8-22.6 2.6-32 .9-21.7-4.1-42.7-11.3-64.3-15.5-10.1-2-20.1-5.1-30.6-5.3-10.8-.2-21.6.9-32.1 3.1-10.4 2.1-19.9 6.2-29.5 10.4-8 3.5-15.6 8.2-19.9 16.2-1 1.8-1.7 2.9-3 4.4-1.7-1-3.4-2.1-5.2-3-4.4-2.1-8.8-4.3-13.1-6.6-9.7-5.3-18.8-11.5-28-17.6C29.7 22.6 17 12.8 3 5.1v2.5c3.8 2.1 7.6 4.2 11.3 6.4 5.5 3.2 51.3 34.4 50.9 35.1C44.7 36.5 24.4 23.6 3 13v4.5c8.2 4 15.5 9 23.5 13.8 11.6 6.9 23.4 13.3 35.3 19.8 11.5 6.3 22.9 12.7 34.4 19 4.4 2.4 9.6 6.6 14.1 8.3 1.1.8 5.4.9 7 1.6 2.7 1.1 5.4 2.2 7.9 3.7-22.2-6.2-42.3-17.8-62.4-29.3C43.2 43.3 23.2 33.3 3 23.4v1.9c3.2 1.5 6.3 3.1 9.4 4.7.7.4 3.6 2.8 4.4 3 1.6.9 4.4-.3 3.5 2.1-3.9-2.3-7.9-3.4-11.9-5.4L3 27v4.4c11 5.1 32.3 15.9 31.1 18.3C23.7 44.5 13.5 38.8 3 33.8v1.8c3.7 1.7 7.4 3.5 11 5.5 3 1.6 6 3.3 9 4.9 2.9 1.5 7.9 2.9 9.8 5.8 0 .1.1.1.1.2-10.3-3.9-20.1-9-30-13.9v2.2c2.9 1.6 5.8 3.2 8.8 4.5 5 2.2 12.2 3.9 16.2 7.8-8.6-1.9-16.8-5.4-25-8.8v1.4c1.2.6 2.2 1.4 2.8 2.3-.8-.3-1.8-.5-2.7-.8v3.1c2.9.4 5.9 1 8.8 1.9-1.7-.5-7.8-2.3 0 0 .1 0 .1 0 .2.1 11.7 3.4 23.9 4.5 35.5 8.7 6.3 2.3 12.2 5.2 18 8.6 4.7 2.7 12 5.4 15.4 9.6C64.6 72.8 49 64.8 32.2 60c-9.6-2.7-19.4-5-29.2-6.9v2.6c14.9 3.1 29.8 6 44.2 11.4C67.1 74.7 85.5 84 104 94.3c8.9 4.9 18 9.4 27.1 13.9 8.1 3.9 19.3 3.3 28 2.4 9.9-1.1 20-3.6 28.6-8.5 3.5-2 8.4-4.2 10.8-7.6 2.2-3.1 2.1-7.4 2.7-11 4.3 2.2 3.2 7.6 1.6 11.4-2.1 5-9.1 8.5-13.6 11.1-5.1 3-11.4 3.9-17.1 5.2-7.7 1.8-15.8 3.3-23.7 3.4C117.9 115.1 96 92 70 80.1c-12.6-5.8-25.9-12.9-39.4-16C21.3 61.9 12.2 60 3 58.7v1.8c8.6 1.2 17.1 2.9 25.4 5.2 21.3 5.6 40.6 16 59.8 26.6 7.8 4.3 14.3 10.3 22.4 14.3 9.8 4.8 19.7 8.6 30.6 9.7 19.3 1.9 42.6-3.3 58.4-14.6 7.2-5.2 9-15.1 2.5-21.5-.8-.8-9.9-6.5-3.8-4.8 4.4 1.3 8.2 3.9 10.7 7.8 11.2 17.6-20.9 30.7-33.1 34-9.8 2.6-19.1 5.1-29.3 3.4-10.5-1.7-22.4-4.4-31.9-9.3-16.9-8.8-33.2-18.4-50.4-26.3-8.4-3.8-17.1-7.1-25.6-10.5-8.6-3.5-17.5-5.1-26.4-7.8-3-.9-6.1-1.6-9.3-2.3v2.7c4.3.7 7.8 1.3 8.9 1.5 11.2 2.1 21.7 6.2 32.3 10.2 21.4 8.1 41.2 19.3 61.4 29.8-.2.5-.3 1-.5 1.4-20.5-7.1-39.4-16.6-59.1-25.6-13.8-6.3-28.2-11.1-43-14.6v2c14.5 3 28.9 8.1 42.1 14.7 6.7 3.4 13.7 6.2 20.4 9.6 4 2 8 3.9 12 5.9 1.5.8 2.2 2 3.3 2.7.1.1.3.1.4.2 7.4.6 14.8 4.4 22 6.4 8.5 2.3 17 4.9 25.5 7.6 15.5 4.9 31.2 10 47.6 6.3 13.2-3 27.6-7.7 36.8-18.7 4-4.7 5.1-11.1 5-17.1-.2-8.2-4.6-10.6-9-16.5 13.1 1.5 18.6 21 12.3 31.2-7.1 11.4-23.3 19.4-35.8 22.8-15.4 4.2-31.8 3.8-46.8-1.3-15.9-5.5-32.2-9.6-47.6-16.3-3.2-1.4-6.5-2.8-9.7-4.3h-.1c-.1 0-.2-.1-.3-.2C55.7 93.4 30 81.5 3 75.6v2.3c17.4 3.6 34.5 10 50.8 16.8 20.1 8.3 39.5 17.9 60.1 25.1 19 6.7 37.7 12.7 58 11.2 17.2-1.2 40.5-9.7 50.5-24.9 4-6.1 6.1-14.9 2.1-21.5-2.1-3.4-3.9-7.1-7.2-9.4-1.3-.9-2.1-1.8-1.4-3.3 2.8.8 5 1.6 7.4 3.3 14.9 11.2 7.4 35.2-6.9 43.5-18.8 11-35.8 19.8-58.3 18.8-10.8-.5-19.5-5.1-29.4-9-10.2-4-20.3-8.3-30.3-12.8-20.1-9-40.3-16.6-61-24-11-3.7-22.6-7-34.4-8.9v2c.9.2 1.9.4 2.8.6 14.8 3.4 29.6 7.6 44 12.5 25.5 8.8 49.7 21.3 74.7 31.6 12.8 5.3 24.2 9.9 38.1 10.3 13.7.5 26.3-3.9 38.5-9.9 11.9-5.8 23-11.9 28.7-24.4 2.5-5.4 5.1-10.9 4-17-1.2-6.7-5.5-11.4-9.9-16.2 11-3.5 18.9 13.7 17.8 22.8-1.5 12.5-10.1 23.1-20.7 29.4-5.9 3.5-12.4 6.2-18.5 9.3-3.5 1.8-6.9 3.8-10.5 5.3-3.1 1.3-6.5 1.5-9.6 2.8-13.4 5.8-33.2 1.7-46.7-2.1-14-4-26.8-11.2-39.7-17.9-14.1-7.3-28-12.6-43.1-17.6-7.4-2.4-14.8-5-22.1-7.4C22.6 94.2 13.5 93 5 91.3c-.6-.1-1.3-.3-1.9-.4v1.6c.2 0 .5.1.7.1 35 7.2 68.8 18.6 100.2 35.8 28.8 15.7 65.8 26 96.3 8.8 13.4-7.5 28.4-11.6 37-25.4 3.9-6.2 6.6-12.5 6.3-20-.3-8.1-4.8-13.5-9.7-19.5 10.1-.3 15.5 9.9 15.3 19.2-.3 9.8-6.1 21.7-12.3 29.1-7.1 8.5-15.6 16.5-25.9 20.6-11.6 4.6-24 5.5-36.2 7.4-12.6 1.9-24.2 3.2-36.7-.4-11.4-3.3-21.5-9-32.1-14.2-10.5-5.2-20.8-11.3-31.7-15.8-11-4.5-22.4-7.8-33.6-11.8.7.3 1 .3-.1 0-10.5-3.8-21.7-4.8-32.5-7.1-1.7-.4-3.5-.7-5.2-1.1v1.8c4.6 1 8.7 2.1 11.4 3.1L3 101.6v3.4c2.5-.9 4.4-.4 7.6.3l-.5.5c-1.9 1.7-4.4 2.8-7.1 3.7v1.1c1.6-.4 3.1-.9 4.6-1.4 5.2-1.8 7.6-4.1 13.1-1.2-5.7 1.9-11.7 3.7-17.8 5.3v1.5c4.6-1 9.2-2.1 13.6-3.8 3.5-1.3 6.4-3.7 10.2-2.8-4.8 5.5-17.1 7.1-23.8 8.6v1.2c3.8-.7 7.5-1.3 10.9-2.4 6-1.9 15.8-8.9 21.9-5-10.3 5.4-21.4 8.6-32.8 10.1v1.8c3.3-.4 6.5-1 9.7-1.7 5.7-1.2 11.3-2.6 16.5-5.1 5.2-2.5 8.7-6 14.2-3.1-8.7 7.3-23.2 8.8-33.9 11.4-2.2.5-4.3 1-6.5 1.4v3.8l2.7-.3c10.3-1.2 21-1.6 31.1-4.1 4.6-1.1 9-2.7 13.2-4.8 3.4-1.7 5.3-3.9 9-2.4-9.7 4.7-18.4 9.4-29.2 11.2C21 130 12 130.5 3 131.3v3.2c.4 0 .8-.1 1.2-.1 11.3-1.4 22.6-2.8 33.6-5.3 5.7-1.3 11.2-3 16.8-4.9l6.9-2.4c1.2-.6 2.4-1.3 3.4-2.2l4.4 1.5c-1.4 3.9-6.8 5.1-10.2 6.3-5.7 2.1-11.4 3.9-17.3 5.4-12.1 3.2-24.6 5.2-37 7.2l-1.8.3v1.4c1.5-.2 3-.4 4.5-.7 7.9-1.2 15.7-2.6 23.6-4.3 5.6-1.2 11.3-2.7 17-3.6-3 1.8-6.5 2.6-9.9 2.7-5.4 2.6-11.6 4-17.5 5.3-5.8 1.3-11.7 2.5-17.7 3.5v1.6c5.7-1 11.3-2 17-3.1 11.2-2.2 22.1-5.8 33.1-8.9 5.5-1.5 11.1-2.8 16.6-4.2 4.3-1.1 9.9-6.1 13.6-2.2-11.7 5-23.2 10.2-35.6 13.5-12.7 3.3-25.6 4.5-38.4 6.7-2.1.4-4.1.7-6.2 1v2c2.9-.4 5.7-.8 8.6-1.2 14.4-2.1 28.6-4.6 42.6-8.5 6.7-1.9 13.1-4.5 19.6-7.1 5.6-2.3 12.1-7.9 17.6-2.8-13.3 5.4-26.7 10.5-40.5 14.5-14 4-28.2 5.9-42.5 8.3-1.8.3-3.6.6-5.4.8v2.2c5.7-.9 11.3-1.8 16.9-2.8 14-2.3 27.6-5.2 41-9.8 6.5-2.3 12.8-4.9 19.2-7.3 7.2-2.7 13.2-6.4 20.3-2.3-14.2 7.5-29 15.7-44.5 20.2-16.4 4.7-34.9 3.2-51.8 4-.4 0-.7.1-1.1.1v2.2c6.8-1 15-1.7 15 .6l-15 .7v7.9c4.2-.9 8.5-1.7 12.8-2.5.1 1.2-5.8 3-12.8 4.8v2.7c5.3-2.3 10.8-4.2 17.1-4.5-5.6 2.8-11.4 5.3-17.1 7.7v4.5c3.2-1.3 5.7-2.2 6.8-2.4-2.2 1.5-4.5 2.8-6.8 4.2v2.3c5.5-2.9 10.9-5.9 16.4-8.7-1.6.8-4.2 2.1-4.3 2.2.1-.1 1.3-.6 4.3-2.2 1.8-.9 1.2-.6 0 0 5.7-2.9 11.7-5.2 17.6-7.8.8 1.8-14.1 9.3-16.4 10.7-5.7 3.2-11.5 6.3-17.5 8.9v3c22.7-12.9 45.4-28.2 71-35-3 .8-4.2 1.1-4.3 1.1.1 0 2.6-.7 4.3-1.1 1.6-.4 2.5-.6 0 0 9.5-2.5 19.6-3.1 29.4-4.3 5.3-.6 10.6-1.2 15.9-1.9 3.3-.4 11.1-3.8 13.9-1.3-4 3.1-11.7 2.9-16.5 3.5-6 .8-12 1.5-18 2.2-11.2 1.3-21.9 4.2-32.3 8.7-11 4.7-21.6 10-32.3 15.4-9.5 4.8-20 12.1-31 12.8v3.3c12.5-1.8 25.5-2.3 37.8-1.7 15.4.8 30.5.2 45.9 2 15.6 1.9 31.2 4.2 46.7 7.2 7.7 1.5 15.5 3.6 23.3 4.2 8.1.7 16.8-1.9 24.8-.5-34.5 5.3-68.7-1.3-102.8-6.6-17.3-2.7-34-4.2-51.5-3.8-7.9.2-16.3-.3-24.2 1.1v4.5c12 1.3 24.1 4.5 35.3 8.7 14.5 5.4 29.2 9.7 44 14.1-2.5 1.5-4.7 3.8-7.7 2.8 1.6.5-5.8-2 0 0-12.5-4.2-24.7-8.7-37-13.5-6.2-2.4-12.3-4.7-18.7-6.5-3.2-.9-6.5-1.8-9.7-2.6-1.3-.3-3.9-.6-6.2-1.2v3.8c.4.1.7.2 1.1.3 9.5 2.3 19.1 4.3 28.4 7.6 8.9 3.1 17.6 7.1 26.2 10.9 3.2 1.4 6.2 3.4 9.4 5 4.4 2.2 5.9 2.3 6.5 7.2-22.3-11.8-46.7-25-71.9-30v2.3c11 2.3 21.6 6.4 32.2 10.4 12.9 4.9 24 12.9 36.6 18.1 13.4 5.5 27.9 8.9 42.2 10.6 4.8.6 9.7.9 14.5.6 4.8-.3 9.4-2.5 14.1-2.8 2-.1 1.3 2 .2 2.7-1.7 1-4 1.5-5.8 2-4.6 1.4-9.9 1.7-14.7 1.9-21.4 1.3-40.1-6.2-59.2-14.8-18.1-8.1-34.7-18-53.7-24-2.2-.7-4.3-1.2-6.4-1.7v2.6c5.8 1.4 11.6 3.2 17.7 5.3 13.4 4.7 25.3 12 38 18.2 11.9 5.8 25.8 12.7 39 14.6 15.3 2.2 29.7 2.6 44.8-1.1-11.1 9.9-33.8 8-47.1 4.3 3.1.9 5.9 1.7 0 0-6.6-1.9-3.2-.9 0 0-20.8-5.9-39.9-15.5-59.1-25.1-9.1-4.6-18.3-9.2-27.9-12.8-1.7-.7-3.5-1.3-5.3-1.9v2.3c2.4.7 4.9 1.6 7.4 2.7C20.8 229 31.1 233.7 41 239c9.8 5.2 19.7 9.8 30 13.8 5.6 2.2 11.2 4.3 16.7 6.4 1.6.6 3.3.6 2.6 2.3-3.1-1.1-6.2-2.3-9.3-3.4-21.4-7.8-41.9-17.9-63-26.5-4.9-2-9.9-3.8-15-5.4v2.2c4.6 1.6 9.2 3.4 13.8 5.2 21.4 8.3 42.1 18.4 63.4 27-11-.8-20.1-5.9-30-10.2-10-4.3-20.3-6.7-30.7-9.7 1.6.5 4.6 1.4-.1 0-1.2-.4-.8-.2 0 0-5.6-1.6-11-3.7-16.5-5.9v2c1.2.5 2.3.9 3.5 1.4 5.2 2.2 10.5 3.9 15.8 5.6.5.2 2.4 1.2 3.9 1.8.7.1 1.5.2 2.2.3 0 .5-1 .2-2.2-.3-7.7-1.2-15.6-2.6-23.2-4.5v2.4c5.3 1.2 10.6 2 15.9 3 4.8.9 19.3 2.8 21.9 7.2-3.1-.7-6.2-1.4-9.3-2 3 .7-5.6-1.2 0 0-6.4-1.4-12.8-3-19.3-4.2-2.9-.5-6.1-.8-9.3-1.3v4.4c11.5 1.5 22.7 3.2 33.9 7.1 7.3 2.5 14.6 4.7 21.7 7.6 5.5 2.3 9.5 4.6 15.3 6-4.5.6-10.3-3-14.4-4.5-7.4-2.6-14.9-5.2-22.5-7.3-11.1-3.1-22.5-5.2-34-6.4v1.9c.3 0 .7 0 1 .1 23.8 1.8 46.2 10.8 68.3 19-1 1.6-13.3-1.4-15.5-1.8-5.8-1-11.5-2.3-17.3-3.7-11.1-2.8-22.2-6.6-33.5-8.1-1-.1-2.1-.3-3.1-.4v2.5c8.9 1.4 17.8 3.2 26.7 5.5 7.4 1.9 84 16 83.9 16.4-29.5-.4-58.3-2.8-87.2-9.4-7.8-1.8-15.6-3.6-23.4-5.3v1.7c.9.2 1.9.4 2.8.6 16.2 3.3 32.2 7.6 48.6 10 17.9 2.6 35.1 3.8 53.2 4.1-.1 3.2-45.3.1-50.7-.3-18.3-1.3-36-5.5-53.9-9.2v2c6.9 1.5 13.8 2.9 20.8 4.3 17.8 3.5 35.1 5.4 53.3 5.8 9.8.2 19.7.2 29.5.1 4.5-.1 8.9 0 13.4-.3 4.6-.3 10-2 14.5-.7-7.7 1.2-15.5 1.9-23.1 3.2-1.4.2-5.2.9 0 0-15.8 2.8-32.4-.1-48.3-.9-16.2-.7-31.5-1.2-47.5-4.3-4.2-.8-8.4-1.8-12.6-2.9v4.1l3.3.9c-1 .5-2.1.6-3.3.7v2.3c.7.2 1.4.4 2.2.6H2.7v2.5c7.5.1 15.3-.4 22.4 2.4-7.4-.1-14.9-.3-22.4-.3v2.2c10.7 0 21.3.2 32 .3-.2 2.3-15.7 3.5-32 4.1v1c6.8-.3 13.7-.4 20.5-1 6.2-.6 16.5-4.1 22.4-1.6-11.9 2-23.7 4.4-35.6 6.1-2.4.3-4.9.6-7.3.8v1.6c17.9-.5 36.3-5.1 53.9-8.1.7 3.7-37.6 9-53.9 10.8v2.1c7-.3 14-1 20.9-2.3 11.4-2.3 22.6-5.2 34-7.7 5.1-1.1 10.3-1.5 15.5-2.5 4.2-.8 11.5-4.4 15.7-2.7-20.5 7.2-41.5 14.1-63.1 17-7.6 1-15.2 1.6-22.9 1.9v1.9c6.1-.2 12.3-.5 18.4-1.2 29.5-3.1 56.3-16 85.1-22 .6 2.1-30.1 14.2-34.1 15.5-14 4.5-28.3 8-42.9 9.4-8.8.8-17.6 1.2-26.4 1.4v1.6c11.9-.3 23.6-.6 35.5-2.1 14-1.9 27.8-5.1 40.8-10.7 12.5-5.4 24.9-12 38.3-15.1-8.7 9.2-22.6 16.8-34.4 21.4-13.7 5.3-29.8 8.2-44.3 9.9-11.9 1.4-23.9 1.1-35.8.5v2.4c11.5 0 23.1.3 34.6-.7 11.9-1 23.2-4.3 34.7-6.9 11.2-2.5 20.8-6.9 30.4-13.1 9.4-6.1 20.3-17.5 32.3-17.2-9 6.7-17.7 14.4-27.2 20.4-9.8 6.2-20.7 9.3-31.8 12-24.1 5.9-48.3 11-73 5.9v2.4c8 1 16.1 1.8 24.1 1.7 13.8-.2 27.6-2.7 41-5.8 12.6-2.9 26-6 37.3-12.4 5.5-3.1 10.4-7.1 15.4-10.9 3.6-2.8 10.9-10.7 15.4-10.8-.3.8-.8 1.5-1.3 2.2-.2.1-.3.3-.5.4-1.1 1-1.6 1.5-1.8 1.6l-.1.1.1-.1c.2-.2.9-.8 1.4-1.3-9.1 8.1-17.4 15.4-28.5 20.8-12.4 6-24.8 12.9-38.6 15.3-13.5 2.3-26.3 3.8-40 3.3-2.4-.1-14.1-.8-24-2.1v2.3c.9.1 1.9.3 2.8.4 15.9 2 33.6 3.3 49.4.6 15.6-2.7 30.4-6.6 44.3-14.4 6.8-3.8 13.8-7 20.4-11.3 1.5-1 7.2-6.1 8.2-5-2.5 2.4-4.7 5.1-7.6 7.1.6-.4.9-.6 0 0-4.3 2.9-1.3.9 0 0-22.9 15.6-47.6 27.2-75.7 28.2-13.4.5-28.3.6-41.7-2v.4c32.3 5.2 65.8 5.3 95.1-11.3 8.3-4.7 17-8.8 24.5-14.9 7.9-6.3 14.5-14.1 22.2-20.7 7.3-6.2 14.7-12.3 23.1-17 8.4-4.8 18.8-5.9 28.3-6.7 20.3-1.6 42.8 4.9 62-4.4 2.9-1.4 10.1 1.5 13.1 2 5.1.9 10.3 1.7 15.5 2.3 9.8 1.2 21.1 1.2 29.8 6.6 7 4.4 13.9 13.8 17.9 20.9 5 9 7.2 20.3 4 30.2-1.6 4.9-3.8 7-7.6 10.2-2.1 1.8-8.1-2.4-10.1-3.4-3.1-1.5-7.4-4.8-10.5-1.7-1.3 1.3-1.3 3.2-.5 4.8 1.7 3.5 1.4 3.4.8 7-.4 2.6 2.2 5 2.8 7.6.6 2.7 2.2 3 4.7 3.4 2.1.3 4.3.1 6.4.2 1.5 1 3.1 1.8 4.9 2.3 4.3 1.1 8.4-.7 11.7-3.3 2.7-2.1 2.7-3.5 6.1-2.5 2.3.7 4.7 1 7.1 1 3.6 0 9.1-.6 11.5-3.8 1.3-1.7 1.7-4.2 2.4-6.2 1.1-3.5 1.8-2.2 5.1-2.4 2.1-.1 4.3-.5 6.3-1.3 2.3-.9 3-1.5 3.7-1.4V336c-.8 1.3-2.1 2.3-3.9 2.9.1 0 .1 0 .2-.1h.1c.3-.1.6-.2.8-.3.1 0 .2-.1.3-.1.1 0 .1 0 .2-.1.1 0 .1 0 .2-.1h0s-.1 0-.2.1c-.1 0-.1 0-.2.1-.1 0-.2.1-.3.1-.2.1-.5.2-.8.3h-.1c-.1 0-.1 0-.2.1-5 1.6-9.7 3.4-13.5-1.4.1 6.4 1.1 11.8-6.2 14.3-3.9 1.4-7.5 1.3-11.5.1-2.8-.8-1.7-3.8-3.2-5.6 5.3-2.6 11.1-4.7 15.8-8.2 4.8-3.6 6.3-8.7 9-13.8 2.7-5.2 6.1-10 10.1-14.2 1.1-1.2 2.2-2.3 3.5-3.2v-3.1c-.3.3-.7.6-1.3.9-4.8-9.6-12.9-16.8-20.7-23.9h.1c.5.2.9.4 1.3.6 5 2.4 9.8 5.4 13.8 9.3 2.4 2.4 4.5 5.1 6.2 8 .2.4.4.7.6 1v-8.5c-3.1-3.6-7.1-5.7-11-8.6 3.5.5 7.5 2.8 11 5.7v-2.7l-1.6-1.5c.6.2 1.1.4 1.5.6v-4.3c-2.1-.4-3.5-.7-3.5-.8 1.2.1 2.3.1 3.5.2v-2.1c-9.7-.8-20.4-2.3-28.5-8 1 .7 1.5 1.1 1.7 1.2-.3-.2-1.2-.9-1.7-1.2-4.9-3.4-11-4.9-16-8.2-3.7-2.4-11.1-6.8-12.2-11.2 4.3-.2 7 3 9.9 5.7 3.9 3.5 8 6.7 12.8 8.7 10.4 4.2 21.2 7.2 32.2 9.8.6.1 1.3.3 1.9.4v-2.2c-5.2-1.5-10.4-3.2-15.8-4.2-6.4-1.2-12.6-2.9-18.4-5.8-2.8-1.4-13.7-7.4-12.7-11.2 6.7 1 14 1.6 20.4 3.8 6.8 2.4 12.9 6.1 19.9 8.2l6.6 1.8v-2.2c-5-1.3-10-2.7-15-4.2 3.7-2 9.5-.9 15 1.2V257l-8.1-.6c-11.3-.7-22.9-3.6-33.9-6.1-11.4-2.6-22.7-4.2-34-7.5 2.3.7 1.2.3 0 0-1.1-.3-2.2-.6 0 0-4.5-1.3-9-2.7-13.5-4.1.6-2.2 57.5 11.5 63.3 12.5 8.7 1.5 17.5 2.5 26.3 3.2v-1.7c-14.2-1.3-28.4-4-42.3-7.1-23.3-5-47.5-8.3-69.4-18.1.6.3 2.7 1.2 3.2 1.4h0c-.3-.1-1.2-.5-3.2-1.4-1.6-.7-5.5-2.3-2.8-4.3 1.8-1.4 5.8 1.1 7.5 1.7 6.5 2.4 13.1 4.8 19.9 6.4 12.8 3.1 25.7 6.1 38.6 8.7 12.6 2.5 25.3 4.7 38 6.8 3.5.6 7.1 1.1 10.6 1.6v-1c-12.7-2-25.2-4.8-37.4-7.2-13.3-2.7-26.5-5.8-39.8-8.9-6.8-1.6-13.6-3.1-20.3-4.9-3.4-.9-6.7-2.3-10-3.6-1.6-.7-7.2-5.4-2.3-3.3-.1 0-.1 0 0 0 12.1 5.2 26.5 6.3 39.3 9.2 14.4 3.2 28.9 5.8 43.4 8.4 9 1.6 18 3.1 27 4.7v-1.5c-12.4-2.3-24.8-4.4-37.1-6.6-12.4-2.3-24.7-5.3-37-7.9-11.6-2.4-25.1-3.3-35.5-9.2-.1-.1-.2-.1-.4-.2 1.3-6.3 63.2 9 70.8 10.5 13.1 2.6 26.2 5.4 39.3 8.5v-2c-8.5-1.9-16.9-3.6-25.4-5.4-27-5.8-54-11.7-81.2-16.6 12.9-4.4 28.9 1.4 41.7 4.1 14.6 3.1 29.3 6 43.9 9.3 7 1.6 14 3.3 21 5v-2.1c-32.1-7.1-64-15.1-96.5-20 8.2-1.7 17.7.2 25.8 2.2-1.1-.3-1.7-.4-2.1-.5H310.5 310.8c.5.1 1.3.3 2.1.5 12.5 3 25.3 4.9 37.8 7.8 11 2.6 21.9 5.3 32.9 8v-2.3c-12.5-3-25-6-37.6-8.8-13.7-3.1-27.8-4.9-41.4-8.4.9-5.6 63.9 8.3 79 11.9v-2c-3.2-.8-6.3-1.6-9.5-2.4-31-7-62.1-10.8-93.8-11.2 2.2-2.1 4.8-3.1 7.7-3.5h-.1c-.4.1-.5.1 0 0H288.2c.2 0 .4-.1.7-.1.2 0 .3-.1.5-.1.1 0 .2 0 .4-.1.4-.1.7-.1.7-.1-.1 0-.4.1-.7.1-.1 0-.2 0-.4.1-.1 0-.3 0-.5.1-.2 0-.5.1-.7.1h-.2c15.3-2.4 29.9-.8 45.1 1.9 7.6 1.4 15.4 2.4 23 3.9 8 1.7 15.8 4.8 23.8 6.2 1.2.2 2.5.4 3.7.7v-2.2c-9.4-2.5-19.1-4.7-28.5-6.9-13.3-3-27.2-5.2-40.7-6.8-6.6-.8-13.1-.6-19.6.2l-9.9 1.2c-2.8.3-3.6-1.7-.9-2.6h-.1c.3-.1 2.8-.9 3.7-1.2.1 0 .1 0 .2-.1h0s-.1 0-.2.1c-.5.2-1.6.5-3.6 1.2 26.9-8.9 53.6-.9 79.5 6.7 6.4 1.9 12.8 3.8 19.1 5.9.3.1.7.2 1.1.3v-2.1c-4.4-1.4-8.7-2.8-13.1-4.2-15.4-4.9-30.6-9.1-46.6-11.4-8.5-1.2-16.3-1.4-24.8-.3-3.8.5-7.8.8-11.6 1.8-1.8.4-6.5.7-2.5-1.5-.1 0-.1 0 0 0 .3-.2 2.1-1.2 2.3-1.3-.1.1-.7.4-2.3 1.3 6.2-3.4 13.7-4 20.7-4.6 8.5-.7 17.4-1.2 25.9.4 15.8 2.9 30.9 8.5 45.8 14.4 2.1.8 4.2 1.7 6.4 2.4v-1.9c-2.3-1-4.5-2-6.7-2.8-10.9-4.1-21.9-8.2-33-11.6-10.4-3.2-21.9-4.4-32.7-3.8-4.4.3-6.3.8-10.5 1.5-5.2.9-10.9 2.6-16.2 2.5.3-2.3.7-4.6 1.1-6.9.7-.4 1.2-.6 1.6-.8 9.9-4.6 23.9-4 34.1-2.5 12.6 1.9 24.6 4.1 36.7 8.2-22.7-3.9-50.3-10.3-72.4-.2 3.7 1.1 7.5-.9 11.2-1.4 3.9-.5 7.9-.4 11.8-.6 12.2-.8 23.7-.7 35.7 1.7 10.8 2.1 20.6 6 30.6 10.3 2.9 1.3 5.8 2.5 8.7 3.7v-6.6c-10.3-3.9-27-12.2-29.9-13.6h-.1c-20.8-10.1-45.3-9.8-67.5-5.5-3-13.9 41.2-6.9 48.3-5.5 10.5 2.1 20.4 6.2 29.9 11.1 6.3 3.3 13.1 6.4 19.4 10v-5.9c-.7-.5-1.3-.9-2-1.2-1.2-.7-3.9-.2-3.3-1.9 1.1.6 2.2 1.5 3.4 1.8.4.3 1.1.6 1.9.9v-2.1l-3.5-2.2c1.1-1.3 2.3-2.5 3.5-3.5v-3.1c-.9.7-1.8 1.4-2.7 2.2-3.9 3.3-5.4 3-9.4-.1 3.1-3.9 7.5-6.6 12.1-8.7V162c-2.5 1-3.9 1.7-5.3 2.5zm1.1-44.7c-.8 1.2-1.4 1.6-1.6 1.6-2 1.4-5 2.7-5.8.9l7.4-2.5zM16.6 22.1c.4-1.2 1.3-.9 2.6.8-.5 1.3-1.4 1-2.6-.8zm6.7 4.7c.4-.1.7-.1.9-.1 1.9.1 3.2 1.7 5 2.4 4.1 1.7 7.8 4.4 11.4 7-6.1.5-11.7-7.1-17.3-9.3zm3.1 79.1s.1 0 0 0c.6-.1 3.1-.6 3 .5l-3-.5zM8.8 126.8c-.2-1.1 14.6-4.5 16.6-5.1 1.6-.5 3.4-1 0 0 5.6-1.7 11.5-3.1 16.6-6.2 4.9-2.9 6.3-2.9 11.5-.2-11.1 9.2-30.7 11.4-44.7 11.5zm47.7-5.9c2-.4 3.3-2.8 6.3-2.3-2 2.1-4 2.5-6.3 2.3zm-3.3 10.7c6.5-3 13.2-5.5 19.8-8.5l5.1 2c-8 3.3-16.3 5.7-24.9 6.5zm12.4 25.8c-6.5 1.9-13.6 4.6-20.5 4.7-5.6.1-14.4 1.2-19.5-1.4 15.1-1.3 28.9-2.4 43-8.2 6.8-2.8 13.5-6 20.1-9.4 3.7-1.9 7.3-3.8 10.9-5.8 4-2.2 4.2-1.3 8 1.3-1.6 1.2-3.1 2.7-4.9 3.7 1.7-.9-9.2 5.3 0 0-11.9 6.7-24.1 11.4-37.1 15.1zm30.2-8.1c-.5.1-1.2.2-1.9.3l9.7-6c4.5-2.8 5.5-4.2 10.3-2-5.5 3.7-11.6 6.6-18.1 7.7zm9 .3c-.2-1.7 7.9-5.6 9.6-6.5.1-.1.1 0 0 0 2.9-1.7 9 3.7 11.1 5.4l-20.7 1.1zM75.5 231c-3.6 1.5-6.2.6-10.9-3.5l10.9 3.5zm-19.7 64.5c-11.5-.5-22.4-2.2-33.7-4.5 5.2 1.1.8.2 0 0-.1 0-.1 0 0 0-1.3-.5-2.5-1-3.6-1.8 22.8 3.5 45.7 2.2 68.5 5.5-10.2 2.7-20.8 1.2-31.2.8zm42.3-.8c0-.9.6-.9 1.9-.1 0 .9-.6.9-1.9.1zm12.9-.5c-.1-.6 3-1.9 3.1-.4l-3.1.4zm5.3-1.5L127 291c.2 1.3-10.1 3.5-10.7 1.7zm250.2-15.5c-.2 1.4-2.6.7-2.7-.5l2.7.5zm-73.7-72.4c.1-.5 4.9.3 4.8.7l-4.8-.7zm65.8-22.2l2.3 1.2c-.4 1.1-2.8 0-2.3-1.2zm-8.6-20.1l13.4-6.8c.4.6-11 9.7-13.4 6.8zm11.4-8.4l-15.8 7.9c2.4-3.7 9.8-7.4 15.8-7.9zm-3.4-21.2h.3c1-.1 2.1-.1 2.2-.1-.1 0-.7 0-2.1.1 3.9-.2 22.9-1 23.1 1.1-9.3 1-18.6 2.1-27.8 3.5-8 1.2-15.6 3.2-23 6.6-7.5 3.4-13.8 8.2-22.1 8.1-.8-3.3 19.5-10.7 22.6-12.2 9.1-4.3 16.6-6.5 26.8-7.1-2.5.1-1.4.1 0 0zM223.3 256.4c-.6-.1-1.2-.1-1.9-.3 5.6-1.1 18.1-6.8 21.5-.3-6.4.8-13 1.4-19.6.6zm23.7 3.2c.1.1.1.2.2.3-.4.1-.7.2-1 .3-3.1.7-6.3.9-9.4.7-1.8-.1-12.7-1.4-5.1-2.2 3-.4 13.4-2.9 15.3.9zm-44.8-4.2c5.5-3.1 25.1-6.1 35.6-5.2-11.3 4.4-23.4 4-35.6 5.2zm2.4 4.4l-2.4.8c-.4-1.3 2-2.1 2.4-.8zm-22.6-1c.6-3.8 1.1-3.2 4.9-3.7 1.1-.1 6.3-1.3 6.7-.4l-11.6 4.1zm11.3.2l-12.1 5.5c.7-3.5 11.8-6.6 12.1-5.5zm-4.7-6.1c-.2.1-.2.1 0 0-1.2.2-2.4-.1-3.4-.8 12-2.9 23.8-5.1 34.9-10.8 11.6-5.9 21-14.5 29.9-23.8 8.6-8.9 14.4-18.3 19-29.8 2.4-6 4.5-11.9 4.2-18.4-.2-4.1-2.4-11 3-12.6.3 24.3-5.1 49.4-21.2 68.7-15.7 18.9-43.7 23.5-66.4 27.5zm-31.1-29.8c-.4 0-.5 0 0 0 10.2 0 20.2-4.2 29.7-7.5 10.2-3.5 20.1-7.6 29.5-13.1 9.4-5.5 18.4-11.6 27.2-18 3.4-2.4 6.8-4.9 9.7-7.8 3.1-3.1 4.6-7.3 8.3-9.8-9.5 19.8-28.1 34.1-47.3 44.2-10.3 5.4-20.9 9.7-32.1 13-5.5 1.6-11.6 4.1-17.3 1.7-2-.8-4.1-.6-6 .3-2.9 1.4-5-.8-7.8-2.4 2-.3 4-.6 6.1-.6zm-9.1-5.6c9.7-1.1 19.4-2.1 29.1-3.3 9.6-1.2 18.5-5.5 27.5-8.8-9.2 6.1-20.4 8.8-30.8 12.3-5.6 1.9-23.4 8.6-25.8-.2zm67.1-20.8c-1.3.7-2.7 1.3-4 2-.6-1.3 3.3-3.4 4-2zm10.9-20.3l-.1.1c-.3.3-1.1.9-2.7 2.3-.6.5-.5.4 0 0-2.5 2.1-5.4 3.9-8.3 5.3 4.4-5.4 9.8-10.1 14.7-15 5.2-5.2 9-9.2 16.7-9.2-8.6 5.1-15.5 12.5-23 18.9.7-.6 2.2-1.9 2.7-2.3-.1 0-.1 0 0-.1zm2 3.4c-2.2 2.9-4.7 4.1-9.2 4.4l9.2-4.4zm-10.5-26.2c.5-.1.6-.2 0 0 2.5-.9 4.3.6 6.4 1.7-7.4 3.8-12.7 9-17.5 15.7-4.5 6.3-7.4 17-14 21.1 4.7-15.9 7.6-32.3 25.1-38.5-7.1 2.5-1.6.6 0 0zm-14.4 6.7c-4.6 5.6-7.4 12.1-9.6 19-1.8 5.6-2.4 15.4-7.8 18.8 4.9-10.1 3.4-21.9 8.7-31.7 3.9-7.1 13.2-17.3 22-15.4-4.5 2.9-9.8 5-13.3 9.3zm7.3 30.5c-4.1 3.5-14.1 7.3-20.1 7.4l20.1-7.4zm-12.1.7c-.2.1-.4.2-.5.3 4.4-7.6 7.1-16.2 12.8-23 4-4.8 13.3-14.1 19.9-12.1-5.7 5.5-10.7 11.1-15.5 17.4-4.8 6.4-9.6 13.5-16.7 17.4zm18.4-16.4c-.8 1-.5.6 0 0 3.3-4.1 14.4-21.1 21-16.4-9.2 7.7-16.2 17.9-26.5 24.3 1.8-2.6 3.5-5.4 5.5-7.9zm14 .1c2.8-2.6 5.6-5.4 8.7-7.7-.9.7-1.9 1.4 0 0 1.7-1.3.9-.7 0 0 3.6-2.7 7.5-4.8 11.5-6.9-4 5.2-10.3 9.4-15.4 13.5-1.5 1.1-9.7 5.6-4.8 1.1zm22.6-12.7c.4-.3 2.6-2 2.7-2.1.8-.1 1.5.1 2.3.3-2.4 3.9-6.4 6.1-9.9 8.8-3.8 2.9-7.1 6-12 6.7 6.5-5.3 13.1-10.6 19.6-15.8-1.7 1.3-2.5 1.9-2.7 2.1-.1 0-.1 0 0 0zM212.6 214c12.9-6.3 24.6-14.9 36-23.5-8.1 12.6-21 22.9-34.6 29.1-6.8 3.1-13.8 5.6-20.8 8.2-4.1 1.5-8.2 3-12.5 3.9-3.1.7-4.9 0-7.8 1.2l-1.2-4.1c14.3-3.1 27.9-8.5 40.9-14.8zm-30.1 20.6c-.3.1-.4.2 0 0 15-5 31.8-10.5 44.7-19.8 13.1-9.4 23.2-22.3 31.4-36 2.7 1.7-8.4 17.7-10.3 20.1-5.9 7.4-13.3 13.7-21.1 19-7.8 5.2-16.5 9.5-25 13.5-4.8 2.3-9.7 4.1-14.7 5.7-3.8 1.3-6.5.2-10.3-.8 1.9-.5 3.6-1.1 5.3-1.7zm37.6-9.9c10.6-5.9 20.3-13.2 28.3-22.4 7.6-8.7 11.4-18.9 15.7-29.5 1.7 16-11.8 33.5-23.8 42.4-8 6-16.1 11.8-24.8 16.8-8.5 4.9-17.8 7.9-26.5 12.5l-2.4-4.9c11.9-3.3 22.8-9 33.5-14.9zm50.6-49.7c-3.1 10-6.2 20.3-12.2 29-5.6 8.3-13.1 15.4-20.4 22.2-14.4 13.4-31.8 19.4-50.8 22.8 4.2-6.6 17.4-8.8 24.2-12.4 10.4-5.4 19.9-12.6 29.3-19.5 8.4-6.2 14.8-13.1 19.5-22.5 2.6-5.1 4.4-10.5 5.7-16.1 1-4.6 1-11.9 4-15.8.2 4.2 2 8.2.7 12.3.3-1 .6-1.9 0 0zm-8.1-13.7c1.2-1.7 2-1.9 2.5-.6-1.2 1.7-2 1.9-2.5.6zm-6-2.8c5.5 0 2.9 0 0 0-3.4 0-7.2 0 0 0-13.7 0-27.2-2.7-39.1-9.3 3.2-2.8 9.9.7 13.3 1.6 6.7 1.8 13.4 3 20.3 3.6 6 .6 13.8-1.8 19.7-3 3.6-.8 15.3-5.5 18.4-3.5-10.1 5.6-20.9 10.6-32.6 10.6zM234.9 148c5.7 2 12.4 1.3 17.8 3.3-10.2 1-20.1-1.8-29.7-4.8 1.5-4.6 9.2.5 11.9 1.5zm26.4 1.2c-6.8.7-13.7.4-20.3-1.3-3-.8-6-1.9-8.9-2.9-1.3-.4-2.7-.9-4-1.3-.2-2.1 1.4-2.6 3.5-2.4-1.2-.1 2 .2 0 0 4.6.5 9.1 2.4 13.6 3.2 6.1 1.1 12.2 1.4 18.4 1 12.3-.9 23.9-5.4 35.8-8.4-12.2 5.7-24.5 10.7-38.1 12.1zm-32.4-11.8l1.5-1.8c1 1.3-.4 2.9-1.5 1.8zm93.5-8.2c-10.2 6.6-21 11.9-32.7 15.4 10.4-6.1 21.1-11.5 32.7-15.4zm11.1 6.8c-6.7 3-13.6 6-20.1 9.4-3 1.5-5.8 3.2-8.5 5.2-2.9 2.2-6.5 1.2-9.8 1.5 5.5-5.1 12.8-7.5 19.6-10.5 8.3-3.6 16.3-7.4 25.4-8.3l-6.6 2.7c-1.1.5-.5.3 0 0zm13.4-7.6c-13.7 3.9-26.6 8.4-39.8 13.7 9.7-6.1 20.4-10.6 31.6-12.6-.1-.2 2-.6 8.2-1.1zm-21.5-20c6.2.5 12.3.8 18.5.8 12.5.1 25.1-.8 37.4-3.1-7.8 6.4-22.9 7-32.5 7-12.6 0-24.3-2.5-36.7-5.1.2-1.7 11.1.2 13.3.4zm-.3 7.3c-12.5 4.3-25.4 7.9-38.2 11.5-10.8 3-26.3 8.2-37.5 5.5 10.4-5.4 22.9-9.6 34.1-12.7 12.5-3.5 25.5-3.7 38.4-4.7 0 0 .1 0 0 0 1.1 0 2.2.2 3.2.4zm-18.1-1.6h-.1c-10.7 1-21.8 3.2-31.9 6.7-5.4 1.9-10.6 4-16 5.8-3.4 1.2-12.5 6-15.7 4.6 20.5-15.1 45.6-19.1 70.5-17.7-2.4.3-4.6.4-6.8.6zm-49.7 20.4c12.8-1.4 25.1-3.6 37.3-7.5 11.5-3.8 23.5-8.8 35.8-8.9.2 1.4-37.9 12-42.4 13.4-7.5 2.4-14.8 4.2-22.6 4.9-7.6.7-18.1 3.1-25.2-.6 5.7-.4 11.4-.7 17.1-1.3zm51.5-23.7c-12.3-.1-25.1 1.6-37.1 4.3-10.8 2.5-20.1 8.8-30 13.5 2.6-7.8 13.3-11.6 20.6-14-1.2.4-2 .7.1 0 .1 0 .1 0 .2-.1 3.9-1.3 1.8-.6.1 0 15-4.8 30.7-8.4 46.1-3.7zm-49.4-14.9l-.8-.4c.8-1.4 1.7-5.3 3.5-4.3l-2.7 4.7zm-7.4.8c-.5-3.9-.4-3.6 3.4-4.5 1 1.9-2 3.3-3.4 4.5zm1 2.8c-.5 2-1.2 2.6-2.3 1.6.4-2.5 1.2-3.1 2.3-1.6zm3.9-.6c1.9.9-1.4 5.7-2.2 7.4-1.9-.9 1.5-5.7 2.2-7.4zM255 88.5c1.2-1.4 2-1.4 2.5.1-1.2 1.6-2.1 1.6-2.5-.1zm-5-2.7l1-1 9.1-2.8c-1.8 3.1-7 5.6-10.1 3.8zm36.5-28.6c8.1-5.5 16.1-12 25.8-14.2-7.1 6.4-16.3 11-23.9 16.9-9 7-16.2 16.1-23.7 24.7 1.6-5 5.6-9.4 8.4-13.9 3.4-5.5 8.1-9.9 13.4-13.5-.7.5-1.5 1-1.7 1.2-.1.1-.1 0 0 0 .2-.1.7-.5 1.7-1.2zm-6.8.9c-4.2 4.7-11.4 6.3-17.4 7.1-2.1.3-19.2 1.7-19.3-.3l36.7-6.8zm-34.9 10.4c-.1-.1-.2-.3-.3-.5 4.9-.1 9.8-.1 14.8-.2-3.2 2.7-11.7 4.3-14.5.7zm7.8 4.4c-.8.3-1.7.5-2.5.8-.3-1.6 2.1-2.4 2.5-.8zm21.1-16.6c.1.4.2.7.2 1.1-11.3 1.4-22.4 5.7-34.3 4.8 0-1.1 29.3-4.7 34.1-5.9zm-51.5 3.5l-1.8-2.5 37-.4c-11.4 3.2-23.4 1.9-35.2 2.9zM236 61l-3.7 3.3-1.4-3.2 5.1-.1zm17.9-8.4c4.3-.2-8.2.3 0 0-28 1.2-55.8-8-83.8-8.2-13.3-.1-26.7 1.8-38.8 7.3-5.3 2.4-10.7 4.4-15.2 8.2-4 3.4-5.7 8.3-11.3 5.9 7.4-10.8 20-16 31.7-20.4 14.2-5.4 26.1-7 41.3-5.8 14.9 1.2 29.2 4.4 43.9 6.9 7.9 1.4 15.8 2.6 23.7 3.7 6.4.9 15.4-1.2 21.2 1.7-4.2.2-8.4.5-12.7.7zm9.5-4.5c.1 0 .1 0 0 0 1 .1 1.9.3 2.8.4-15.6 3.1-32.4-2.2-47.7-4.6-16.1-2.5-32-6.7-48.3-7-7.4-.1-15 .3-22.2 2.1-7.8 1.9-15.1 5.8-22.5 8.8-6.6 2.7-12.2 6.6-17.3 11.4-5.6 5.2-6.4 5.2-12.9 1.4 4.7-4.6 9.4-9.8 15-13.2 5.9-3.7 12.8-5.2 19.3-7.6 14.4-5.3 29.1-7 44.4-6 14.7 1 28.3 5.9 42.7 8.2 15.3 2.6 30.9 4.5 46.7 6.1zM97.1 51.2l-.3.3c-.2.1-.3.2-.3.3l.3-.3.3-.3s0-.1 0 0c.1-.1.1-.1 0 0 .2-.2.3-.3.4-.3l.1-.1s.1 0 .1-.1l-.1.1s-.1 0-.1.1c-.1 0-.2.1-.4.3.1-.1.1-.1 0 0 0-.1 0 0 0 0 10.5-8.7 19.9-14.5 33.2-18.3 14.5-4.2 28-5.8 43-6.5 13.7-.6 28.2 5 41.3 8.3 13.9 3.5 28.3 6 41.9 10.5-13.3.8-27.9-2.9-40.9-5.6-14.1-2.9-28.1-6.6-42.5-7.6-14.8-1.1-28.8 1.1-42.8 5.8-6.8 2.3-13.8 3.5-20 7.3-6 3.7-11 8.6-16.1 13.4-.1-2.8.7-5.4 2.9-7.3zm-25 .7c12.8 6.3 25.7 12.5 38.5 18.9-12.8-6.3.2.1 0 0 .2.6.4 1.3.4 1.9-13.5-5.9-26.9-12.3-38.9-20.8zm40.2 24.2c-1.7-.6-3.4-1.3-5.1-1.9.5-1.1 5.6.3 5.1 1.9zm-1.4-7.8c15.4-16.8 39.1-23.5 61.6-22.1 12.8.8 25.6 1.8 38.3 3.5 12.7 1.7 26.4 2.3 38.8 5.3-2.7.3-5.4.8-8.2.8.6 0 .8 0 0 0-4.7-.1-1.4 0 0 0-5.8-.1-11.7-.3-17.5-.7-5.4-.3-9.9-2.9-15.1-1.6-5.5 1.3-11.6.6-17.2.8-5.3.2-11.5.7-16.7-.5-11.6-2.6-24.5-1.1-35.8 2.1-5.4 1.5-10.4 4-15.4 6.6-3.1 1.6-9.5 8.9-12.8 5.8zm93.4-12.4l-3.2 4.1c-1.2-.9-4.1-2.4-3.8-4l7-.1zm-87.5 14.8c4.2-4.9 8.4-6.5 14-8.9 2.5-1.1 4.3-3 6.9-4 3.3-1.2 6.9-1.6 10.3-2.1 14.4-1.9 28.6-.2 42.9.9-2.8 3.1-2.9 2.8-7 1.8-3.1-.8-5.9-.1-9 .1-6.6.4-13.3-.1-19.9.3-13.8.9-25.1 8.7-38.2 11.9zm29.3 25.8c-3.4-.2-19.3-.8-20-4.7-5.3-1.2-11-2.3-16.4-3.4-.2 0-.4-.1-.7-.1l.3-1.2c12.2 3.7 24.4 6.5 36.8 9.4zM130 90.8s.1 0 0 0c.1-.6 3.9 0 3.9.6l-3.9-.6zm8.4 1.6l2.8.6c-.4 1.2-2.4.2-2.8-.6zm24.5 9.3c-13.9.1-27.6-1.3-40.5-7.3 13.3 3.6 26.9 5.2 40.5 7.3zM126 86.6c-.2-.1-.4-.2-.6-.4h.1c1.1.1 2 .3 2.8.4 6.1 1 12 2.3 18.1 3.5 4.9 1 16.2.7 19.6 4-5.8 1.5-13.7-.9-19.4-2-6.5-1.1-14.9-2-20.6-5.5zm28 2.2c2.6.2 5.2.5 8.1.8-3 1.6-3 1.6-8.1-.8zm5.4-4.4c2.2.5-4-.8 0 0-5.7-1.1-11.2-2.3-16.7-4-3.5-1.1-13.3-2.4-15.3-5.6 11.9-1 24.1 3.8 35.7 6.4-.2 2.2-1.4 3.7-3.7 3.2zm-1.7-7.1c1.5.1 1.9.1 1.8.1 2.6.1 5 .1 7.7-.2-2.9 4.6-5.8.3-9.5.1zm-13.3-3.8c0-2.2 7.9-1.5 10.1-1.6 3.1-.1 12.5-2.1 13.5.9 1.5 4.4-20.1 1.1-23.6.7zm19.5-4c.6-.1 1.1-.2 0 0-1.2.2-.6.1 0 0-5.5 1-11.5.3-17.1.2-6.6-.1-13.1 1.3-19.8 1.3 13.2-5.4 27.7-4.6 41.6-6.4-.4 2.8-2.1 4.5-4.7 4.9zm-7.3-5.3l-21.3 1.7c1.3-.8 2.5-1.5 3.5-1.9 9.6-4.4 23.4-5 33.1-3-3.2 3.9-10.5 2.8-15.3 3.2zm-30.3 14.2l-6.1-2.1c.6-1.4 6.7.4 6.1 2.1zm-2.5 1.2c4.7 1.4 9.4 2.7 14 4.1-5-.1-9.7-1.4-14-4.1zM49 49.1c.1 0 .1 0 0 0 8.4 4.2 16.6 8.4 24.5 13.3 2.3 1.4 4.3 3.2 6.5 4.7 4.3.5 7.8 3 11.2 5.4-6.7-1.4-13.2-6.5-19.3-9.6C64.3 59 55.1 55.3 49 49.1zm42.7 32.3c-4.4-1.8-8.2-5.3-12.9-6.6 1-2 6.1 1.8 7.9 2.7l9.8 4.9c-3.2-.1-4.7-.6-4.8-1zm-23.3-15c-.3-.1-.2-.1 0 0C55.5 60.5 43.3 51.7 31 44.5l-9.2-5.4c-6.5-3.8 3.4-.1 5 .7 6.8 3.2 13.3 7 19.7 10.9C72 66 98 78.2 125.5 89.2c-20.6-4.7-38-14-57.1-22.8zm42.8 25.2c-1-.3-5.2-.8-4.8-2.1.8.2 5.2 1 4.8 2.1zm7.5 1.6c-.9.1-2.8.5-2.6-.6.9 0 1.8.2 2.6.6zm25.1 11.6c-9-1-17.6-2.2-24.7-8.4 8 2 15.9 4.7 24.2 5.9 8.2 1.3 16.6 1.1 24.9 1.6-5.9 4.7-17.7 1.6-24.4.9zm5.9-7.7l28.4 1.9c-4.9 2-20.4.8-28.4-1.9zm26.1 0c-.1-1.2 3.5-.9 4.4-1 .2 1.4-3.3.9-4.4 1zm4.1-9.1h3.1c-2 1.2-1.4 1.1-3.1 0zm17.5-3.4c.2 3.3 0 4.6-2.5 6.9-2.6 2.3-7.3 8.3-10.8 8.5 2.4-2.8 5.2-5.4 7.1-8.6 3.3-5.3 2.3-8.8-2.6-12.4 4.3.3 8.5.6 8.8 5.6zm-11.9-2c6.8-3.6 5.1 6.1 2.5 9.2-.2-3.4 1-7-2.5-9.2zm30.2 4.5c1.1 8.8-1.8 17.2-9.2 22.5-6.3 4.5-12.8 9.1-20.3 11.2-8.5 2.3-16.6 3.1-25.4 3.5 1.2-2.9 15.4-5.3 18.6-6.3 6.6-2 13-4.4 18.9-8.1 9.4-6 22-19.8 10.6-30.4-2.4-2.2-5.1-4.1-7.4-6.3 7.6 2.6 13.1 5.1 14.2 13.9zm18.6-16.9c-4.7-.8-9.5-.7-14.2-.5-14.9.5-33.6.9-41.4 16-1.9 3.7-12.7 11.2-14.6 3.7-1.9-7.5 7.1-11.5 12.8-12.7-.6-1-1.4-1.8-2.4-2.3-1.3-.5-2.6.9-3.6-.6-2.5-3.7-.5-8.3 2.6-10.9 2.5-2.1 6.7-3.9 10-2.8 3 1 3.7 6.1 6.8 6 .1-3.2-.7-5.9 2.6-7.5 4.1-2 6.8 2.6 9.3 5.3 2.6-5.1 7.1-11.2 13.7-8.3 2.6 1.1 4.3 3.6 4.8 6.3.3 1.4.9 6.2 3.1 3.7 1.6-1.8 3-3.7 5.7-3.3 1.2 3.2 2.6 6.2 5.7 2.9 3.7-4 3.4 1.2 4.5 3.5 1.2 2.3 4.7 1 6 4.5-3.9.2-7.4-2.3-11.4-3zm20.5 5s0-.1 0 0c-4 3.4-5 3.6-7.4 1.3l7.4-1.3zm-5.7 6.1l4.7-2.6 11.8-6.5v.1c0 .1-.1.2-.1.4-2 6.4-7.4 7.3-13.1 9.7-1.9 1.5-2.9 1.1-3.3-1.1zm1.3 32.3c-.9.2-.5.1.1 0 5-1 9.6-3 14.8-2.4l-18 7.8c.1-2.3.6-4.9 3.1-5.4zm-10.9 9.3c.4-4.1 3.5-6.6 5.5-9.7-.3 4.1-3.8 6.4-5.5 9.7zm5.2 16.4c5.7.6 11.5 0 17.1-.6h.2c12-1.4 23.1-3.9 34.5-7.8 5.7-2 11.5-3.9 17.3-5.5 3.3-.9 15.7-6 18.3-3.6-21.6 6.4-42.2 18.5-64.7 21.5-11.3 1.5-23 .4-33.6-3.6-3.1-1.2-.9-1.9 1.1-1.9 3.3-.2 6.6 1.2 9.8 1.5zm-23.6-.2c5.1-4.5 9.2-10.1 15.4-13.7-2.2 5.6-10.5 12.9-15.4 13.7zm6.3 0c-3.8 5.4-20 12.7-26 11.9 8.7-3.9 17.1-7.8 26-11.9zm-18.1 5.8c-9.5 4.7-19.5 6.8-30.2 5.9 10.1-2 20.1-3.9 30.2-5.9zm-23.6 8.5c.1 1.6-6.8 1.2-8.5 1.2 0-1.5 6.9-1.1 8.5-1.2zm-3.1 3.6c-1.7 1.5-1.7 1.6-3.8 1.6 1.6-1.8 1.6-1.8 3.8-1.6zm-5.9-.3c-3.7 6.7-15.8 10.4-22.4 13.4-9 4-18.2 7.2-27.8 9.4.8-.2 1.7-.4 2.6-.6.3-.1.5-.1.8-.2h.2c.4-.1.8-.2 1.1-.2.2 0 .3-.1.4-.1H131.6c-.1 0-.3.1-.4.1-.3.1-.7.2-1.1.2h-.2c-.2.1-.5.1-.8.2-.7.2-1.6.4-2.6.6h-.2c-3.7.9-24.2 6.3-25.1 4.2 13.7-3.6 27.4-7 40.7-11.8 6.2-2.2 12.5-4.5 18.4-7.5 5.1-2.7 10.2-8.4 16.4-7.7zM142 177.6c4.7-2.2 9.4-4.4 14.2-6.7 4.4-2.1 10.4-6.3 15.3-6.7-5.6 4-4.4 3.1-2.6 1.7-8.3 5.4-17.5 8.9-26.9 11.7zm6.8-11.1c4.9-3 11.6-10.1 17.6-9-3.5 4.3-8.9 6.9-14.2 8.3-.7.2-1.7.4-3.4.7zm9.5-13l11.7.6c-4 1.2-7.9 1.7-11.7-.6zm1.2 3.2l-1.6 1.6c-7.2 6.8-18.9 11.1-28 13.9-6.4 2-12.9 3.4-19.4 4.9-3.9.9-14.4 5.4-18 3.5 11.3-4.9 23.8-6.7 35.4-10.8 5.6-2 11.1-4.3 16.4-6.9 4.7-2.3 10-6 15.2-6.2zm-68 22.1c-.1 0-.1.1-.2.1-4 1.6-7.8 3.4-11.8 4.7 7.6-5.8 17.1-9.3 26.2-12.4 10.6-3.6 21.6-7.9 32.6-10.2 5.5-1.2 8.4-1.1 1.5 2-5.5 2.4-11.1 4.7-16.9 6.4-10.5 3.2-21 5.3-31.4 9.4zm57.5-23.2c-4.4 1.7-8.8 4.4-13.8 3.4 5.1 1 0 0 0 0-1.7.6-3.5 2.1-5.5 2.7-6.1 1.9-12.2 3.6-18.3 5.4-8.7 2.7-18.2 5.3-25.6 10.5-1.6-2.5 25.1-12.5 28.2-13.4 6.1-1.9 12.4-3.1 18.6-4.6 4.9-1.1 11.3-5.6 16.4-4zm-15.6-2.4c1.7-.9 2.9-2.6 4.1-.6-1.3.5-3.4 2.2-4.1.6zm7.6.5s.5-.2 2.1-.5c.5 1.5-13.1 6-13.9 4.5 3.9-1.2 7.8-2.9 11.8-4zm-77.3 14.8c8.7-3.6 18.6-7.8 28.3-9.1-2.4-.3-1.8-.9 8-.4-10.8 3.5-21.9 6.1-32.4 10.4-5.6 2.3-11.2 4.8-16.7 7.4-5.2 2.5-10.7 6-16.5 7 8.3-6.8 19.5-11.2 29.3-15.3zm-48.2 23.9c6.3-2.1 12.6-4.1 18.8-6.4 15.6-5.8 29.9-14.7 45.9-19.4 7.9-2.3 16-4.8 24-6.8 5.9-1.5 16.6-5.8 22.4-4-19.1 5.1-37.6 10.3-55.9 17.9-8.9 3.7-17.7 7.5-26.6 11-4.8 1.9-9.6 3.5-14.6 5-4 1.3-9.8 4.3-14 2.7zm14.6-.5c9.3-3.2 18.6-6.7 27.7-10.4 10.1-4.1 21.1-11.1 31.7-13.1.5 1.3-11.1 8.3-12.8 9.4-5.3 3.5-11 6.4-16.8 8.7 1.8-.7 3.6-1.5 0 0-3.8 1.5-1.9.8-.1 0-8.9 3.6-20.1 7.4-29.7 5.4zm40.8-7.6c-2.1 3-4.1 8.3-7.9 8.4l-14.1.2 22-8.6zm14.4 9.8c-3 .9-6.3-.1-9.2-.8 8.7-4.8 22.1-7 32.3-6.8h1.5L91 191.3c-2.3.6-3.6 2.2-5.7 2.8zm10.2 1.8c-1.9-.4-5.4.3-5.4-2 2.4-.8 4.8-1.4 7.2-2.1 5.7-1.5 11.4-2.6 17.2-3.8 10.7-2.1 21.4-4.2 31.6-8-6.2 6.3-19 6.9-27.2 9.1-4.1 1.1-8.7 2.3-12.6 4.2-1.7.8-2.4 2.6-4.3 3.2-2 .6-4.3-.2-6.5-.6zm9.7 1c4.1-4.2 12.4-6.2 18.2-6.9.2 0 .5-.1.7-.1-5.4 3.3-12.3 10-18.9 7zm9.9 1.4c7.5-6.3 17.3-8.6 25.9-13 1.1 2.1-10 5.9-12.1 6.9-3.1 1.4-10.8 9-13.8 6.1zm6.8.8c10.1-7.1 21.9-11 32.8-18-4.2 7.7-24.7 18.9-32.8 18zm7.5 1.8c3.2-1.6 6.5-3.1 9.6-4.8 9.3-5.3 17.2-12.3 25.2-19.4 2.1 2.3-11.4 16.3-13.7 18.3-6.3 5.3-12.8 9.9-21.1 5.9zm13.8 2.8c3.4-2.9 6.6-6.1 10.2-8.8-.5.3-.9.7-1 .7.1 0 .3-.2 1-.7 5.7-4.3 9.5-11.7 13.4-17.5 4.6-6.8 10.1-13.7 16.8-18.4 1.1 1.3-6.4 8.9-7.5 10.5-3.7 5.2-5.1 11.3-8.6 16.5-2.9 4.5-5.7 9-9.1 13.2-4.4 5.7-8.6 5.9-15.2 4.5zm13 2.1c-.6-1.5 3.5-4.1 4.5-5.4 9.4-11.9 13-28.3 25.2-37.8-5 7.8-8.7 15.8-13 23.9-3.8 7.2-8.7 16.5-16.7 19.3zm7.2-.8c6.2-7 10.6-15.3 14.6-23.7 3.7-7.8 7.2-15.7 14.3-21-2.3 3.9-5.2 7.9-6.8 12.1-1.9 4.8-3.2 9.8-5.3 14.5-2 4.5-4.5 8.8-7.8 12.5-1.4 1.6-3 3.1-4.7 4.4-.1 0-5.8 2.8-4.3 1.2zm7.9-.5c6.9-6.9 11.2-15.8 14-25 0-.1.1-.3.1-.3v-.2c0-.1 0-.1 0 0v.2c0 .1-.1.2-.1.3 1.1-3.6 2.8-8.6 5.6-11.3-2.8 12.8-3.3 33.8-19.6 36.3zm8.7.6c9.2-3.5 18.6-6.6 27.6-10.6s17.6-9 26.4-13.5c-.2 3.4-6.8 6.2-9.2 7.7-5 3-10.4 5.5-15.7 7.9-8.8 3.8-19.2 9.2-29.1 8.5zm-29.8 7c3.7 0 7.3 0 11-.1 7.3-.2 14.7-.7 22-1.6-1.5.4-2.8.7-3.9 1-4.5 1.1-9.1 1.9-13.7 2.4-5.3.6-14.6 2.4-19.6 0-4.9-2.3 2.7-1.7 4.2-1.7zM10.1 200c5.8-.5 11.6-.6 17.4-.7 20.4-.2 40.5 2.2 60.6 5.3 10.3 1.6 20.5 3.2 30.8 4.9 1.9.3 3.6.7 5.5 1.1.2 1.7-2.2 2.1-3.7 1.9-5.7-.9-11.4-2.1-17.2-3.2-20.1-3.8-39.9-6.7-60.4-7.5-10-.4-19.9-.2-29.9-.1-4.7 0-12.4-.9-3.1-1.7zm69.2 22.6c-12.5-2.7-24.5-7-36.3-11.7-1.3-.5-4-1.6-8.7-3.6 11 1.7 22 4.3 32.8 6.8 5.6 1.3 11.1 2.8 16.8 3.9 2.9.6 14 3 15.6.4-2-2.2-10.6-1.5-13.6-2.1-6.9-1.4-13.9-2.9-20.8-4.4-13-2.9-26-5.9-39.2-7.9 28.5-1.5 56.9 2.6 84.5 9.4-3.9 2-9 3.6-10.6 8.2-.4 1.2-.6 2.4-.5 3.6-2.6-.1-5.1-.3-7.7-.6-4-.5-8.2-1.2-12.3-2zm-3 13.1c.2-2.4 1.9-3.3 4.1-3 .9-2.5.5-3.1 3.2-4.2 6.2-2.6 11.9-.6 18.3-.9-2.2-12.5 15.4-14.5 21.6-6.2.3-10 8.6-11.3 17.3-8.4 3.5 1.2 6 4.8 6.8 8.3.2.8-.3 9.8 2.3 6.9 3.4-3.8 3.3 1.1 3.2 3.8 2.3 1.2 5-3 7.1-3.8 3.5-1.3 8.1 0 10.1 3.2 1.9 3.1.3 6.5-.5 9.7 4.3-.8 16.4-5.7 16.5 3.2.2 11-12.8 3.1-17.4.1.5.3.6.4-.3-.2-10.3-6.7-21.3-12.3-33.5-14.8-11.5-2.3-26.8-2.7-36.5 4.8-3.8 2.9-6.2 6.6-11.2 7.4-4.4.8-11.6.1-11.1-5.9zm95 13.6c7 2.8-.2 12.1-4.3 14.5l4.3-14.5zm-5.6 9.9l1.1-13c2.6 3.7 2.2 9.2-1.1 13zm-10.1 10.1c3.3-3.6 5.2-8.2 5.9-13 .6-4.4.2-9 0-13.4 11.3 7.5-4.6 29.9-13.8 32.8 1.8-2.6 5.7-4 7.9-6.4zm-17.5 7.3c6.7-3.8 13.5-7.4 18.2-13.8-3.4 8.2-10.6 11.2-18.2 13.8zm19.5-35.1c3 5.2 2.9 10.6 1.5 16.1l-1.5-16.1zm-30.5-6.9c2.7 1.2 5.4 2.1 8.2 3.1-.4 2.5-7.9 1.9-10.3 1.9-8.5.3-17.1-.2-25.5-2 3.4-8.7 21-5.9 27.6-3-4.9-2.2-1.4-.6 0 0zm11.1 6.8c-.1 0-.1 0 0 0l-3 .3c-.1-.8 2.8-1.6 3-.3zm-21.9 1.3c-6.8.6-13.8.5-20.4-1.6 3.6-1.6 7.4-.4 11.1-.1h.1c2.3.2 4.7.3 7 .4 1.9.1 8.6.8 2.2 1.3zm19 5.9c-6.9 1.6-14.9 1.3-21.8.5-4.3-.5-8.6-1.4-12.9-2.3-3.3-.7-7.6-.6-10.3-2.8 2.2-2.6 6.9 0 9.6.4 4.1.6 8.3.6 12.4.4h.5c1.4-.1 2-.1 2.1-.1-.2 0-1.1 0-2 .1 8-.3 16-.6 24.1-1 9.2-.4 4.7 3.3-1.7 4.8zm-11.3-18c10 1.5 16.9 4.4 22.9 12.9-1-1.4-3.5-4.9 0 0 .6.8.4.6 0 0 6.9 9.8-4.8 18.7-12.1 22.8-6.6 3.7-13 5.1-19.7 5.7-.7.1-1.4.2-2 .3h-1c-2.5.2-5 .3-7.6.4 2.6-1.8 5-.6 7.6-.4 1-.1 2-.1 3-.2 2-.4 4.4-1.1 6.1-1.6 7.1-1.9 13.8-5.4 19.2-10.4 15.9-14.5-3.9-24-16.4-29.5zm-20.3 37.6c4.4-.3 8.5 0 12.9.3h-.1c-.2.1-.4.2-.6.2-.1 0-.1 0-.2.1-.1 0-.2.1-.3.1-3.8 1.1-7.9.3-11.7-.7zm-64-12.3l2.7.4c-.2 1.4-2.9.9-2.7-.4zm21 6.6c-4.9-.5-9.1-3.1-14.5-4.5 6-.4 10.1 2.6 14.5 4.5zm19.3 3.4c-6.8-1.2-12.9-3.6-19.3-6.2.5.2 1.4.6 1.6.6-.1 0-.6-.2-1.7-.7-.3-.1-.2-.1 0 0-2-.8-1-2.8-1.8-3.3-1.6-.8-5.1-.7-7-1.4-6.5-2.5-13-5.1-19.5-7.9 10 .4 19.6 6.2 28.5 10.1 11.8 5.2 24.3 7.5 36.8 10.4-4.8 1.7-12.7-.7-17.6-1.6zm20.9-3.1c-2.8.9-5.5-.2-7.8-1.6 11.8 2.4 23 3 35.1 2.7-8.6 2.3-17 2.8-25.6.2.3.1 2.4.7 2.6.8-.1 0-.8-.2-2.6-.8-1.5-.5-.8-1.2-1.7-1.3zm.7 11.9c6.9 0 14.7 1.1 21.4-.9 2.7-.8 3.5-.4 6-.4-.2-2.2 5.1-4.1 6.5-4.9 6.2-3.7 12.8-7.2 14.8-14.6 2-7.6-2.6-12.7-6.5-18.9 11.9 1 10.3 18.1 5.5 25.5 3.5-5.2-3 4.6 0 0-9 13.5-33.3 18.4-47.7 14.2zm28.9.6c16.2-5.3 26.9-16.4 24-34.3 2.5 8.8 4 16.5-2.9 23.8-3.8 4-15.3 12.1-21.1 10.5zm15.4 16.4c.7-2.5 1.4-3.1 5.6-4.3-1.8 1.4-3.6 2.8-5.6 4.3zm34.2-35.7c-.2 1.3-.3 1.8-.3 1.9 0-.1.2-1.2.3-1.9-3.1 18.6-25.9 27.7-42.7 27.6 18-4.8 33-13.6 39.7-31.7 2.2.8 3.4 1.6 3 4.1.1-.5.1-.8 0 0zm.9 12.8c3.2-4.1 10.6-7.4 15.2-7.1-5.3 2.5-10.2 4.8-15.2 7.1zm21.1-6.3c-4.9 1.3 9.9-2.7 0 0 8.8-2.4 17.9-1.9 26.9-.8 4.5.5 9 1.3 13.5.9 3.6-.3 7.1-1.8 10.1 1.1-21.5 2.9-42.8.8-64.1 5 3.8-3.5 8.8-4.9 13.6-6.2zm48.7 6.2c-1.7.4-2.4.6-2.6.7.2-.1 1.8-.5 2.6-.7-9.5 2.4-19.1 2.5-28.8 1.9-5.1-.3-10.1-.4-15.2-.4-2.7 0-12 1.6-13.8-.6 11-1.8 21.3-3.3 32.4-2.3 3.9.3 30.8-3.4 31.4-.9-2 .8-3.9 1.8-6 2.3.3-.1.4-.1 0 0zm11.2-5c.4.3 1.2 1 0 0-3.5-2.9-8-4-11.2-7.4-3.5-3.8-7.2-6.9-11.2-10.2 2.7-3.1 11.5 7.8 13.7 9.8 4.5 4.1 10.1 6.4 15.3 9.3-2.2.1-4.7.1-6.6-1.5zm5.5-1.4c6.6 2.7-4.6-2 0 0-9.4-4-16.6-11.7-23.9-18.5 3.8.6 6.1 4.1 9.1 6.6 3.4 2.8 7.2 5.2 11 7.4 8.1 4.4 16.7 6.3 25.1 9.7-7.2-.7-14.5-2.3-21.3-5.2zm32.4 5.8c-10.3-2.9-20.8-5.7-30.7-10-4-1.7-7.8-4-11.4-6.6-2.8-2.1-9.7-6.4-10-10 8.3 4.2 15.2 10.3 24 13.9 3.7 1.4 29.2 10.1 28.1 12.7zM251 240.2l4.6-3.6c9.8 9.1 20.9 16.7 32.8 22.7-13-2.9-27.9-9.6-37.4-19.1zm12.6.8c.3.5-1.2-.6-6.4-5.9 1.5-1.6 3-3.2 4.7-4.6 2.8-2.4 4.2.5 6.5 2.7 4 3.8 8.6 6.9 13.3 9.7 11 6.6 22.4 12.8 33.6 19 18.7 10.5 41.2 25.5 39.2 49.8-.1 1.4-1 4.4-2.6 3.6.3-3 .2-6-.2-9-.9-5.8-3.3-11.3-6.8-16.1-6.8-9.5-15.4-17.6-26-22.5-11.7-5.5-22.4-12.9-33.3-19.9-4.6-2.9-9.2-5.9-14-8.4-4.3-2.2-6.2-5.6-9.9-8.4 1.7 8.5 13.9 12.8 20.5 16.9 8.7 5.3 17 11.2 25.5 16.8-15.4-3.9-31.6-13-44.1-23.7zm82.1 70.3c-.8-5.5-2.9-10.7-4.8-15.9 2.8 7.6.2.5 0 0-1.6-4.2-5.2-6.5-8.7-10.2-1.8-1.9-3.3-3.1-3.8-5.5-.5-.3-1-.5-1.4-.8-1.1.2-2.3.8-2-.8.6.2 1.3.5 2 .8.5-.1 1-.1 1.3.3 0 .2.1.3.1.5 5.3 2.9 11.9 8.7 12.3 13.3 6.2 9.7 7.7 18.5 5.9 29.7-1.9-3.2-.3-7.6-.9-11.4zm-31.1-42.5c5.2.6 9.1 3.6 12.7 7.1-4.9-1.2-8.4-4.8-12.7-7.1zm-4.2 1.3c-2.1-.2-2.8-.8-2.1-1.9 1 .5 3 .7 2.1 1.9zm8 4.9l-4-2.5c1.2-1.6 5.1.9 4 2.5zm2.2 4.5c.2 0 .4 0 .6.1 6.3 1 14.4 10.1 16.9 15.2 4.8 9.6 7.6 20.3 3.8 30.7 1.4-18.4-8.4-33.6-21.3-46zm21.1 73.1c-2 4.5-7 5.9-11.5 5.3 1.6.2 6.5 1 0 0-.6-.1-.5-.1 0 0-2.6-.4-3.7-2.5-4.7-4.6-2.6 1.4-5.1 2.1-8.1 2-4-.1-.1-3.6 1.3-4.3-1.8-1-5.9-1.8-5.7-4.4.2-2.1 3.5-2.5 5-4-1.9-.7-4.2-1.2-5.6-2.9-2.6-3.3.7-5 3.6-3.4 3.1 1.7 6.1 3.6 9.1 5.4 2.4 1.5 5.5.9 8.4 1.6 2.9.7 5.6 1.5 8.6 1.3.7 2.6.7 5.5-.4 8zm1.9-10.6c3.2-3.4 6.2-7 9.7-10.1-2 1.8-.8.7 0 0 3.7-3.2 5.8-8.2 7.1-12.8 2-6.8.3-12.1.5-18.9 7.6 12.2 3.1 46-17.3 41.8zm25.4-23c.1-.1.1-.1 0 0 .1-.1.1-.1 0 0 0 .2-.1 1 0 .4-.2 2.5-1.6 4.4-2.8 6.4-.3-8.7.4-17.5-1.6-26 3.8 6.4 4.9 12.2 4.5 19.6-.1-.3-.1-.4-.1-.4zm9.1-16.2c1.2 2.9 1.5 3.4-.1 6.1-1.4-3.3-2.9-6.7-4.3-10 2-1.3 3.8 2.4 4.4 3.9zm-5.8-1.7c2.8 6.3 4.2 9.3-.4 14.8-.6-11-6.4-20.4-12.2-29.4.2.1.4.2.6.4 5.7 3.2 9.3 8.3 12 14.2zm-49.8-50.4c5.4 5.6 10.9 11.1 17.8 14.8 2.7 1.5 21.2 8.5 20.4 11-8.8-1.9-17.2-7.4-25-11.9-7.7-4.5-14.1-9.2-19.5-16.3 2.5-.2 4.6.5 6.3 2.4-.6-.7-.3-.4 0 0zm-11.6-3.2c1.7-1.8 5.8 4.2 0 0zm2.4 5.8l-18.4-11.1c8.4.5 13.2 6 18.4 11.1zM289.4 242c6.1 3.7 12.7 6.4 18.6 10.5 12.1 8.5 26.6 13.9 37.4 24.2 9.3 8.9 14.7 22 14.2 34.9-.3 7.5-3.8 14.6-8.9 19.9-4.1 4.2-9.9 12.9-16.6 9.5-.1-.1-.2-.1-.3-.2 8.5-7.7 21.9-17 23.1-29.5 1.3-13.9-5.4-23.2-14.6-32.8-9.6-10-21.1-16.2-33.1-22.9-6.8-3.8-13.6-7.4-20.6-10.9-4.4-2.2-11.8-6.2-15-10.1 2.3 1.1 4.8 1.4 7.2 2.1 3.5 1 5.7 3.5 8.6 5.3zm-12.4-8.8l-12.3-5 1.1-1.6c1.4.7 11.5 5.5 11.2 6.6zm5.4-51c-1 8.8-3.4 17.6-7.2 25.6-2.2 4.6-5 8.9-7.7 13.2-1 1.6-3 2.3-4.5 3.4.7 1.7-.8 3.2-2 4.1.8-.6.3-.2-.1.1-6.3 5-11.4 10.4-18.9 13.8-7 3.2-14.8 5.9-22.4 6.5 15.7-5.7 31.6-13.4 41.2-27.6 9.2-13.7 17.3-32.4 18.2-49.1.2-4-.9-8-.3-11.9.4-2.5 2.9-8.6 2.9-2.7 0 3.5 1.3 7 1.4 10.6.1 4.6-.1 9.3-.6 14zm1.2-29l10.9-5.2c-4.7 4.5-7 5.7-10.9 5.2zm8.3 20c-4.5.7 21.3-3.2 0 0 20.9-3.2 42.5-1.7 61.6 8-6-.9-11.7-3.2-17.7-4.3-5.9-1-11.9-1.8-17.8-2.5-11.6-1.4-21.8.3-33.2 2.5 1.3-2.6 4.4-3.2 7.1-3.7zm49.3-6.7c-18.1-2.8-38.7-8.4-56.3-.8v-6.5c2.4-.3 4.8-.5 7.2-.8 5.5-.5 11-.7 16.6-.5 9.2.4 18.2 2.2 26.6 5.7-3.6-1.8-5.5-3.1 5.9 2.9zm-15.3-8.2c-6.6-1.8-13.3-2.3-20.1-2.3-2.6 0-17.5 1.6-18.5-.3 7.6-1.4 15.4-1.5 23.2-1.2H309.1h4.3H310.5c10 .4 19.7 2.9 29 6.6 8.5 3.4 18.9 6.6 25.9 12.6-13-5-25.9-11.7-39.5-15.4zm47.3 18.7c-.7 1.3-2.9.1-2.6-1.3 1 0 1.9.4 2.6 1.3zM114.8 244.7c.1 0 .1 0 0 0zM132.6 300zM69.7 159.4zM336.2 156.1c-.1 0-.1 0 0 0z"/><path d="M343.6 155.1c.1-.1.3-.1.4-.2-.2.1-.3.2-.4.2zM344.3 154.8c.1 0 .2-.1.2-.1-.1 0-.2.1-.2.1zM358 261.7c-4.3-2.4-8.7-6.4-13.7-6.9 7.5 9.4 24.8 12.8 35.9 14.6.9.1 1.9.3 2.8.4v-1.7c-2.8-.6-5.6-1.2-8.3-1.8-5.3-1.1-12-1.9-16.7-4.6zM287.1 193.6zM226.4 176.4zM287.3 199.1h0zM287.3 199.1c-.5.1-.4.1 0 0zM378.2 339.3c-.1 0-.2.1-.2.1.1-.1.2-.1.2-.1zM379.3 338.9c-.1 0-.1 0-.2.1.1 0 .1-.1.2-.1zM326.9 279c.5.2.9.5 1.4.8 0-.2-.1-.3-.1-.5-.3-.4-.8-.4-1.3-.3zM379 339c-.3.1-.6.2-.8.3.2-.1.5-.2.8-.3zM379.1 339h-.1.1zM3 291.1v.4c.8.1 1.6.2 2.2.2-.7-.2-1.5-.4-2.2-.6zM257.2 235.1c2 2 4.1 4 6.4 5.9-.5-.9-5.7-6.6-6.4-5.9zM120.5 315.7zM250.8 268.7h-.1zM248.1 269.4zM267.5 262.3c-4.6-2 6.6 2.7 0 0zM299.9 268.1c.2-.4-3.2-.9 0 0zM262 263.7c-.1-.1-.2-.2 0 0zM134.5 298.3c.1-.1.3-.3.5-.4-.1.1-.5.4-.9.8l.4-.4zM132.6 300.1c-.1 0-.1 0 0 0zM179.8 257.9zM180.1 256zM202.1 262.5c9.9-2.7-4.9 1.3 0 0zM22.1 291c.7.1 5.2 1.1 0 0zM25.5 121.8c-1.4.4-2.6.7 0 0zM25.5 121.8c3.4-1 1.6-.5 0 0zM72.9 123.1c-4.6 2.1 1 .3 0 0zM111.3 291.3c-5.1.9-1.4.2 0 0zM111.4 291.3s0-.1 0 0c0-.1 0 0 0 0zM111.3 291.3c.1 0 .1 0 0 0 .1 0 0 0 0 0zM100 294.6c-.6 0 0 .1 0 0zM114.1 293.8c0-.2-1.1.2 0 0zM111.4 291.2c.5 0 .7-.1 0 0 0 .1 0 0 0 0zM3 159.2h1.1c5.9-.4 1.8-.2-1.1 0zM19.4 178.4zM23.3 26.8zM145.6 102.7zM142.4 102.2c-.3 0-.6-.1-.8-.1.2 0 .5 0 .8.1zM141.6 102.1h-.2c0-.1.1-.1.2 0zM143.1 102.3c-.2 0-.4-.1-.7-.1.2 0 .5.1.7.1zM143.3 102.3h-.2.2zM143.3 102.3h0zM143.5 102.4c.7.1 1.2.2 1.5.2-.3-.1-.9-.2-1.5-.2zM143.3 102.3zM141.4 102h-.1.1zM138.4 92.4c.1.3 1.1.2 0 0zM185.7 153.4c-2.8.2 0 .3 0 0zM130.1 90.8s-.1 0 0 0c1.2.2 0-.2 0 0zM185.7 153.4zM162.9 101.7zM141.1 102c-.2 0-.3-.1 0 0zM141.2 102h-.2.2zM185.7 153.4zM162.1 89.5zM159.4 84.4c-4-.8 2.2.5 0 0zM184.3 182.8s0-.1.1-.2c-.1.1-.1.1-.1.2zM184.3 182.8v0zM185.3 179.5c-.5 1.7-.8 2.6-.9 3.1.2-.7.6-2.2.9-3.1zM184.3 182.9c-.1.1-.1.1 0 0zM157.7 77.3c.8.1 1.6.1 1.8.1-.6 0-1.2-.1-1.8-.1zM144.4 73.5c7.8.8 0-.3 0 0z"/><path d="M159.5 77.4c.2 0-.2 0-1.8-.1.6 0 1.2.1 1.8.1zM180.2 96c-1.4.2.1.3 0 0zM160.6 200.4c-1.3 1.8 4.8-6.1 0 0zM145.1 102.6c.1 0 .2 0 .3.1-.1-.1-.2-.1-.3-.1zM185.4 179.1v-.2.2zM259.4 95.9c.9-1.6-.3-.1 0 0zM145.4 102.6h.2c-.1.1-.1.1-.2 0zM128.2 86.6c-.9-.1-1.8-.3-2.8-.4h-.1c.2.1.4.3.6.4 4.9 2.8 11 1.6 2.3 0zM163.4 205c-.1.1 4.7-5.2 0 0zM105.6 108.6c-14-7.2-.1.5 0 0zM81.2 104.8c0-.1-.2-.1-.3-.2 0 .1.1.1.3.2zM209 79.4c1.8 1.8.8.8 0 0zM207.7 194.5c4.4-2 2.2-1 0 0zM250.4 113.6c.1 0 .1-.1 0 0 .1-.1.1-.1 0 0zM250.5 113.5c2.8-.5 1.1-.2 0 0 .1 0 .1 0 0 0zM262.5 114.6h-.1c.1 0 .3-.1.4-.1h-.1c-.1.1-.2.1-.2.1z"/><path d="M250.4 113.6c.1-.1.1-.1 0 0h.1c-.6.1-1 .1-.1 0zM118.7 93.2zM261.8 138.7h.2c-.1-.1-.1-.1-.2 0zM106.4 89.4c0 .2 1.7.6 0 0zM185.5 82.6c3.7 2.4 2.5-1.2 0 0zM261.8 138.7c-4 .4-2 .2 0 0zM209 79.4zM118.7 93.2c-.2-.1-.1 0 0 0zM109 88.3c.2 0 .5.1.7.1 4.4.9-.6-.5-.7-.1zM118.7 93.2zM191.3 91.4c-2 3.1 4.1-6.7 0 0zM209 79.4c-.6-.5-1-.8 0 0zM262 138.6c2-.2 3.8-.4 0 0 .1 0 0 0 0 0zM239.5 122.9zM179.9 88c1.1.7 1.6 0 0 0zM272.9 216.6c.1.1.3.1.4.2.9.4-.3-.6-.4-.2zM141 185.3c-8.6 4.4.1.3 0 0zM207.7 194.5c-.1 0-.1 0 0 0-.1 0-.1 0 0 0zM124.1 189.9c-.2 0-.5 0-.7.1-5.7.7-2.8 2 .7-.1zM124.1 189.9zM146.2 180.1c-18.1 6.6-2.4 2.4 0 0zM265.8 226.6c-.3.5 3.9 2.1 0 0zM139 196.1zM139 196.1c.2-.1.4-.3.6-.3-.1 0-.3.1-.6.3zM152.4 195.7zM273.2 219.6s.1 0 0 0c.1 0 0 0 0 0zM138.2 196.5c0 .1 0 .1 0 0zM138.2 196.5s.1 0 .1-.1c0 .1-.1.1-.1.1zM138.3 196.5c.1 0 .1-.1.2-.1-.1 0-.1 0-.2.1zM139 196.1s-.1 0-.1.1c0-.1 0-.1.1-.1zM138.9 196.2c-.1.1-.3.2-.4.2.1-.1.2-.2.4-.2zM139.6 195.7c.4-.2.3-.1 0 0zM139 196.1zM109.8 186.6h-1.5c-6.4-.1-4.6 1.5 1.5 0zM157.9 158.3c.6-.5 1.1-1.1 1.6-1.6-1.1.1-2.9 2.7-1.6 1.6zM159.5 156.7zM158.3 153.5zM159.5 156.7zM274.4 229zM91.3 178.9c.1 0 .1 0 0 0-.7.3-1 .4 0 0zM92.1 159.3c1.9.3 5.6.3 8-.4-2.7-.1-5.4.1-8 .4zM271.2 227.6c-.1-.1-.2-.1 0 0zM34.3 186c-6.2 2.4 4.8-1.7 0 0zM91.5 178.8c5.2-2 1.8-.7 0 0zM91.4 178.9s.1 0 .1-.1c0 0-.1 0-.1.1zM135.2 159s5.1 1 0 0zM124.1 189.9zM193.3 259c0-.2-4 1.8 0 0zM183.2 210.4zM11.8 51.8h.2-.2zM33 52c0-.1-.1-.1-.1-.2-.8-.9-1.8-.5.1.2zM11.8 51.8zM182 258.8c4.1-1.5.2-1.6 0 0zM91.7 81.4c1.5.6 3.1 1 4.8 1-3.1-1.6-4.9-1.5-4.8-1zM183.2 210.4zM207.7 194.5c-.1 0-.1 0 0 0-2.3 1-4.4 2 0 0zM138.8 64c-1.2.6-2.4 1.2-3.5 1.9 9.8-.8 9.3-4.4 3.5-1.9zM179.3 211.4c1.3-.3 2.6-.6 3.9-1-11.2 1.4-11.7 2.9-3.9 1zM163.9 69.5zM273.3 219.7c.4.2 3.2 1.3 0 0zM12 51.8c.2.1.3.1 0 0zM287 193.6s.1 0 0 0c.1 0 0 0 0 0zM273.3 219.6c0 .1 0 .1 0 0 0 .1 0 .1 0 0zM153.4 195c.9-.7 1.8-1.4 0 0zM188.6 252.9c.8-.1 1.1-.2 1.2-.2-.2.1-.9.2-1.2.2zM189.8 252.7c.1 0 .1 0 0 0zM283.2 194.9c2-.7 3.1-1 3.6-1.2-.9.3-3.4 1.1-3.7 1.2h.1zM160.6 223.1zM257.3 134.5c2.9-.3 1.5-.2 0 0 .1 0 0 0 0 0zM210.8 190.8zM257.3 134.5zM217.9 153.6c-1.6.6-7.1 2.5 0 0zM198.2 191.8zM257.3 134.5s.1 0 0 0zM203.5 160.3c.6-.7.9-1 .9-1.1-.2.3-1.9 2.4-2.1 2.6.1-.1.4-.6 1.2-1.5zM202.3 161.8zM204.4 159.2c.1-.1.1-.1 0 0zM217.1 175.1c-.5.6-.8 1 0 0zM306.9 114.2h.1c0-.1 0-.1-.1 0 0-.1 0-.1 0 0zM307 114.1c.5 0 1-.1 0 0zM217.1 175.1c2.1-2.6.8-1 0 0zM198.2 191.8c.2-.1.4-.2.5-.3 4.7-2.8 3.8-7.1-.5.3zM198.2 191.8zM306.9 114.2c-1 0-.5 0 0 0zM157.5 223.1h3.1-3.1zM307 114.1c-.1 0-.1 0 0 0-.1 0-.1 0 0 0zM148.8 166.5c1.1-.2 2.2-.4 3.3-.7 2.3-.7-1-.7-3.3.7zM177.5 214.1c-9.6 1.3 9.7-1.2 0 0zM301.2 100c11.2-1.6-4.1.6 0 0zM361 183.7c-.8-.4-.1.1 0 0zM270.7 175c-.4 1.2-.8 2.8 0 0zM287.4 100.2c-.6.3-1.3.6 0 0zM312.1 107.9c6.6 1.4 0-.3 0 0zM223.6 178.8zM257.3 134.5c-1.4.2-2.8.3 0 0zM217.9 153.6c.6-.2.5-.1 0 0zM304.4 103.7zM304.4 103.7zM215.5 196.7c-.1-.3-1.4.6 0 0zM306.9 103.5c-.8.1-1.7.1-2.5.2 0 .2 4.6-.3 2.5-.2zM346.9 128.4c-2.8.2-5.5.6-8.2 1.1.1.2 4.3 0 8.2-1.1zM333.5 136c1.1-.5.6-.2 0 0zM341.2 166.5c-1.9-1-3.9-1.9-5.9-2.8 2.3 1.3 5.1 2.7 5.9 2.8zM228.9 137.4zM228.9 137.4zM256.6 158.5s-.1 0 0 0c-7.2 0-3.4 0 0 0zM256.6 158.5s-.1 0 0 0c-.1 0 0 0 0 0zM231.6 141.3c2 .2-1.2-.2 0 0zM228.9 137.4c.1.2.5-.5 0 0zM234.9 148zM234.5 147.8c.1 0 .2.1.4.2-.2-.1-.3-.1-.4-.2zM234.5 147.8c-.1 0-.1 0 0 0zM234.9 148c.1 0 .2.1.3.1-.1-.1-.2-.1-.3-.1zM235.2 148.1c.2.1.4.1.6.2-.2-.1-.4-.2-.6-.2zM235.8 148.3zM321.9 115.3c.1 0 .1 0 0 0zM236.4 148.5h0zM236 148.3c-.1 0-.1 0-.2-.1.1.1.1.1.2.1zM236.6 148.5c.1 0 .2.1.2.1-.1 0-.1 0-.2-.1zM236 148.3c.2.1.3.1.4.1-.1.1-.2 0-.4-.1zM236.8 148.6zM236.8 148.6zM236.8 148.6zM341.2 166.5zM321.9 115.3c-.8 0-7.9.6 0 0zM256.4 160.3zM256.6 158.5c2.9 0 5.5 0 0 0zM239.8 167.4zM321.9 115.3zM253.7 162.5c-.1 0-.1 0 0 0zM253.7 162.5c.2-.2 1-.8 2.7-2.1-.1 0-2.3 1.7-2.7 2.1zM216.7 226.5c0 .1 0 .1 0 0zM216.7 226.5c.5-.3 9.3-5.2 3.4-1.9-2.3 1.3-3.2 1.9-3.4 1.9zM208.8 215.8c.3-.2 13.8-6.7 3.8-1.8-2.6 1.2-3.7 1.8-3.8 1.8zM265.1 160.7c-.2-.2-.7.5 0 0zM287.5 100.2c1.2-.5.6-.2 0 0zM208.8 215.8zM182.5 234.6c.8-.2 2.7-.8 0 0 .1 0 .1 0 0 0zM286.5 94.1c-.1.1-.1.1 0 0zM222.2 59.8c12.2-1.1-.1-.2 0 0zM222.2 59.8zM254.8 75.2v-.1.1zM204.3 55.9c-2.8 0-1.3 1.7 0 0zM236 61zM222.2 59.8zM253 99.5zM252 96.7c1.6-1.3-.2-1.3 0 0zM244.4 68c.1.2.2.3.3.5 1.7 1.8 4.3-.6-.3-.5zM270.3 96.5v-.1zM252.6 72.9c-.1-.2-.8.2 0 0zM253 99.5zM222.7 69.6zM236 61c-2.1.1-1.5 1.3 0 0zM236 61zM253 99.5c-.3-.3-.5.7 0 0zM255 88.5c.2.4.5-.3 0 0zM256.9 98.9c-1 2.3.4.2 0 0zM251 84.8c-.3.3 3-.9 0 0zM220 69.7c-2.2 0-1.3 0 0 0zM221.5 69.6h0zM221.8 69.6h.2-.2zM220 69.7c.1 0 .1 0 0 0 .1 0 .1 0 0 0zM222.5 69.6h-.5.5zM222.5 69.6h0zM220.1 69.7zM220.1 69.7h.4-.4zM220.5 69.6h.5-.5zM221 69.6h.6-.6zM310.6 154.5zM313.6 154.6h-.1.1zM313.6 154.6c.1 0 0 0 0 0zM363.5 155.7c-4.5 2.3.1.2 0 0zM332.8 83c6.4-1.3-6.5 1.3 0 0zM313.1 154.6h-.8.8zM286.5 179.1c-.5.3-1.1.5-1.6.8-.3 2 4.3-1.9 1.6-.8zM310.6 154.5h1.2-1.2zM336.2 156.1c-.1 0-.1 0 0 0zM337.6 155.3c-.9.5-1.3.8-1.4.8.1-.1 1.2-.7 1.4-.8zM286.5 94.1zM291.9 173.2c21.3-3.2-4.5.7 0 0zM287.4 100.2c.1 0 .1 0 0 0 .1 0 .1 0 0 0zM286.5 94.1c2.7-2 .5-.4 0 0zM343.6 155.1c.1-.1.3-.1.4-.2-.2.1-.3.2-.4.2zM340.5 156.6c1.5-.7 2.5-1.2 3.1-1.5-1.3.7-3.5 1.7-3.1 1.5zM344.3 154.8c.1 0 .2-.1.2-.1-.1 0-.2.1-.2.1z"/><path d="M343.9 155c.1-.1.2-.1.3-.2 0 .1-.1.1-.3.2zM309.9 154.5h.7-.7zM337.6 155.3c.1-.1.1-.1 0 0zM271.9 100.3zM264.6 96.6c-.4.4-.5.5 0 0zM266.9 93.9c.1-.1.1-.1 0 0zM264.6 96.6c1.5-1.7 2.2-2.5 2.3-2.7-.3.3-1.7 1.9-2.3 2.7zM358 132.9c-1.4.1-2.5.1 0 0zM269 103.1c2-1.9 2.8-2.7 2.9-2.8-.3.3-2.6 2.6-2.9 2.8zM297.6 88.5c1.7-.9 5.3-2.8.2-.1 0 0-.1 0-.2.1zM270.3 96.4l.1-.1-.1.1zM265.5 72.6c0-.1.1-.2.1-.4v-.1c-5.4 3.1-1.4 4-.1.5zM270.4 96.3c.7-.8 3.4-3.7 3.6-3.9-.2.2-1.1 1.2-3.6 3.9zM273.9 92.5zM297.4 88.6c.1 0 .2-.1.3-.1-.2 0-.3.1-.3.1zM269 103.1c-.1.1-.1.1 0 0zM309.8 154.5h-.3.3zM309.4 154.5h-.1.1zM358.3 132.9c1.4-.1 2.1-.1 2.1-.1-.1-.1-1.2 0-2.1.1zM297.4 88.6zM358 132.9H358.2h-.2zM102.6 142.3c-9.2 5.3 1.7-1 0 0zM127 291c-3.6.6 0 .3 0 0zM135 293.1zM171.3 249.3c-1.5 5 3 1.2 0 0zM135 293.1c-4.5-.1-3.5 2.6 0 0zM378.2 121.3c.7-.5 1.3-1.1 1.6-1.5-1.7.5-2 1.5-1.6 1.5zM165.7 259.3v-.1zM168.5 244.3c.1.1.2.1.3.2-1.7-1.1-7.6-4.9-.3-.2zM135 293.1zM310.9 247.5c.9.7.2-.3 0 0zM260.8 228.5l.1-.1c0 .1-.1.1-.1.1zM255.6 236.5c-1.6 1.3 10 9.4 0 0z"/><path d="M260.8 228.5c.4-.3.9-.7.1-.1 0 .1-.1.1-.1.1zM260.8 228.5c-.8.7-.5.4 0 0zM246.2 260.2c.3-.1.7-.2 1-.3 0-.1-.1-.2-.2-.3-1-1.4-5.1 1.4-.8.6zM345.4 115.3zM204.6 259.8c0-.2-.7.3 0 0zM247.2 259.9zM221.5 256.1c.6.1 1.3.2 1.9.3 4.8.5 2.9-1.2-1.9-.3zM247.2 259.9zM105.5 209.6h-.3.3zM103.2 209.2zM74.6 228.8c-5.8-2 1.6.5 0 0zM104.1 209.4c.2 0 .4.1.5.1-.1-.1-.3-.1-.5-.1zM103.2 209.2c.2 0 .6.1.9.2-.2 0-.4-.1-.7-.1 0-.1-.1-.1-.2-.1zM104.6 209.4c.2 0 .4.1.5.1-.1 0-.2 0-.5-.1zM103.2 209.2c-.2-.1-.2-.1 0 0zM105.2 209.5c0 .1 0 .1 0 0 0 .1 0 .1 0 0zM105.5 209.6c.1 0 .1 0 0 0zM102.5 264zM147 243.5c-.1 0-.1 0 0 0-.1 0 0 0 0 0zM113.1 272.3c.6 0 1.3-.1 2-.3-1 .1-2 .2-3 .2.3.1.6.1 1 .1zM111.2 251.1c.2 0 1.1.1 2.8.3-1.2-.1-2.5-.3-2.8-.3zM114 251.4c4.2.5 2.2.3 0 0zM114 251.4zM111.2 251.1c-.1 0-.1 0 0 0zM34.3 207.3zM34.3 207.3l8.7 3.6c4.5 1.7-7.2-3.4-8.7-3.6zM34.3 207.3zM96.8 51.5c-.2.1-.3.2-.3.3 0-.1.1-.2.3-.3zM97.1 51.2l-.3.3c0-.1.2-.2.3-.3zM369 319v0zM263.4 48.1c-4.6-.5-.6 0 0 0zM97.2 51.1c.1-.1.2-.2.3-.2-.1 0-.2.1-.3.2zM62.3 260.3zM322.5 250.7c1.4 1.4.6.5 0 0zM253.9 52.6c-8.2.3 4.3-.2 0 0zM359.8 286.5zM356.2 271c.1 0 .1 0 0 0zM322.5 250.7c-.3-.4-.6-.7 0 0zM360.4 286.9c-.2-.1-.4-.3-.6-.4 5.4 8.5 4.5 3 .6.4zM359.8 286.5zM97.1 51.2s0-.1 0 0c0-.1 0 0 0 0zM110.6 70.8c.2.1-12.8-6.3 0 0zM97.1 51.2zM97.6 50.8c0-.1 0-.1 0 0zM354.5 269.8c.5.4 1.4 1 1.7 1.2-.2-.2-.7-.5-1.7-1.2zM373.7 26.9c1.8.1 2.6.2 2.7.2-.4 0-9.4-.6-10.1-.6.4-.1 2.4.1 7.4.4zM306.9 242.9c-2.2-.6-1.1-.3 0 0zM354.5 269.8c-.5-.4-.4-.3 0 0zM306.9 242.9c1.2.3 2.4.7 0 0zM306.9 242.9zM373.8 298.9c1.3 3.1.2-.2 0 0zM286.5 57.2c.5-.3 1-.7 1.3-.9-.2.2-.6.5-1.3.9zM287.8 56.3c.1-.1.2-.1.2-.1s-.1.1-.2.1zM279.7 58.1c-12.5 2.3-2.7 3 0 0zM366.5 277.2zM366.5 277.2zM273.9 57.4c0-.4-2.9.4 0 0zM366.5 277.2c-.9-.1 0 .2 0 0zM384.3 292.9c0 .1 0 .1 0 0 0 .1 0 .1 0 0zM288 56.2zM383.9 285.3c-.3-.2-.6-.3-.9-.4v.6c1.8 1.2 2.5.8.9-.2zM381.5 284.3c-.1 0-.1 0 0 0 .5.5 1.1 1 1.5 1.3v-.6c-.5-.3-1-.6-1.5-.7zM288 56.2c.1 0 .1 0 0 0zM384.3 292.9c-1.7-2.4-.6-.8 0 0zM384.3 292.9c0 .1 0 .1 0 0 .3.5.5.7 0 0zM362.4 281.5c-.4-.2-.9-.4-1.3-.6h-.1c7.5 6.8 10 4.8 1.4.6zM59.9 186.5s-.1 0 0 0c-.1 0 0 0 0 0zM287.4 199.1zM287.4 199.1zM70.9 184.3c-7.6 2.9-2.1 3 0 0zM289.9 198.7zM284.4 190.1c1.6-.9 2.2-1.2 2.3-1.3-.2.1-2 1.1-2.3 1.3zM284.3 190.1c.1 0 .1 0 0 0zM284.3 190.1zM161.5 256.3c-1.2 8.4.5-3.7 0 0zM93.9 149.6zM287.6 199.1c.3 0 .5-.1.7-.1-.2 0-.5.1-.7.1zM93.9 149.6zM114.4 143.1c-2.8 1.6-.4.2 0 0zM70.9 184.3zM70.9 184.3zM288.8 198.9c.1 0 .3 0 .4-.1-.2.1-.3.1-.4.1zM154.5 241c3.1 19.3 1.8 6.2 0 0zM387.7 189.1s.1 0 .1.1c0-.1-.1-.1-.1-.1zM149.2 260.5c-3 4.6 3.5-5.2 0 0zM149.2 260.5zM93.9 149.6c.6-.1 1.2-.2 1.9-.3 4.8-.9 2.7-2.5-1.9.3zM131.6 178.3h.2-.2zM312.3 210.1c-.7-.2-1.6-.4-2.1-.5.3 0 1 .2 2.1.5zM131.9 178.2s.1 0 0 0c.1 0 0 0 0 0zM129.9 178.7h.2-.2zM312.3 210.1c.5.1.8.2 1 .2-.2-.1-.6-.1-1-.2zM313.3 210.3c.3.1.3.1 0 0zM310 209.5c-.1 0-.2 0 0 0zM131.1 178.4c.1 0 .1 0 0 0 .1 0 .1 0 0 0zM132.1 178.2zM126.3 179.5c-.5.1-.9.2-1.2.3.3-.1.7-.1 1.2-.3zM310.1 209.5zM126.5 179.5h-.2.2zM125.1 179.8h-.2.2zM124.9 179.9h-.2.2zM124.7 179.9zM292.8 204.8c1.6.3 0 0 0 0zM74 158.2zM304 206.4zM74 158.2c2.4-.6 1.6-.4 0 0zM287.3 199.1c-.5.1-.4.1 0 0zM143.1 153.2c-.7.1-1.4.3-2.1.5 0 .1 2.1-.2 2.1-.5zM102.6 142.3zM171.4 164.2c-.2 0-1.5 1-2.6 1.7.9-.5 1.8-1.1 2.6-1.7zM69.7 159.4zM74 158.2c-1.7.4-4.1 1.1-4.3 1.1.1 0 1.2-.3 4.3-1.1zM304 206.4zM171.4 164.2zM171.4 164.2zM304 206.4c1.3.3.1-.4 0 0zM133.4 153.2c.1.3 1.1-.5 0 0zM133.4 153.2zM133.4 153.2zM39.7 255.9c0 .1 1 .2 0 0zM28.4 245.8c-.7-.1-1.5-.2-2.2-.3 1.2.5 2.2.7 2.2.3zM126.5 179.5zM138.1 241.4c0-.3-.9 0 0 0zM138.2 241.4zM138.2 241.4zM115.4 268.9c.1 0 .2 0 .3-.1.1 0 .1 0 .2-.1.2-.1.4-.1.6-.2h.1c-2.5-.2-3.1.9-1.2.4zM31.6 251.6c-5.6-1.2 3 .7 0 0zM363.6 168.4c-.1.1-.2.2-.3.2l-.2.2c3.8 3 4.5-3.9.5-.4zM60.6 259.6c.1 0 .1 0 .1.1 0 0-.1 0-.1-.1zM60.7 262.5zM353 178c-1.6-.8-3.5-1.7 0 0zM353.1 178zM19.5 240.5zM381.1 181.1c-.2-.1.2.1 0 0zM353.1 178c2.9 1.4 1.5.8 0 0zM370.6 175.7c-.1.2.4.1 0 0zM95.3 259.1zM127.1 234.6c-1.4-.6-4.9-2.2 0 0zM107 241c.1 0 .1 0 0 0 .1 0 .1 0 0 0 .1 0 0 0 0 0zM107 241c-.9-.1-1.8-.1 0 0zM107 241s.1 0 0 0c.1 0 .1 0 0 0zM127.1 234.6c.7.3.5.2 0 0zM107.1 241c1.9.2.9.1 0 0zM111.2 244.9h-.4.4zM112.7 244.8h-1.5 1.5c.1 0 .1 0 0 0zM111.2 244.9z"/></svg>