<?xml version="1.0" encoding="UTF-8" standalone="no"?>
<svg width="79px" height="85px" viewBox="0 0 79 85" version="1.1" xmlns="http://www.w3.org/2000/svg" xmlns:xlink="http://www.w3.org/1999/xlink">
    <!-- Generator: Sketch 3.6 (26304) - http://www.bohemiancoding.com/sketch -->
    <title>Page 1</title>
    <desc>Created with Sketch.</desc>
    <defs>
        <path id="path-1" d="M39.3664741,77.7740464 L0,77.7740464 L0,0.0796709743 L78.7329481,0.0796709743 L78.7329481,77.7740464 L39.3664741,77.7740464 L39.3664741,77.7740464 Z"></path>
        <path id="path-3" d="M32.3618327,1.50236694 L32.3618327,0.0796709743 L0.362633654,0.0796709743 L0.362633654,1.50236694 L32.3618327,1.50236694 L32.3618327,1.50236694 Z"></path>
    </defs>
    <g id="Welcome" stroke="none" stroke-width="1" fill="none" fill-rule="evenodd">
        <g id="DA-VINCI" transform="translate(-257.000000, -20.000000)">
            <g id="Logo" transform="translate(257.000000, 21.000000)">
                <g id="Page-1">
                    <path d="M27.1719464,68.4485588 C27.8805409,68.9934514 28.6265545,69.4899723 29.4043033,69.9366988 L39.3663083,59.9621774 L49.3278396,69.9362246 C50.1065357,69.489498 50.8520756,68.9929771 51.5606701,68.4480846 L39.3663083,56.2394562 L27.1719464,68.4485588 L27.1719464,68.4485588 Z" id="Stroke-1" stroke="#FFFFFF"></path>
                    <path d="M23.4539568,40.3076325 L35.6483186,52.5167351 L23.4539568,64.7263119 C23.9896656,65.4248556 24.5670564,66.0906774 25.188024,66.7128697 L39.3665451,52.5167351 L25.188024,38.321549 C24.5665828,38.9427929 23.9896656,39.6086146 23.4539568,40.3076325 L23.4539568,40.3076325 Z" id="Stroke-3" stroke="#FFFFFF"></path>
                    <path d="M51.5609543,36.5846743 C50.8528335,36.040256 50.1063462,35.5437351 49.3285975,35.0974828 L39.3665925,45.0710558 L29.4041138,35.0970085 C28.6258914,35.5437351 27.8798778,36.0407302 27.171757,36.5846743 L39.3665925,48.7942511 L51.5609543,36.5846743 L51.5609543,36.5846743 Z" id="Stroke-5" stroke="#FFFFFF"></path>
                    <path d="M43.08444,52.51683 L55.2792755,40.3072531 C54.743093,39.6087094 54.1661759,38.9428877 53.5447347,38.3206953 L39.3662136,52.51683 L53.5447347,66.7124903 C54.1657022,66.090298 54.743093,65.4244763 55.2792755,64.7259325 L43.08444,52.51683 L43.08444,52.51683 Z" id="Stroke-7" stroke="#FFFFFF"></path>
                    <path d="M56.7654293,42.5422611 L46.802477,52.5167825 L56.7654293,62.4917782 C58.4497622,59.5524883 59.4179221,56.1498738 59.4179221,52.5167825 C59.4179221,48.885114 58.4497622,45.481551 56.7654293,42.5422611 L56.7654293,42.5422611 Z" id="Stroke-9" stroke="#FFFFFF"></path>
                    <path d="M46.802477,71.1315737 L39.3664977,63.6847088 L31.9305185,71.1315737 L31.8571013,71.1315737 C34.1770851,72.0705531 36.7102157,72.591734 39.3664977,72.591734 C42.0223061,72.591734 44.5559104,72.0705531 46.8754206,71.1315737 L46.802477,71.1315737 L46.802477,71.1315737 Z" id="Stroke-11" stroke="#FFFFFF"></path>
                    <path d="M31.9304237,52.51683 L21.9679451,42.5427827 C20.2831385,45.4815984 19.3149787,48.8846871 19.3149787,52.51683 C19.3149787,56.149447 20.2826649,59.5520615 21.9679451,62.4908772 L31.9304237,52.51683 L31.9304237,52.51683 Z" id="Stroke-13" stroke="#FFFFFF"></path>
                    <path d="M31.9304237,33.9029872 L39.366403,41.3479552 L46.8023823,33.9029872 L46.8781678,33.9029872 C44.5577103,32.9630594 42.0236324,32.4404558 39.366403,32.4404558 C36.7091737,32.4404558 34.1755694,32.9630594 31.8546382,33.902513 L31.9304237,33.902513 L31.9304237,33.9029872 L31.9304237,33.9029872 Z" id="Stroke-15" stroke="#FFFFFF" stroke-linecap="square" stroke-linejoin="bevel"></path>
                    <path d="M42.9160541,0.127236443 L53.5937585,17.6221288 L64.9170606,36.8778445 C68.1076305,41.5585142 69.8525918,47.1558744 69.8525918,52.8955042 C69.8525918,69.1711461 56.1761496,82.4121775 39.3664504,82.4121775 C30.9613639,82.4121775 23.3401838,79.1020382 17.8196832,73.7574437 C12.2996563,68.4128491 8.88030896,61.0337994 8.88030896,52.8964527 C8.88030896,47.1587198 10.6219547,41.5632566 13.9176769,36.7113891 L27.9157338,12.9675418 C28.7905828,11.4974226 29.4290757,12.5464238 30.9438385,13.3943506 C32.4609697,14.2413289 32.3264504,14.568549 31.4516014,16.0367712 L28.6574845,20.7217091 L17.3498131,39.9442286 C14.6466388,43.9320454 13.2659216,48.3618464 13.2659216,52.8964527 C13.2659216,60.9375303 18.2407665,68.805039 25.2158751,73.5862459 C29.4224445,76.4700507 34.3565547,78.2318225 39.3655031,78.2318225 C52.6786485,78.2318225 65.4650846,65.7875009 65.4650846,52.8964527 C65.4650846,48.359001 63.9668998,43.6958778 61.6890717,39.4600377 L50.047944,20.6761828 L42.2676143,7.25067516" id="Stroke-17" stroke="#FFFFFF" stroke-width="1.031"></path>
                    <path d="M69.9762643,75.7125599 L58.4033436,75.7125599 L58.4033436,75.2383279 L69.5026049,75.2383279 L69.5026049,14.8932556 L51.5466498,14.8932556 L51.5466498,14.4190237 L69.9762643,14.4190237 L69.9762643,75.7125599 Z" id="Fill-19" fill="#FFFFFF"></path>
                    <path d="M19.9903696,75.7125599 L8.75658911,75.7125599 L8.75658911,14.4190237 L27.1573104,14.4190237 L27.1573104,14.8932556 L9.23024854,14.8932556 L9.23024854,75.2383279 L19.9903696,75.2383279 L19.9903696,75.7125599 Z" id="Fill-21" fill="#FFFFFF"></path>
                    <g id="Group-25" transform="translate(0.000000, 6.138933)">
                        <mask id="mask-2" fill="white">
                            <use xlink:href="#path-1"></use>
                        </mask>
                        <g id="Clip-24"></g>
                        <path d="M78.7329481,77.7740464 L-0.000142097827,77.7740464 L-0.000142097827,0.0796709743 L41.9755559,0.0796709743 L42.7784087,1.50236694 L1.42083617,1.50236694 L1.42083617,76.3513504 L77.3119699,76.3513504 L77.3119699,0.791018959 L78.7329481,0.791018959 L78.7329481,77.7740464 Z" id="Fill-23" fill="#FFFFFF" mask="url(#mask-2)"></path>
                    </g>
                    <g id="Group-28" transform="translate(46.418623, 6.138933)">
                        <mask id="mask-4" fill="white">
                            <use xlink:href="#path-3"></use>
                        </mask>
                        <g id="Clip-27"></g>
                        <path d="M0.362633654,0.0796709743 L0.362633654,0.791018959 L0.796505685,1.50236694 L32.3621169,1.50236694 L32.3621169,0.0796709743 L0.362633654,0.0796709743 Z" id="Fill-26" fill="#FFFFFF" mask="url(#mask-4)"></path>
                    </g>
                </g>
            </g>
        </g>
    </g>
</svg>